STARTFONT 2.1
COMMENT
COMMENT Converted from OpenType font "NimbusSans-Regular.otf" by "otf2bdf 3.0".
COMMENT
FONT -FreeType-Nimbus Sans-Medium-R-Normal--72-520-100-100-P-375-ISO10646-1
SIZE 52 100 100
FONTBOUNDINGBOX 90 99 -15 -21
STARTPROPERTIES 19
FOUNDRY "FreeType"
FAMILY_NAME "Nimbus Sans"
WEIGHT_NAME "Medium"
SLANT "R"
SETWIDTH_NAME "Normal"
ADD_STYLE_NAME ""
PIXEL_SIZE 72
POINT_SIZE 520
RESOLUTION_X 100
RESOLUTION_Y 100
SPACING "P"
AVERAGE_WIDTH 375
CHARSET_REGISTRY "ISO10646"
CHARSET_ENCODING "1"
FONT_ASCENT 52
FONT_DESCENT 19
COPYRIGHT "(URW)++,Copyright 2014 by (URW)++ Design & Development"
_OTF_FONTFILE "NimbusSans-Regular.otf"
_OTF_PSNAME "NimbusSans-Regular"
ENDPROPERTIES
CHARS 854
STARTCHAR 0020
ENCODING 32
SWIDTH 276 0
DWIDTH 20 0
BBX 0 0 0 0
BITMAP
ENDCHAR
STARTCHAR 0021
ENCODING 33
SWIDTH 276 0
DWIDTH 20 0
BBX 6 53 9 0
BITMAP
FC
FC
FC
FC
FC
FC
FC
FC
FC
FC
FC
FC
FC
FC
FC
FC
FC
FC
FC
FC
FC
FC
FC
FC
FC
FC
FC
FC
FC
FC
78
78
78
78
78
78
78
78
78
78
30
00
00
00
00
FC
FC
FC
FC
FC
FC
FC
FC
ENDCHAR
STARTCHAR 0022
ENCODING 34
SWIDTH 360 0
DWIDTH 26 0
BBX 18 17 4 34
BITMAP
FC1FC0
FC1FC0
FC1FC0
FC1FC0
FC1FC0
FC1FC0
FC1FC0
FC1FC0
FC1FC0
FC0FC0
FC0F80
FC0F80
7C0F80
780F80
780780
780700
780700
ENDCHAR
STARTCHAR 0023
ENCODING 35
SWIDTH 553 0
DWIDTH 40 0
BBX 38 52 1 -1
BITMAP
0003E00FC0
0003E00FC0
0003E00FC0
0007E00F80
0007E00F80
0007C01F80
0007C01F80
0007C01F80
000FC01F00
000FC01F00
000FC01F00
000F803F00
000F803F00
000F803F00
1FFFFFFFFC
1FFFFFFFFC
1FFFFFFFFC
1FFFFFFFFC
1FFFFFFFFC
003F007C00
003F007C00
003F007C00
003E00FC00
003E00FC00
003E00FC00
007E00F800
007E00F800
007E00F800
007C01F800
007C01F800
00FC01F800
00FC01F000
FFFFFFFFF0
FFFFFFFFF0
FFFFFFFFF0
FFFFFFFFF0
FFFFFFFFF0
01F803E000
01F803E000
01F007E000
01F007E000
03F007E000
03F007C000
03F007C000
03E00FC000
03E00FC000
03E00FC000
07E00F8000
07E00F8000
07E00F8000
07C01F8000
07C01F8000
ENDCHAR
STARTCHAR 0024
ENCODING 36
SWIDTH 553 0
DWIDTH 40 0
BBX 35 65 3 -9
BITMAP
0001E00000
0001E00000
0001E00000
0001E00000
0003F80000
003FFF8000
00FFFFE000
03FFFFF000
07FFFFFC00
0FFFEFFC00
1FE1E1FE00
1FC1E07F00
3F81E03F00
3F01E03F80
7E01E01F80
7E01E01F80
7E01E01F80
7E01E00F80
7E01E00F80
7E01E00000
7E01E00000
7E01E00000
7F01E00000
3F81E00000
3FC1E00000
3FF1E00000
1FFDE00000
0FFFF00000
07FFFE0000
03FFFFC000
00FFFFF000
003FFFFC00
0007FFFE00
0001FFFF00
0001E3FF80
0001E0FFC0
0001E03FC0
0001E01FC0
0001E00FE0
0001E00FE0
0001E007E0
FC01E007E0
FC01E007E0
FC01E007E0
FC01E007E0
FC01E007E0
FC01E00FC0
7E01E00FC0
7E01E01FC0
7F01E03F80
3F81E07F80
3FE1E0FF00
1FFDE7FE00
0FFFFFFC00
07FFFFF800
01FFFFF000
007FFF8000
0003F80000
0001E00000
0001E00000
0001E00000
0001E00000
0001E00000
0001E00000
0001E00000
ENDCHAR
STARTCHAR 0025
ENCODING 37
SWIDTH 886 0
DWIDTH 64 0
BBX 60 53 2 -1
BITMAP
00000000003E0000
00000000007C0000
007F0000007C0000
01FFC00000F80000
07FFF00000F00000
0FFFF80001F00000
1FFFFC0001E00000
3FC1FE0003E00000
3F007E0003C00000
7E003F0007C00000
7C001F000F800000
FC001F000F800000
F8001F801F000000
F8000F801F000000
F8000F803E000000
F8000F803C000000
F8000F807C000000
FC001F0078000000
7C001F00F8000000
7E003F00F0000000
3F007E01F0000000
3FC1FE03E0000000
1FFFFC03E0000000
0FFFF807C0000000
07FFF007C0000000
01FFC00F80000000
007F000F80000000
0000001F00000000
0000001E000FE000
0000003E003FFC00
0000003C00FFFE00
0000007C01FFFF00
0000007803FFFF80
000000F807F83FC0
000001F007E00FE0
000001F00FC007E0
000003E00FC003E0
000003E00F8003F0
000007C00F8001F0
000007C01F0001F0
00000F801F0001F0
00000F001F0001F0
00001F000F8001F0
00001E000F8003F0
00003E000FC003E0
00003C000FC007E0
00007C0007E00FE0
0000F80007F83FC0
0000F80003FFFF80
0001F00001FFFF00
0001F00000FFFE00
0003E000003FFC00
0003C000000FE000
ENDCHAR
STARTCHAR 0026
ENCODING 38
SWIDTH 664 0
DWIDTH 48 0
BBX 42 53 4 -2
BITMAP
0003FC000000
000FFF000000
003FFFC00000
007FFFE00000
00FFFFF00000
01FE0FF00000
01FC03F80000
03F801F80000
03F001F80000
03F000FC0000
03F000FC0000
03F000FC0000
03F000FC0000
03F000FC0000
03F001F80000
03F803F80000
01FC03F80000
01FE0FF00000
00FE1FE00000
007F7FC00000
007FFF800000
003FFF000000
001FFC000000
001FF8000000
007FF0000000
00FFF8000000
03FFFC000000
07FDFE00F800
0FF0FE00F800
1FE07F01F800
3FC07F81F800
7F803FC1F800
7F001FE1F800
7E000FF3F000
FE0007F3F000
FC0007FBF000
FC0003FFE000
FC0001FFE000
FC0000FFC000
FC00007FC000
FC00007F8000
FE00003FC000
FE00007FE000
FF0000FFF000
7F0001FFF800
7FC003FFFC00
3FE00FFBFC00
3FFFFFF1FE00
1FFFFFE0FF00
0FFFFF807F80
03FFFF003FC0
01FFFC000000
003FE0000000
ENDCHAR
STARTCHAR 0027
ENCODING 39
SWIDTH 193 0
DWIDTH 14 0
BBX 7 17 3 34
BITMAP
FE
FE
FE
FE
FE
FE
FE
FE
7E
7E
7E
7E
7C
3C
3C
3C
3C
ENDCHAR
STARTCHAR 0028
ENCODING 40
SWIDTH 332 0
DWIDTH 24 0
BBX 16 68 5 -15
BITMAP
000F
001E
003E
003C
0078
00F8
00F8
01F0
01F0
03E0
03E0
07C0
07C0
07C0
0F80
0F80
1F80
1F00
1F00
3F00
3F00
3E00
3E00
7E00
7E00
7E00
7E00
7E00
7C00
7C00
FC00
FC00
FC00
FC00
FC00
FC00
FC00
FC00
7C00
7C00
7E00
7E00
7E00
7E00
7E00
3E00
3F00
3F00
3F00
1F00
1F00
1F80
0F80
0F80
0FC0
07C0
07C0
03E0
03E0
01F0
01F0
00F8
00F8
007C
003C
003E
001E
000F
ENDCHAR
STARTCHAR 0029
ENCODING 41
SWIDTH 332 0
DWIDTH 24 0
BBX 15 68 3 -15
BITMAP
F000
7800
7C00
3C00
3E00
1E00
1F00
0F80
0F80
07C0
07C0
07E0
03E0
03E0
03F0
01F0
01F0
01F8
00F8
00F8
00FC
00FC
007C
007C
007E
007E
007E
007E
007E
007E
003E
003E
003E
003E
003E
003E
003E
003E
007E
007E
007E
007E
007E
007E
007C
007C
00FC
00FC
00F8
00F8
01F8
01F0
01F0
03F0
03E0
03E0
07C0
07C0
07C0
0F80
0F00
1F00
1E00
3E00
3C00
7800
7800
F000
ENDCHAR
STARTCHAR 002A
ENCODING 42
SWIDTH 387 0
DWIDTH 28 0
BBX 22 21 3 32
BITMAP
007800
007800
007800
007800
007800
407800
707878
7E7BF8
FFFFF8
FFFFFC
1FFFE0
01FE00
01FE00
03FE00
03FF00
07CF80
0F8FC0
1F87C0
1F03E0
0E0380
020100
ENDCHAR
STARTCHAR 002B
ENCODING 43
SWIDTH 581 0
DWIDTH 42 0
BBX 35 35 4 -1
BITMAP
0001F00000
0001F00000
0001F00000
0001F00000
0001F00000
0001F00000
0001F00000
0001F00000
0001F00000
0001F00000
0001F00000
0001F00000
0001F00000
0001F00000
0001F00000
FFFFFFFFE0
FFFFFFFFE0
FFFFFFFFE0
FFFFFFFFE0
FFFFFFFFE0
0001F00000
0001F00000
0001F00000
0001F00000
0001F00000
0001F00000
0001F00000
0001F00000
0001F00000
0001F00000
0001F00000
0001F00000
0001F00000
0001F00000
0001F00000
ENDCHAR
STARTCHAR 002C
ENCODING 44
SWIDTH 276 0
DWIDTH 20 0
BBX 8 19 6 -11
BITMAP
FF
FF
FF
FF
FF
FF
FF
FF
07
07
07
07
0F
0E
0E
3C
FC
F0
C0
ENDCHAR
STARTCHAR 002D
ENCODING 45
SWIDTH 332 0
DWIDTH 24 0
BBX 18 5 3 17
BITMAP
FFFFC0
FFFFC0
FFFFC0
FFFFC0
FFFFC0
ENDCHAR
STARTCHAR 002E
ENCODING 46
SWIDTH 276 0
DWIDTH 20 0
BBX 8 8 6 0
BITMAP
FF
FF
FF
FF
FF
FF
FF
FF
ENDCHAR
STARTCHAR 002F
ENCODING 47
SWIDTH 276 0
DWIDTH 20 0
BBX 20 54 0 -1
BITMAP
0000F0
0000F0
0000F0
0001E0
0001E0
0001E0
0003C0
0003C0
0003C0
000380
000780
000780
000780
000F00
000F00
000F00
001E00
001E00
001E00
003C00
003C00
003C00
007800
007800
007800
00F000
00F000
00F000
00E000
01E000
01E000
01E000
03C000
03C000
03C000
078000
078000
078000
0F0000
0F0000
0F0000
1E0000
1E0000
1E0000
3C0000
3C0000
3C0000
780000
780000
780000
700000
F00000
F00000
F00000
ENDCHAR
STARTCHAR 0030
ENCODING 48
SWIDTH 553 0
DWIDTH 40 0
BBX 34 54 3 -2
BITMAP
0007F80000
003FFF0000
007FFF8000
01FFFFE000
03FFFFF000
07FFFFF800
07F807F800
0FF003FC00
1FE001FC00
1FC000FE00
1F8000FE00
3F80007F00
3F80007F00
3F00003F00
7F00003F00
7F00003F80
7E00003F80
7E00003F80
7E00001F80
7E00001F80
FE00001F80
FE00001F80
FE00001FC0
FE00001FC0
FE00001FC0
FE00001FC0
FE00001FC0
FE00001FC0
FE00001FC0
FE00001FC0
FE00001FC0
FE00001FC0
FE00001F80
FE00001F80
7E00001F80
7E00001F80
7E00001F80
7E00003F80
7F00003F80
7F00003F00
3F00003F00
3F00007F00
3F80007F00
1F80007E00
1FC000FE00
1FC001FC00
0FE003FC00
07F807F800
07FE1FF000
03FFFFF000
01FFFFC000
00FFFF8000
003FFF0000
0007F80000
ENDCHAR
STARTCHAR 0031
ENCODING 49
SWIDTH 553 0
DWIDTH 40 0
BBX 18 52 7 0
BITMAP
0003C0
0007C0
0007C0
0007C0
000FC0
000FC0
001FC0
003FC0
00FFC0
07FFC0
FFFFC0
FFFFC0
FFFFC0
FFFFC0
FFFFC0
000FC0
000FC0
000FC0
000FC0
000FC0
000FC0
000FC0
000FC0
000FC0
000FC0
000FC0
000FC0
000FC0
000FC0
000FC0
000FC0
000FC0
000FC0
000FC0
000FC0
000FC0
000FC0
000FC0
000FC0
000FC0
000FC0
000FC0
000FC0
000FC0
000FC0
000FC0
000FC0
000FC0
000FC0
000FC0
000FC0
000FC0
ENDCHAR
STARTCHAR 0032
ENCODING 50
SWIDTH 553 0
DWIDTH 40 0
BBX 35 52 2 0
BITMAP
0003FE0000
001FFFC000
007FFFF000
01FFFFFC00
03FFFFFE00
07FFFFFF00
07FC01FF00
0FF000FF80
1FE0003F80
1FC0003FC0
1FC0001FC0
3F80000FC0
3F80000FE0
3F80000FE0
3F00000FE0
3F00000FE0
3F00000FE0
3F00000FE0
0000000FE0
0000000FC0
0000001FC0
0000003FC0
0000003F80
0000007F00
000001FF00
000003FE00
00000FFC00
00003FF800
00007FF000
0001FFC000
0007FF8000
000FFE0000
003FF80000
007FE00000
00FFC00000
01FF000000
03FC000000
07F8000000
0FF0000000
1FE0000000
1FC0000000
3F80000000
3F80000000
3F00000000
7F00000000
7F00000000
7FFFFFFFE0
7FFFFFFFE0
7FFFFFFFE0
7FFFFFFFE0
7FFFFFFFE0
FFFFFFFFE0
ENDCHAR
STARTCHAR 0033
ENCODING 51
SWIDTH 553 0
DWIDTH 40 0
BBX 35 54 2 -2
BITMAP
0007FC0000
003FFF8000
00FFFFE000
01FFFFF800
07FFFFFC00
07FFFFFC00
0FF803FE00
1FE000FF00
1FC0007F00
1F80007F00
3F80003F80
3F00003F80
3F00003F80
3F00003F80
3F00001F80
7F00001F80
7F00003F80
0000003F80
0000003F00
0000007F00
000000FF00
000001FE00
00000FFC00
0003FFF800
0003FFE000
0003FFE000
0003FFF800
0003FFFC00
00000FFE00
000000FF00
0000007F80
0000003FC0
0000001FC0
0000001FC0
0000000FC0
0000000FC0
0000000FE0
FE00000FE0
FE00000FE0
7E00000FC0
7E00000FC0
7E00000FC0
7F00001FC0
7F00001FC0
3F80003F80
3FC0007F80
1FE000FF00
1FF003FF00
0FFFFFFE00
07FFFFFC00
03FFFFF800
01FFFFE000
007FFF8000
000FFC0000
ENDCHAR
STARTCHAR 0034
ENCODING 52
SWIDTH 553 0
DWIDTH 40 0
BBX 36 52 2 0
BITMAP
000001F000
000003F000
000003F000
000007F000
00000FF000
00001FF000
00001FF000
00003FF000
00007FF000
00007FF000
0000FFF000
0001FBF000
0001FBF000
0003F3F000
0007E3F000
000FC3F000
000FC3F000
001F83F000
003F03F000
003F03F000
007E03F000
00FC03F000
01FC03F000
01F803F000
03F003F000
07E003F000
07E003F000
0FC003F000
1F8003F000
3F8003F000
3F0003F000
7E0003F000
FE0003F000
FC0003F000
FFFFFFFFF0
FFFFFFFFF0
FFFFFFFFF0
FFFFFFFFF0
FFFFFFFFF0
FFFFFFFFF0
000003F000
000003F000
000003F000
000003F000
000003F000
000003F000
000003F000
000003F000
000003F000
000003F000
000003F000
000003F000
ENDCHAR
STARTCHAR 0035
ENCODING 53
SWIDTH 553 0
DWIDTH 40 0
BBX 34 53 3 -2
BITMAP
07FFFFFE00
07FFFFFE00
07FFFFFE00
0FFFFFFE00
0FFFFFFE00
0FFFFFFE00
0FC0000000
0FC0000000
0FC0000000
0FC0000000
1F80000000
1F80000000
1F80000000
1F80000000
1F80000000
1F80000000
1F80000000
1F00E00000
3F0FFF0000
3F3FFFC000
3FFFFFF000
3FFFFFF800
3FFFFFFC00
3FF80FFE00
3FE003FE00
7F8000FF00
7F00007F00
7E00007F80
0000003F80
0000001FC0
0000001FC0
0000001FC0
0000001FC0
0000001FC0
0000000FC0
0000000FC0
0000000FC0
0000001FC0
0000001FC0
FC00001FC0
FE00001F80
FE00003F80
FE00003F80
7F00007F00
7F8000FF00
3FC001FE00
3FF007FC00
1FFFFFF800
0FFFFFF800
07FFFFE000
01FFFFC000
007FFF0000
000FF80000
ENDCHAR
STARTCHAR 0036
ENCODING 54
SWIDTH 553 0
DWIDTH 40 0
BBX 34 54 3 -2
BITMAP
0003FE0000
000FFF8000
003FFFE000
00FFFFF000
01FFFFF800
03FFFFFC00
07FC03FE00
07F001FE00
0FE000FF00
0FC0007F00
1FC0003F00
1F80003F80
3F80003F80
3F00001F80
3F00000000
7F00000000
7F00000000
7E00000000
7E00000000
7E00000000
7E03FE0000
FE0FFF8000
FE3FFFE000
FE7FFFF800
FEFFFFFC00
FFFFFFFC00
FFF803FE00
FFE000FF00
FFC0007F00
FF80003F80
FF80003F80
FF00001F80
FF00001FC0
FE00001FC0
FE00001FC0
FE00000FC0
7E00000FC0
7E00000FC0
7E00001FC0
7E00001FC0
7F00001FC0
3F00001F80
3F00003F80
3F80003F80
1FC0007F00
1FC000FF00
0FF001FE00
0FF803FE00
07FFFFFC00
03FFFFF800
01FFFFF000
00FFFFC000
003FFF0000
0007F80000
ENDCHAR
STARTCHAR 0037
ENCODING 55
SWIDTH 553 0
DWIDTH 40 0
BBX 35 51 3 0
BITMAP
FFFFFFFFE0
FFFFFFFFE0
FFFFFFFFE0
FFFFFFFFE0
FFFFFFFFE0
FFFFFFFFC0
0000000FC0
0000001F80
0000001F00
0000003F00
0000007E00
000000FC00
000000F800
000001F800
000003F000
000003F000
000007E000
000007C000
00000FC000
00001F8000
00001F8000
00003F0000
00003F0000
00007E0000
00007C0000
0000FC0000
0000FC0000
0001F80000
0001F80000
0003F00000
0003F00000
0007E00000
0007E00000
000FE00000
000FC00000
000FC00000
001F800000
001F800000
003F800000
003F000000
003F000000
003F000000
007F000000
007E000000
007E000000
00FE000000
00FE000000
00FC000000
00FC000000
01FC000000
01FC000000
ENDCHAR
STARTCHAR 0038
ENCODING 56
SWIDTH 553 0
DWIDTH 40 0
BBX 34 54 3 -2
BITMAP
0007F80000
003FFF0000
00FFFFC000
03FFFFF000
07FFFFF800
0FFFFFFC00
0FF007FC00
1FE001FE00
1FC000FE00
3F80007F00
3F80007F00
3F00007F00
3F00003F00
7F00003F00
7F00003F00
3F00003F00
3F00007F00
3F80007F00
3F8000FE00
1FC000FE00
0FE003FC00
0FFC0FF800
03FFFFF000
01FFFFE000
00FFFF8000
01FFFFE000
07FFFFF800
0FFE3FFC00
1FF003FE00
3FC000FF00
3F80007F00
7F00003F80
7E00003F80
FE00001FC0
FE00001FC0
FC00001FC0
FC00001FC0
FC00000FC0
FC00000FC0
FC00001FC0
FE00001FC0
FE00001FC0
FE00001F80
7F00003F80
7F00003F80
7F80007F00
3FE001FF00
1FF003FE00
0FFFFFFC00
0FFFFFF800
03FFFFF000
01FFFFE000
007FFF8000
000FF80000
ENDCHAR
STARTCHAR 0039
ENCODING 57
SWIDTH 553 0
DWIDTH 40 0
BBX 34 54 3 -2
BITMAP
000FF80000
007FFF0000
00FFFFC000
03FFFFE000
07FFFFF000
0FFFFFF800
1FF007F800
3FE003FC00
3F8001FE00
7F8000FE00
7F00007F00
7E00003F00
FE00003F00
FE00003F80
FC00001F80
FC00001F80
FC00001F80
FC00001F80
FC00001F80
FC00001FC0
FE00003FC0
FE00003FC0
FE00003FC0
7F00007FC0
7F00007FC0
7F8000FFC0
3FC001FFC0
1FF007FFC0
1FFFFFFFC0
0FFFFFDFC0
07FFFF9FC0
01FFFF1FC0
00FFFC1F80
001FF01F80
0000001F80
0000001F80
0000003F80
0000003F80
0000003F00
0000003F00
7E00007F00
7E00007F00
7F00007E00
7F0000FE00
3F8001FC00
3F8001FC00
1FC003F800
1FF00FF000
0FFFFFF000
07FFFFE000
03FFFFC000
01FFFF0000
007FFC0000
001FE00000
ENDCHAR
STARTCHAR 003A
ENCODING 58
SWIDTH 276 0
DWIDTH 20 0
BBX 7 38 8 0
BITMAP
FE
FE
FE
FE
FE
FE
FE
FE
00
00
00
00
00
00
00
00
00
00
00
00
00
00
00
00
00
00
00
00
00
00
FE
FE
FE
FE
FE
FE
FE
FE
ENDCHAR
STARTCHAR 003B
ENCODING 59
SWIDTH 276 0
DWIDTH 20 0
BBX 8 49 8 -11
BITMAP
FF
FF
FF
FF
FF
FF
FF
FF
00
00
00
00
00
00
00
00
00
00
00
00
00
00
00
00
00
00
00
00
00
00
FF
FF
FF
FF
FF
FF
FF
FF
0F
0F
0F
0E
0E
0E
1E
3C
F8
F0
C0
ENDCHAR
STARTCHAR 003C
ENCODING 60
SWIDTH 581 0
DWIDTH 42 0
BBX 36 35 3 -1
BITMAP
0000000010
00000000F0
00000003F0
0000000FF0
0000007FF0
000001FFF0
00000FFFC0
00003FFE00
0000FFF800
0007FFE000
001FFF0000
007FFC0000
03FFE00000
0FFF800000
3FFC000000
FFF0000000
FF80000000
FE00000000
FFC0000000
FFF0000000
7FFC000000
0FFF800000
03FFE00000
00FFFC0000
001FFF0000
0007FFC000
0001FFF800
00003FFE00
00000FFFC0
000001FFF0
0000007FF0
0000001FF0
00000003F0
00000000F0
0000000030
ENDCHAR
STARTCHAR 003D
ENCODING 61
SWIDTH 581 0
DWIDTH 42 0
BBX 35 17 4 8
BITMAP
FFFFFFFFE0
FFFFFFFFE0
FFFFFFFFE0
FFFFFFFFE0
FFFFFFFFE0
0000000000
0000000000
0000000000
0000000000
0000000000
0000000000
0000000000
FFFFFFFFE0
FFFFFFFFE0
FFFFFFFFE0
FFFFFFFFE0
FFFFFFFFE0
ENDCHAR
STARTCHAR 003E
ENCODING 62
SWIDTH 581 0
DWIDTH 42 0
BBX 35 35 4 -1
BITMAP
8000000000
E000000000
F800000000
FF00000000
FFC0000000
FFF0000000
7FFE000000
0FFF800000
03FFE00000
00FFFC0000
001FFF0000
0007FFC000
0000FFF800
00003FFE00
00000FFFC0
000001FFE0
0000007FE0
0000000FE0
0000003FE0
000000FFE0
000007FFC0
00001FFF00
0000FFF800
0003FFE000
001FFF0000
007FFC0000
03FFF00000
0FFF800000
3FFE000000
FFF8000000
FFC0000000
FF00000000
FC00000000
E000000000
8000000000
ENDCHAR
STARTCHAR 003F
ENCODING 63
SWIDTH 553 0
DWIDTH 40 0
BBX 31 54 6 0
BITMAP
001FF000
00FFFE00
03FFFF80
0FFFFFC0
1FFFFFE0
1FFFFFF0
3FC01FF8
7F8007F8
7F0003FC
7E0001FC
FE0000FC
FC0000FE
FC0000FE
FC0000FE
FC0000FE
FC0000FE
FC0000FE
000000FC
000001FC
000001FC
000003F8
000007F8
00000FF0
00001FE0
00003FC0
00007F80
0000FF00
0001FE00
0003FC00
0007F800
0007F000
000FE000
000FE000
000FC000
001FC000
001FC000
001FC000
001FC000
001FC000
001FC000
00000000
00000000
00000000
00000000
00000000
00000000
001FC000
001FC000
001FC000
001FC000
001FC000
001FC000
001FC000
001FC000
ENDCHAR
STARTCHAR 0040
ENCODING 64
SWIDTH 1010 0
DWIDTH 73 0
BBX 67 64 2 -10
BITMAP
00000001FFC0000000
0000003FFFFC000000
000001FFFFFF800000
000007FFFFFFE00000
00001FFFFFFFF80000
00007FFFFFFFFC0000
0000FFF0003FFF0000
0003FF800007FF8000
0007FE000001FFC000
000FF80000007FE000
001FE00000001FF000
003FC00000000FF800
007F8000000007FC00
00FF0000000003FE00
01FE0000000001FE00
01FC0000000000FF00
03F80000FE00007F00
07F00007FF80007F80
07E0001FFFC3F03F80
0FE0003FFFE7E03F80
0FC0007FFFF7E01FC0
1FC001FF01F7E01FC0
1F8003FC00FFC00FC0
1F8003F8007FC00FC0
3F0007F0007FC00FE0
3F000FE0003F800FE0
3F000FC0003F800FE0
7E001FC0003F800FE0
7E001F80003F800FE0
7E003F80003F000FE0
7E003F80003F000FC0
7E003F00007F000FC0
7E007F00007E000FC0
7E007F00007E000FC0
FE007F00007E001FC0
FE007F0000FC001F80
FE007F0000FC001F80
7E007F0000FC003F00
7E007F0001F8007F00
7E007F0001F8007E00
7E003F0003F800FE00
7F003F8007F801FC00
7F003FC00FF803F800
3F801FE01FF807F800
3F801FF07FFE1FF000
1FC00FFFFDFFFFE000
1FC007FFF8FFFF8000
1FE003FFF0FFFF0000
0FF000FFC07FFC0000
07F0000C001FE00000
07F800000000000000
03FC00000000000000
01FF00000000000000
00FF80000000000000
007FC0000000000000
003FF0000000000000
001FFE000001000000
000FFFC0003F000000
0003FFFFFFFF800000
0001FFFFFFFF800000
00007FFFFFFF800000
00000FFFFFFF000000
000001FFFFF8000000
0000001FFF00000000
ENDCHAR
STARTCHAR 0041
ENCODING 65
SWIDTH 664 0
DWIDTH 48 0
BBX 46 53 1 0
BITMAP
00001FF00000
00003FF00000
00003FF80000
00003FF80000
00007FF80000
00007FFC0000
00007FFC0000
0000FFFC0000
0000FEFE0000
0000FCFE0000
0001FCFE0000
0001FC7F0000
0001F87F0000
0003F87F0000
0003F83F8000
0003F03F8000
0007F03F8000
0007F01FC000
000FE01FC000
000FE01FC000
000FE00FE000
001FC00FE000
001FC00FF000
001F8007F000
003F8007F000
003F8007F800
003F0003F800
007F0003F800
007F0003FC00
007E0001FC00
00FE0001FC00
00FFFFFFFE00
01FFFFFFFE00
01FFFFFFFE00
01FFFFFFFF00
03FFFFFFFF00
03FFFFFFFF00
03F800007F80
07F000003F80
07F000003F80
07F000003FC0
0FE000001FC0
0FE000001FE0
0FE000001FE0
1FC000000FE0
1FC000000FF0
1FC000000FF0
3F80000007F0
3F80000007F8
7F80000007F8
7F00000003F8
7F00000003FC
FF00000003FC
ENDCHAR
STARTCHAR 0042
ENCODING 66
SWIDTH 664 0
DWIDTH 48 0
BBX 39 53 6 0
BITMAP
FFFFFFC000
FFFFFFF800
FFFFFFFE00
FFFFFFFF00
FFFFFFFF80
FFFFFFFFC0
FC0000FFE0
FC00001FE0
FC00000FF0
FC000007F0
FC000007F0
FC000003F8
FC000003F8
FC000003F8
FC000003F8
FC000003F8
FC000003F0
FC000003F0
FC000007F0
FC000007E0
FC00000FE0
FC00001FC0
FC0000FF80
FFFFFFFF00
FFFFFFFE00
FFFFFFFC00
FFFFFFFF00
FFFFFFFFC0
FFFFFFFFE0
FC00003FF0
FC000007F8
FC000003FC
FC000001FC
FC000001FC
FC000000FE
FC000000FE
FC000000FE
FC000000FE
FC000000FE
FC000000FE
FC000000FE
FC000000FE
FC000001FC
FC000001FC
FC000003FC
FC000007F8
FC00001FF8
FFFFFFFFF0
FFFFFFFFE0
FFFFFFFFC0
FFFFFFFF80
FFFFFFFE00
FFFFFFF000
ENDCHAR
STARTCHAR 0043
ENCODING 67
SWIDTH 720 0
DWIDTH 52 0
BBX 46 56 3 -2
BITMAP
00001FFC0000
0000FFFFC000
0007FFFFF000
000FFFFFF800
003FFFFFFE00
007FFFFFFF00
00FFE00FFF00
01FF8001FF80
03FE00007FC0
03FC00003FC0
07F800001FE0
0FF000000FE0
0FE000000FF0
1FE0000007F0
1FC0000007F0
1FC0000003F0
3F80000003F8
3F8000000000
3F0000000000
7F0000000000
7F0000000000
7F0000000000
7F0000000000
7E0000000000
7E0000000000
7E0000000000
7E0000000000
FE0000000000
FE0000000000
FE0000000000
7E0000000000
7E0000000000
7E0000000000
7F0000000000
7F0000000000
7F00000001FC
7F00000001FC
3F80000001FC
3F80000003F8
3F80000003F8
3FC0000003F8
1FC0000007F8
1FE0000007F0
0FE000000FF0
0FF000000FF0
07F800001FE0
07FC00003FE0
03FF00007FC0
01FF8001FF80
00FFF007FF00
007FFFFFFF00
003FFFFFFC00
001FFFFFF800
0007FFFFF000
0001FFFF8000
00001FFC0000
ENDCHAR
STARTCHAR 0044
ENCODING 68
SWIDTH 720 0
DWIDTH 52 0
BBX 42 53 6 0
BITMAP
FFFFFFC00000
FFFFFFF80000
FFFFFFFE0000
FFFFFFFF8000
FFFFFFFFC000
FFFFFFFFE000
FE0000FFF000
FE00001FF800
FE000007FC00
FE000003FC00
FE000001FE00
FE000000FE00
FE000000FF00
FE0000007F00
FE0000007F00
FE0000003F80
FE0000003F80
FE0000003F80
FE0000001FC0
FE0000001FC0
FE0000001FC0
FE0000001FC0
FE0000001FC0
FE0000001FC0
FE0000001FC0
FE0000001FC0
FE0000001FC0
FE0000001FC0
FE0000001FC0
FE0000001FC0
FE0000001FC0
FE0000001FC0
FE0000001FC0
FE0000001FC0
FE0000001F80
FE0000003F80
FE0000003F80
FE0000003F80
FE0000007F00
FE0000007F00
FE000000FF00
FE000000FE00
FE000001FE00
FE000003FC00
FE000007F800
FE00001FF800
FE0000FFF000
FFFFFFFFE000
FFFFFFFFC000
FFFFFFFF8000
FFFFFFFE0000
FFFFFFF80000
FFFFFFC00000
ENDCHAR
STARTCHAR 0045
ENCODING 69
SWIDTH 664 0
DWIDTH 48 0
BBX 38 53 6 0
BITMAP
FFFFFFFFF8
FFFFFFFFF8
FFFFFFFFF8
FFFFFFFFF8
FFFFFFFFF8
FFFFFFFFF8
FE00000000
FE00000000
FE00000000
FE00000000
FE00000000
FE00000000
FE00000000
FE00000000
FE00000000
FE00000000
FE00000000
FE00000000
FE00000000
FE00000000
FE00000000
FE00000000
FE00000000
FFFFFFFFF0
FFFFFFFFF0
FFFFFFFFF0
FFFFFFFFF0
FFFFFFFFF0
FFFFFFFFF0
FE00000000
FE00000000
FE00000000
FE00000000
FE00000000
FE00000000
FE00000000
FE00000000
FE00000000
FE00000000
FE00000000
FE00000000
FE00000000
FE00000000
FE00000000
FE00000000
FE00000000
FE00000000
FFFFFFFFFC
FFFFFFFFFC
FFFFFFFFFC
FFFFFFFFFC
FFFFFFFFFC
FFFFFFFFFC
ENDCHAR
STARTCHAR 0046
ENCODING 70
SWIDTH 609 0
DWIDTH 44 0
BBX 36 53 6 0
BITMAP
FFFFFFFFF0
FFFFFFFFF0
FFFFFFFFF0
FFFFFFFFF0
FFFFFFFFF0
FFFFFFFFF0
FE00000000
FE00000000
FE00000000
FE00000000
FE00000000
FE00000000
FE00000000
FE00000000
FE00000000
FE00000000
FE00000000
FE00000000
FE00000000
FE00000000
FE00000000
FE00000000
FE00000000
FFFFFFFF00
FFFFFFFF00
FFFFFFFF00
FFFFFFFF00
FFFFFFFF00
FFFFFFFF00
FE00000000
FE00000000
FE00000000
FE00000000
FE00000000
FE00000000
FE00000000
FE00000000
FE00000000
FE00000000
FE00000000
FE00000000
FE00000000
FE00000000
FE00000000
FE00000000
FE00000000
FE00000000
FE00000000
FE00000000
FE00000000
FE00000000
FE00000000
FE00000000
ENDCHAR
STARTCHAR 0047
ENCODING 71
SWIDTH 775 0
DWIDTH 56 0
BBX 48 56 3 -2
BITMAP
00000FFE0000
0000FFFFE000
0003FFFFF800
000FFFFFFE00
003FFFFFFF00
007FFFFFFFC0
00FFF803FFE0
01FFC0007FE0
03FF00001FF0
03FC00000FF8
07F8000007F8
0FF0000003FC
0FF0000001FC
1FE0000001FE
1FC0000000FE
3FC0000000FE
3F80000000FE
3F8000000000
7F0000000000
7F0000000000
7F0000000000
7F0000000000
7E0000000000
FE0000000000
FE0000000000
FE0000000000
FE00003FFFFF
FE00003FFFFF
FE00003FFFFF
FE00003FFFFF
FE00003FFFFF
FE00003FFFFF
FE000000003F
7E000000003F
7F000000003F
7F000000003F
7F000000003F
7F800000003F
3F800000003F
3F800000007F
3FC00000007F
1FC0000000FF
1FE0000000FF
0FF0000001FF
0FF0000001FF
07F8000003FF
03FE00000FFF
03FF00001FFF
01FFC0007FBF
00FFF803FF1F
007FFFFFFE1F
003FFFFFFC1F
000FFFFFF81F
0003FFFFE00F
0000FFFF800F
00001FF80000
ENDCHAR
STARTCHAR 0048
ENCODING 72
SWIDTH 720 0
DWIDTH 52 0
BBX 41 53 6 0
BITMAP
FE0000003F80
FE0000003F80
FE0000003F80
FE0000003F80
FE0000003F80
FE0000003F80
FE0000003F80
FE0000003F80
FE0000003F80
FE0000003F80
FE0000003F80
FE0000003F80
FE0000003F80
FE0000003F80
FE0000003F80
FE0000003F80
FE0000003F80
FE0000003F80
FE0000003F80
FE0000003F80
FE0000003F80
FE0000003F80
FE0000003F80
FFFFFFFFFF80
FFFFFFFFFF80
FFFFFFFFFF80
FFFFFFFFFF80
FFFFFFFFFF80
FFFFFFFFFF80
FE0000003F80
FE0000003F80
FE0000003F80
FE0000003F80
FE0000003F80
FE0000003F80
FE0000003F80
FE0000003F80
FE0000003F80
FE0000003F80
FE0000003F80
FE0000003F80
FE0000003F80
FE0000003F80
FE0000003F80
FE0000003F80
FE0000003F80
FE0000003F80
FE0000003F80
FE0000003F80
FE0000003F80
FE0000003F80
FE0000003F80
FE0000003F80
ENDCHAR
STARTCHAR 0049
ENCODING 73
SWIDTH 276 0
DWIDTH 20 0
BBX 7 53 7 0
BITMAP
FE
FE
FE
FE
FE
FE
FE
FE
FE
FE
FE
FE
FE
FE
FE
FE
FE
FE
FE
FE
FE
FE
FE
FE
FE
FE
FE
FE
FE
FE
FE
FE
FE
FE
FE
FE
FE
FE
FE
FE
FE
FE
FE
FE
FE
FE
FE
FE
FE
FE
FE
FE
FE
ENDCHAR
STARTCHAR 004A
ENCODING 74
SWIDTH 498 0
DWIDTH 36 0
BBX 30 55 1 -2
BITMAP
000001FC
000001FC
000001FC
000001FC
000001FC
000001FC
000001FC
000001FC
000001FC
000001FC
000001FC
000001FC
000001FC
000001FC
000001FC
000001FC
000001FC
000001FC
000001FC
000001FC
000001FC
000001FC
000001FC
000001FC
000001FC
000001FC
000001FC
000001FC
000001FC
000001FC
000001FC
000001FC
000001FC
000001FC
000001FC
000001FC
FE0001FC
FE0001FC
FE0001FC
FE0001FC
FE0001FC
FE0001FC
FE0001FC
FF0001F8
7F0003F8
7F0003F8
7F8007F8
3FC00FF0
3FE01FF0
1FFFFFE0
1FFFFFC0
0FFFFF80
03FFFF00
01FFFC00
003FE000
ENDCHAR
STARTCHAR 004B
ENCODING 75
SWIDTH 664 0
DWIDTH 48 0
BBX 41 53 6 0
BITMAP
FC000000FF80
FC000001FF00
FC000003FE00
FC000007FC00
FC00000FF800
FC00001FF000
FC00003FE000
FC00007FC000
FC0000FF8000
FC0001FF0000
FC0003FE0000
FC0007FC0000
FC000FF80000
FC001FF00000
FC003FE00000
FC007FC00000
FC007F800000
FC00FF000000
FC01FE000000
FC03FC000000
FC07F8000000
FC0FF0000000
FC1FF0000000
FC3FF8000000
FC7FFC000000
FCFFFE000000
FDFDFE000000
FFF8FF000000
FFF07F800000
FFE03F800000
FFC03FC00000
FF801FE00000
FF000FE00000
FE000FF00000
FC0007F80000
FC0003F80000
FC0003FC0000
FC0001FE0000
FC0000FF0000
FC0000FF0000
FC00007F8000
FC00003FC000
FC00003FC000
FC00001FE000
FC00000FF000
FC00000FF000
FC000007F800
FC000003FC00
FC000003FC00
FC000001FE00
FC000000FF00
FC0000007F00
FC0000007F80
ENDCHAR
STARTCHAR 004C
ENCODING 76
SWIDTH 553 0
DWIDTH 40 0
BBX 32 53 6 0
BITMAP
FC000000
FC000000
FC000000
FC000000
FC000000
FC000000
FC000000
FC000000
FC000000
FC000000
FC000000
FC000000
FC000000
FC000000
FC000000
FC000000
FC000000
FC000000
FC000000
FC000000
FC000000
FC000000
FC000000
FC000000
FC000000
FC000000
FC000000
FC000000
FC000000
FC000000
FC000000
FC000000
FC000000
FC000000
FC000000
FC000000
FC000000
FC000000
FC000000
FC000000
FC000000
FC000000
FC000000
FC000000
FC000000
FC000000
FC000000
FFFFFFFF
FFFFFFFF
FFFFFFFF
FFFFFFFF
FFFFFFFF
FFFFFFFF
ENDCHAR
STARTCHAR 004D
ENCODING 77
SWIDTH 830 0
DWIDTH 60 0
BBX 50 53 5 0
BITMAP
FFC0000000FFC0
FFC0000000FFC0
FFE0000000FFC0
FFE0000001FFC0
FFE0000001FFC0
FFF0000001FFC0
FFF0000003FFC0
FFF0000003FFC0
FFF8000003FFC0
FFF8000007EFC0
FFF8000007EFC0
FEFC000007EFC0
FEFC00000FCFC0
FEFC00000FCFC0
FE7E00000FCFC0
FE7E00001F8FC0
FE7E00001F8FC0
FE3F00001F8FC0
FE3F00001F0FC0
FE3F00003F0FC0
FE1F80003F0FC0
FE1F80003E0FC0
FE1F80007E0FC0
FE0FC0007E0FC0
FE0FC0007C0FC0
FE0FC000FC0FC0
FE07E000FC0FC0
FE07E000F80FC0
FE07E001F80FC0
FE03F001F80FC0
FE03F001F00FC0
FE03F003F00FC0
FE01F803F00FC0
FE01F803E00FC0
FE01F807E00FC0
FE00FC07E00FC0
FE00FC07C00FC0
FE00FC0FC00FC0
FE007E0FC00FC0
FE007E0F800FC0
FE007E1F800FC0
FE003F1F800FC0
FE003F1F000FC0
FE001F3F000FC0
FE001FBF000FC0
FE001FBE000FC0
FE000FFE000FC0
FE000FFE000FC0
FE000FFC000FC0
FE0007FC000FC0
FE0007FC000FC0
FE0007F8000FC0
FE0003F8000FC0
ENDCHAR
STARTCHAR 004E
ENCODING 78
SWIDTH 720 0
DWIDTH 52 0
BBX 42 53 5 0
BITMAP
FF0000001FC0
FF8000001FC0
FF8000001FC0
FFC000001FC0
FFE000001FC0
FFE000001FC0
FFF000001FC0
FFF800001FC0
FFF800001FC0
FFFC00001FC0
FFFC00001FC0
FEFE00001FC0
FEFF00001FC0
FE7F00001FC0
FE3F80001FC0
FE3FC0001FC0
FE1FC0001FC0
FE0FE0001FC0
FE0FF0001FC0
FE07F0001FC0
FE07F8001FC0
FE03F8001FC0
FE01FC001FC0
FE01FE001FC0
FE00FE001FC0
FE007F001FC0
FE007F801FC0
FE003F801FC0
FE001FC01FC0
FE001FE01FC0
FE000FE01FC0
FE000FF01FC0
FE0007F01FC0
FE0003F81FC0
FE0003FC1FC0
FE0001FC1FC0
FE0000FE1FC0
FE0000FF1FC0
FE00007F1FC0
FE00007F9FC0
FE00003FDFC0
FE00001FDFC0
FE00001FFFC0
FE00000FFFC0
FE000007FFC0
FE000007FFC0
FE000003FFC0
FE000001FFC0
FE000001FFC0
FE000000FFC0
FE000000FFC0
FE0000007FC0
FE0000003FC0
ENDCHAR
STARTCHAR 004F
ENCODING 79
SWIDTH 775 0
DWIDTH 56 0
BBX 51 56 3 -2
BITMAP
00000FFE000000
0000FFFFC00000
0003FFFFF80000
000FFFFFFE0000
003FFFFFFF0000
007FFFFFFF8000
00FFF003FFE000
01FF80007FE000
03FF00001FF000
07FC00000FF800
07F8000007FC00
0FF0000003FC00
1FE0000001FE00
1FC0000000FF00
3FC00000007F00
3F800000007F00
3F800000003F80
7F000000003F80
7F000000003F80
7F000000001FC0
7E000000001FC0
FE000000001FC0
FE000000001FC0
FE000000000FC0
FE000000000FC0
FE000000000FE0
FE000000000FE0
FC000000000FE0
FC000000000FE0
FE000000000FE0
FE000000000FE0
FE000000000FC0
FE000000000FC0
FE000000001FC0
FE000000001FC0
FE000000001FC0
7F000000001FC0
7F000000003F80
7F000000003F80
3F800000003F80
3F800000007F00
3FC00000007F00
1FE0000000FE00
1FE0000001FE00
0FF0000003FC00
07F8000007FC00
07FC00000FF800
03FF00001FF000
01FFC0007FE000
00FFF803FFE000
007FFFFFFF8000
003FFFFFFF0000
000FFFFFFE0000
0003FFFFF80000
0000FFFFC00000
00000FFC000000
ENDCHAR
STARTCHAR 0050
ENCODING 80
SWIDTH 664 0
DWIDTH 48 0
BBX 38 53 7 0
BITMAP
FFFFFFC000
FFFFFFFC00
FFFFFFFE00
FFFFFFFF80
FFFFFFFFC0
FFFFFFFFE0
FC0000FFE0
FC00001FF0
FC00000FF0
FC000007F8
FC000007F8
FC000003F8
FC000003F8
FC000003F8
FC000001FC
FC000001FC
FC000001FC
FC000003FC
FC000003F8
FC000003F8
FC000007F8
FC000007F8
FC00000FF0
FC00001FF0
FC0000FFE0
FFFFFFFFE0
FFFFFFFFC0
FFFFFFFF80
FFFFFFFE00
FFFFFFFC00
FFFFFFE000
FC00000000
FC00000000
FC00000000
FC00000000
FC00000000
FC00000000
FC00000000
FC00000000
FC00000000
FC00000000
FC00000000
FC00000000
FC00000000
FC00000000
FC00000000
FC00000000
FC00000000
FC00000000
FC00000000
FC00000000
FC00000000
FC00000000
ENDCHAR
STARTCHAR 0051
ENCODING 81
SWIDTH 775 0
DWIDTH 56 0
BBX 51 59 3 -5
BITMAP
00000FFE000000
0000FFFFC00000
0003FFFFF80000
000FFFFFFE0000
003FFFFFFF0000
007FFFFFFF8000
00FFF003FFC000
01FFC0007FE000
03FF00001FF000
07FC00000FF800
07F8000007FC00
0FF0000003FC00
1FE0000001FE00
1FC0000000FF00
3FC0000000FF00
3F800000007F00
3F800000003F80
7F000000003F80
7F000000003F80
7F000000001FC0
7E000000001FC0
FE000000001FC0
FE000000001FC0
FE000000000FC0
FE000000000FC0
FE000000000FE0
FE000000000FE0
FC000000000FE0
FC000000000FE0
FE000000000FE0
FE000000000FE0
FE000000000FC0
FE000000000FC0
FE000000001FC0
FE000000001FC0
FE000000001FC0
7F000000001FC0
7F000000003F80
7F000000003F80
3F800000003F80
3F800001807F00
3FC00003C07F00
1FC00007F0FE00
1FE0000FF9FE00
0FF00003FFFC00
07F80001FFFC00
07FC0000FFF800
03FF00007FF000
01FFC0007FE000
00FFF803FFF000
007FFFFFFFF800
003FFFFFFFFC00
000FFFFFFFFF00
0003FFFFF8FF80
0000FFFFC03FC0
00000FFE001F80
00000000000F00
00000000000600
00000000000200
ENDCHAR
STARTCHAR 0052
ENCODING 82
SWIDTH 720 0
DWIDTH 52 0
BBX 42 53 7 0
BITMAP
FFFFFFF80000
FFFFFFFF8000
FFFFFFFFC000
FFFFFFFFF000
FFFFFFFFF800
FFFFFFFFFC00
FC00000FFC00
FC000003FE00
FC000001FE00
FC000000FE00
FC000000FF00
FC0000007F00
FC0000007F00
FC0000007F00
FC0000007F00
FC0000007F00
FC0000007F00
FC0000007F00
FC0000007E00
FC000000FE00
FC000000FE00
FC000001FC00
FC000003F800
FC00001FF000
FFFFFFFFE000
FFFFFFFFC000
FFFFFFFF0000
FFFFFFFF8000
FFFFFFFFE000
FFFFFFFFF000
FC00001FF800
FC000007FC00
FC000001FC00
FC000001FC00
FC000000FC00
FC000000FE00
FC000000FE00
FC000000FE00
FC000000FE00
FC000000FE00
FC000000FE00
FC000000FE00
FC000000FE00
FC000000FE00
FC000000FE00
FC000000FE00
FC000000FE00
FC0000007E00
FC0000007F00
FC0000007F00
FC0000007F80
FC0000007FC0
FC0000003FC0
ENDCHAR
STARTCHAR 0053
ENCODING 83
SWIDTH 664 0
DWIDTH 48 0
BBX 42 56 3 -2
BITMAP
0000FFC00000
000FFFFC0000
003FFFFF0000
00FFFFFFC000
01FFFFFFE000
03FFFFFFF000
07FE001FF800
0FF80007FC00
0FF00003FC00
1FE00001FE00
1FC00000FE00
1F8000007F00
3F8000007F00
3F8000007F00
3F8000003F00
3F8000003F00
3F8000003F00
3F8000000000
3FC000000000
1FE000000000
1FF000000000
1FFC00000000
0FFF80000000
0FFFF8000000
07FFFF000000
01FFFFF00000
00FFFFFF0000
003FFFFFC000
0003FFFFF000
00007FFFF800
000007FFFC00
0000007FFE00
0000000FFF00
00000003FF80
00000000FF80
000000007F80
000000003FC0
FE0000001FC0
7E0000001FC0
7E0000001FC0
7E0000001FC0
7E0000001FC0
7F0000001FC0
7F0000001F80
3F8000003F80
3FC000003F80
3FC000007F00
1FF00000FF00
0FF80003FE00
0FFF001FFC00
07FFFFFFFC00
03FFFFFFF800
00FFFFFFE000
007FFFFFC000
000FFFFE0000
0001FFE00000
ENDCHAR
STARTCHAR 0054
ENCODING 84
SWIDTH 609 0
DWIDTH 44 0
BBX 41 53 2 0
BITMAP
FFFFFFFFFF80
FFFFFFFFFF80
FFFFFFFFFF80
FFFFFFFFFF80
FFFFFFFFFF80
FFFFFFFFFF80
00007F000000
00007F000000
00007F000000
00007F000000
00007F000000
00007F000000
00007F000000
00007F000000
00007F000000
00007F000000
00007F000000
00007F000000
00007F000000
00007F000000
00007F000000
00007F000000
00007F000000
00007F000000
00007F000000
00007F000000
00007F000000
00007F000000
00007F000000
00007F000000
00007F000000
00007F000000
00007F000000
00007F000000
00007F000000
00007F000000
00007F000000
00007F000000
00007F000000
00007F000000
00007F000000
00007F000000
00007F000000
00007F000000
00007F000000
00007F000000
00007F000000
00007F000000
00007F000000
00007F000000
00007F000000
00007F000000
00007F000000
ENDCHAR
STARTCHAR 0055
ENCODING 85
SWIDTH 720 0
DWIDTH 52 0
BBX 41 55 6 -2
BITMAP
FE0000003F80
FE0000003F80
FE0000003F80
FE0000003F80
FE0000003F80
FE0000003F80
FE0000003F80
FE0000003F80
FE0000003F80
FE0000003F80
FE0000003F80
FE0000003F80
FE0000003F80
FE0000003F80
FE0000003F80
FE0000003F80
FE0000003F80
FE0000003F80
FE0000003F80
FE0000003F80
FE0000003F80
FE0000003F80
FE0000003F80
FE0000003F80
FE0000003F80
FE0000003F80
FE0000003F80
FE0000003F80
FE0000003F80
FE0000003F80
FE0000003F80
FE0000003F80
FE0000003F80
FE0000003F80
FE0000003F80
FE0000003F80
FE0000003F80
FE0000003F80
FE0000003F80
FE0000003F80
FE0000003F00
7E0000007F00
7F0000007F00
7F000000FF00
7F800000FE00
3FC00001FE00
3FE00003FC00
1FF8000FFC00
0FFF007FF800
07FFFFFFF000
03FFFFFFE000
01FFFFFF8000
007FFFFF0000
001FFFF80000
0001FFC00000
ENDCHAR
STARTCHAR 0056
ENCODING 86
SWIDTH 664 0
DWIDTH 48 0
BBX 44 53 2 0
BITMAP
FF00000007F0
7F00000007F0
7F00000007F0
7F8000000FE0
3F8000000FE0
3F8000000FE0
3FC000001FC0
1FC000001FC0
1FC000001FC0
0FE000003F80
0FE000003F80
0FE000003F80
07F000007F00
07F000007F00
07F000007F00
03F80000FE00
03F80000FE00
03F80000FE00
01FC0001FC00
01FC0001FC00
01FC0001FC00
00FE0003F800
00FE0003F800
007E0003F000
007F0007F000
007F0007F000
003F8007E000
003F800FE000
003F800FE000
001FC00FC000
001FC00FC000
001FC01FC000
000FE01F8000
000FE01F8000
000FE03F8000
0007F03F0000
0007F03F0000
0003F07F0000
0003F87E0000
0003F87E0000
0001F8FE0000
0001FCFC0000
0001FCFC0000
0000FDFC0000
0000FFF80000
0000FFF80000
00007FF80000
00007FF00000
00007FF00000
00003FF00000
00003FE00000
00001FE00000
00001FC00000
ENDCHAR
STARTCHAR 0057
ENCODING 87
SWIDTH 941 0
DWIDTH 68 0
BBX 65 53 2 0
BITMAP
FE000007F000007F80
FE00000FF000007F80
FF00000FF800007F00
FF00000FF800007F00
7F00001FF800007F00
7F00001FF80000FF00
7F80001FFC0000FE00
7F80001FFC0000FE00
3F80003FFC0000FE00
3F80003FFE0001FE00
3FC0003FFE0001FC00
3FC0003F7E0001FC00
1FC0007E7E0001FC00
1FC0007E7F0001FC00
1FC0007E3F0003F800
0FE000FE3F0003F800
0FE000FC3F8003F800
0FE000FC3F8003F800
0FE000FC1F8007F000
07F001FC1F8007F000
07F001F81FC007F000
07F001F80FC007F000
07F001F80FC007E000
03F803F00FC00FE000
03F803F00FE00FE000
03F803F007E00FE000
03F807F007E00FC000
01F807E007F01FC000
01FC07E003F01FC000
01FC07E003F01FC000
01FC0FE003F01F8000
00FC0FC003F83F8000
00FE0FC001F83F8000
00FE0FC001F83F8000
00FE1F8001FC3F0000
007E1F8001FC3F0000
007E1F8000FC7F0000
007F3F8000FC7F0000
007F3F0000FE7E0000
003F3F00007E7E0000
003F3F00007EFE0000
003FFF00007EFE0000
003FFE00007FFC0000
001FFE00003FFC0000
001FFE00003FFC0000
001FFC00003FFC0000
001FFC00001FF80000
000FFC00001FF80000
000FFC00001FF80000
000FF800001FF80000
000FF800000FF00000
0007F800000FF00000
0007F800000FF00000
ENDCHAR
STARTCHAR 0058
ENCODING 88
SWIDTH 664 0
DWIDTH 48 0
BBX 45 53 2 0
BITMAP
7F8000000FF0
3FC000001FE0
3FE000003FC0
1FE000003FC0
0FF000007F80
0FF00000FF00
07F80000FF00
03FC0001FE00
03FC0003FC00
01FE0003F800
00FF0007F800
007F000FF000
007F800FE000
003FC01FE000
001FC01FC000
001FE03F8000
000FF07F8000
0007F07F0000
0007F8FE0000
0003FDFE0000
0001FDFC0000
0001FFF80000
0000FFF80000
00007FF00000
00007FE00000
00003FC00000
00003FE00000
00007FE00000
0000FFF00000
0000FFF80000
0001FFF80000
0003FDFC0000
0003F9FE0000
0007F0FF0000
000FF07F0000
000FE07F8000
001FE03FC000
003FC03FC000
003F801FE000
007F800FF000
00FF000FF000
01FE0007F800
01FE0003FC00
03FC0003FC00
07F80001FE00
07F80000FF00
0FF00000FF00
1FE000007F80
1FE000003FC0
3FC000003FC0
7F8000001FE0
7F8000000FF0
FF0000000FF8
ENDCHAR
STARTCHAR 0059
ENCODING 89
SWIDTH 664 0
DWIDTH 48 0
BBX 46 53 1 0
BITMAP
FF80000003FC
7F80000003FC
7FC0000007F8
3FC0000007F8
1FE000000FF0
1FF000000FE0
0FF000001FE0
07F800003FC0
07F800003FC0
03FC00007F80
01FE00007F00
01FE0000FF00
00FF0001FE00
00FF0001FC00
007F8003FC00
003FC003F800
003FC007F800
001FE007F000
000FE00FE000
000FF01FE000
0007F81FC000
0007F83FC000
0003FC3F8000
0001FC7F0000
0001FEFF0000
0000FFFE0000
00007FFC0000
00007FFC0000
00003FF80000
00003FF80000
00001FF00000
00000FE00000
00000FE00000
00000FE00000
00000FE00000
00000FE00000
00000FE00000
00000FE00000
00000FE00000
00000FE00000
00000FE00000
00000FE00000
00000FE00000
00000FE00000
00000FE00000
00000FE00000
00000FE00000
00000FE00000
00000FE00000
00000FE00000
00000FE00000
00000FE00000
00000FE00000
ENDCHAR
STARTCHAR 005A
ENCODING 90
SWIDTH 609 0
DWIDTH 44 0
BBX 40 53 2 0
BITMAP
3FFFFFFFFF
3FFFFFFFFF
3FFFFFFFFF
3FFFFFFFFF
3FFFFFFFFF
3FFFFFFFFF
00000001FF
00000003FE
00000003FC
00000007F8
0000000FF8
0000001FF0
0000001FE0
0000003FC0
0000007F80
000000FF80
000000FF00
000001FE00
000003FC00
000007FC00
00000FF800
00000FF000
00001FE000
00003FE000
00007FC000
00007F8000
0000FF0000
0001FE0000
0003FE0000
0003FC0000
0007F80000
000FF00000
001FF00000
003FE00000
003FC00000
007F800000
00FF800000
01FF000000
01FE000000
03FC000000
07FC000000
0FF8000000
0FF0000000
1FE0000000
3FC0000000
7FC0000000
FF80000000
FFFFFFFFFF
FFFFFFFFFF
FFFFFFFFFF
FFFFFFFFFF
FFFFFFFFFF
FFFFFFFFFF
ENDCHAR
STARTCHAR 005B
ENCODING 91
SWIDTH 276 0
DWIDTH 20 0
BBX 13 68 5 -15
BITMAP
FFF8
FFF8
FFF8
FFF8
FFF8
FC00
FC00
FC00
FC00
FC00
FC00
FC00
FC00
FC00
FC00
FC00
FC00
FC00
FC00
FC00
FC00
FC00
FC00
FC00
FC00
FC00
FC00
FC00
FC00
FC00
FC00
FC00
FC00
FC00
FC00
FC00
FC00
FC00
FC00
FC00
FC00
FC00
FC00
FC00
FC00
FC00
FC00
FC00
FC00
FC00
FC00
FC00
FC00
FC00
FC00
FC00
FC00
FC00
FC00
FC00
FC00
FC00
FC00
FFF8
FFF8
FFF8
FFF8
FFF8
ENDCHAR
STARTCHAR 005C
ENCODING 92
SWIDTH 276 0
DWIDTH 20 0
BBX 20 54 0 -1
BITMAP
F00000
F00000
F00000
780000
780000
780000
780000
3C0000
3C0000
3C0000
1E0000
1E0000
1E0000
0F0000
0F0000
0F0000
078000
078000
078000
03C000
03C000
03C000
01E000
01E000
01E000
01E000
00F000
00F000
00F000
007800
007800
007800
003C00
003C00
003C00
001E00
001E00
001E00
000F00
000F00
000F00
000780
000780
000780
0003C0
0003C0
0003C0
0003C0
0001E0
0001E0
0001E0
0000F0
0000F0
0000F0
ENDCHAR
STARTCHAR 005D
ENCODING 93
SWIDTH 276 0
DWIDTH 20 0
BBX 13 68 2 -15
BITMAP
FFF8
FFF8
FFF8
FFF8
FFF8
01F8
01F8
01F8
01F8
01F8
01F8
01F8
01F8
01F8
01F8
01F8
01F8
01F8
01F8
01F8
01F8
01F8
01F8
01F8
01F8
01F8
01F8
01F8
01F8
01F8
01F8
01F8
01F8
01F8
01F8
01F8
01F8
01F8
01F8
01F8
01F8
01F8
01F8
01F8
01F8
01F8
01F8
01F8
01F8
01F8
01F8
01F8
01F8
01F8
01F8
01F8
01F8
01F8
01F8
01F8
01F8
01F8
01F8
FFF8
FFF8
FFF8
FFF8
FFF8
ENDCHAR
STARTCHAR 005E
ENCODING 94
SWIDTH 470 0
DWIDTH 34 0
BBX 27 27 3 24
BITMAP
001F8000
001F8000
003FC000
003FC000
007FC000
007FE000
007FE000
00F9F000
00F9F000
01F1F000
01F0F800
01E0F800
03E07C00
03E07C00
07C03C00
07C03E00
0F803E00
0F801F00
0F801F00
1F000F80
1F000F80
3E000F80
3E0007C0
3E0007C0
7C0003E0
7C0003E0
F80003E0
ENDCHAR
STARTCHAR 005F
ENCODING 95
SWIDTH 553 0
DWIDTH 40 0
BBX 44 4 -2 -13
BITMAP
FFFFFFFFFFF0
FFFFFFFFFFF0
FFFFFFFFFFF0
FFFFFFFFFFF0
ENDCHAR
STARTCHAR 0060
ENCODING 96
SWIDTH 332 0
DWIDTH 24 0
BBX 15 11 2 43
BITMAP
FF00
7F80
3F80
1FC0
0FE0
07E0
03F0
01F8
00F8
007C
003E
ENDCHAR
STARTCHAR 0061
ENCODING 97
SWIDTH 553 0
DWIDTH 40 0
BBX 36 41 3 -2
BITMAP
000FFC0000
007FFFC000
01FFFFE000
07FFFFF800
0FFFFFF800
0FFFFFFC00
1FE003FC00
3FC001FE00
3F8000FE00
3F80007E00
3F00007E00
3F00007E00
0000007E00
0000007E00
0000007E00
000000FE00
000003FE00
0000FFFE00
003FFFFE00
01FFFFFE00
07FFFFFE00
1FFFFC7E00
3FFF007E00
3FE0007E00
7F80007E00
7F00007E00
FE00007E00
FE00007E00
FC00007E00
FC00007E00
FC0000FE00
FE0000FE00
FE0003FE00
7F0007FE00
7F800FFE00
7FF0FFFF00
3FFFFF7FF0
1FFFFE3FF0
0FFFF83FF0
03FFE01FF0
00FF800FE0
ENDCHAR
STARTCHAR 0062
ENCODING 98
SWIDTH 553 0
DWIDTH 40 0
BBX 34 55 4 -2
BITMAP
FC00000000
FC00000000
FC00000000
FC00000000
FC00000000
FC00000000
FC00000000
FC00000000
FC00000000
FC00000000
FC00000000
FC00000000
FC00000000
FC00000000
FC03FC0000
FC1FFF8000
FC7FFFC000
FCFFFFF000
FDFFFFF800
FFFFFFFC00
FFF00FFC00
FFE003FE00
FFC001FE00
FF8000FF00
FF00007F00
FF00003F80
FE00003F80
FE00003F80
FE00001F80
FC00001FC0
FC00001FC0
FC00001FC0
FC00001FC0
FC00001FC0
FC00001FC0
FC00001FC0
FC00001FC0
FC00001FC0
FC00001FC0
FC00001F80
FE00001F80
FE00003F80
FE00003F80
FF00003F00
FF00007F00
FF8000FF00
FFC001FE00
FFE003FE00
FBF807FC00
FBFFFFF800
F9FFFFF000
F8FFFFE000
F87FFFC000
001FFF0000
0007F80000
ENDCHAR
STARTCHAR 0063
ENCODING 99
SWIDTH 498 0
DWIDTH 36 0
BBX 32 41 2 -2
BITMAP
0007F800
003FFF00
00FFFFC0
01FFFFF0
03FFFFF8
07FFFFF8
0FF807FC
0FE001FE
1FC000FE
1F8000FE
3F80007F
3F00007F
7F00003F
7F00003F
7E000000
7E000000
7E000000
FE000000
FE000000
FE000000
FE000000
FE000000
FE000000
FE000000
FE000000
7E000000
7E00003F
7E00003F
7F00003F
3F00003F
3F80007F
3F80007E
1FC000FE
1FE001FE
0FF803FC
07FFFFF8
03FFFFF0
01FFFFE0
00FFFFC0
003FFF00
0007F800
ENDCHAR
STARTCHAR 0064
ENCODING 100
SWIDTH 553 0
DWIDTH 40 0
BBX 34 55 2 -2
BITMAP
0000000FC0
0000000FC0
0000000FC0
0000000FC0
0000000FC0
0000000FC0
0000000FC0
0000000FC0
0000000FC0
0000000FC0
0000000FC0
0000000FC0
0000000FC0
0000000FC0
000FF00FC0
007FFE0FC0
00FFFF8FC0
03FFFFCFC0
07FFFFEFC0
0FFFFFFFC0
0FF807FFC0
1FE001FFC0
3FC000FFC0
3F80007FC0
3F80007FC0
7F00003FC0
7F00003FC0
7E00001FC0
FE00001FC0
FE00001FC0
FE00001FC0
FC00000FC0
FC00000FC0
FC00000FC0
FC00000FC0
FC00000FC0
FC00000FC0
FC00000FC0
FE00001FC0
FE00001FC0
FE00001FC0
7E00001FC0
7F00003FC0
7F00003FC0
3F80007FC0
3F80007FC0
3FC000FFC0
1FE001FFC0
0FF807FFC0
0FFFFFFFC0
07FFFFEFC0
03FFFFCFC0
00FFFF8FC0
007FFE0000
000FF00000
ENDCHAR
STARTCHAR 0065
ENCODING 101
SWIDTH 553 0
DWIDTH 40 0
BBX 34 41 3 -2
BITMAP
0007FC0000
003FFF8000
00FFFFC000
01FFFFF000
03FFFFF800
07FFFFFC00
0FF807FE00
1FE001FE00
1FC000FF00
3F80007F00
3F00003F80
7F00003F80
7E00001F80
7E00001FC0
7E00001FC0
FE00001FC0
FC00000FC0
FFFFFFFFC0
FFFFFFFFC0
FFFFFFFFC0
FFFFFFFFC0
FFFFFFFFC0
FC00000000
FC00000000
FC00000000
FC00000000
FE00000000
7E00000000
7E00001F80
7F00003F80
3F00003F80
3F80007F00
3FC0007F00
1FE001FE00
0FF803FE00
0FFFFFFC00
07FFFFF800
03FFFFF000
00FFFFC000
003FFF8000
0007F80000
ENDCHAR
STARTCHAR 0066
ENCODING 102
SWIDTH 276 0
DWIDTH 20 0
BBX 18 53 1 0
BITMAP
001FC0
007FC0
00FFC0
01FFC0
03FFC0
03FC00
03F000
07F000
07E000
07E000
07E000
07E000
07E000
07E000
07E000
FFFFC0
FFFFC0
FFFFC0
FFFFC0
FFFFC0
07E000
07E000
07E000
07E000
07E000
07E000
07E000
07E000
07E000
07E000
07E000
07E000
07E000
07E000
07E000
07E000
07E000
07E000
07E000
07E000
07E000
07E000
07E000
07E000
07E000
07E000
07E000
07E000
07E000
07E000
07E000
07E000
07E000
ENDCHAR
STARTCHAR 0067
ENCODING 103
SWIDTH 553 0
DWIDTH 40 0
BBX 32 55 3 -16
BITMAP
001FE000
007FF83F
01FFFE3F
03FFFF3F
07FFFFBF
0FFFFFFF
1FF00FFF
1FC007FF
3F8003FF
3F0001FF
7F0000FF
7E0000FF
7E0000FF
FE00007F
FC00007F
FC00007F
FC00007F
FC00007F
FC00003F
FC00003F
FC00003F
FC00003F
FC00003F
FC00003F
FC00007F
FC00007F
FC00007F
FE00007F
FE00007F
7E0000FF
7F0000FF
3F0001FF
3F8003FF
1FC007FF
1FF00FBF
0FFFFFBF
07FFFF3F
03FFFE3F
01FFFC3F
007FF07F
001FC07E
0000007E
0000007E
0000007E
7E00007E
7E0000FC
7F0000FC
3F0001FC
3FC003F8
1FF01FF0
0FFFFFF0
0FFFFFC0
03FFFF80
01FFFE00
003FF000
ENDCHAR
STARTCHAR 0068
ENCODING 104
SWIDTH 553 0
DWIDTH 40 0
BBX 30 53 5 0
BITMAP
FC000000
FC000000
FC000000
FC000000
FC000000
FC000000
FC000000
FC000000
FC000000
FC000000
FC000000
FC000000
FC000000
FC000000
FC03FC00
FC1FFF80
FC3FFFE0
FC7FFFF0
FCFFFFF8
FDFC3FF8
FFF007FC
FFC003FC
FF8001FC
FF0000FC
FF0000FC
FE0000FC
FE0000FC
FE0000FC
FC0000FC
FC0000FC
FC0000FC
FC0000FC
FC0000FC
FC0000FC
FC0000FC
FC0000FC
FC0000FC
FC0000FC
FC0000FC
FC0000FC
FC0000FC
FC0000FC
FC0000FC
FC0000FC
FC0000FC
FC0000FC
FC0000FC
FC0000FC
FC0000FC
FC0000FC
FC0000FC
FC0000FC
FC0000FC
ENDCHAR
STARTCHAR 0069
ENCODING 105
SWIDTH 221 0
DWIDTH 16 0
BBX 6 53 5 0
BITMAP
FC
FC
FC
FC
FC
FC
FC
FC
00
00
00
00
00
00
00
FC
FC
FC
FC
FC
FC
FC
FC
FC
FC
FC
FC
FC
FC
FC
FC
FC
FC
FC
FC
FC
FC
FC
FC
FC
FC
FC
FC
FC
FC
FC
FC
FC
FC
FC
FC
FC
FC
ENDCHAR
STARTCHAR 006A
ENCODING 106
SWIDTH 221 0
DWIDTH 16 0
BBX 12 69 -1 -16
BITMAP
03F0
03F0
03F0
03F0
03F0
03F0
03F0
03F0
0000
0000
0000
0000
0000
0000
0000
03F0
03F0
03F0
03F0
03F0
03F0
03F0
03F0
03F0
03F0
03F0
03F0
03F0
03F0
03F0
03F0
03F0
03F0
03F0
03F0
03F0
03F0
03F0
03F0
03F0
03F0
03F0
03F0
03F0
03F0
03F0
03F0
03F0
03F0
03F0
03F0
03F0
03F0
03F0
03F0
03F0
03F0
03F0
03F0
03F0
03F0
03F0
07F0
1FF0
FFE0
FFE0
FFC0
FF80
FC00
ENDCHAR
STARTCHAR 006B
ENCODING 107
SWIDTH 498 0
DWIDTH 36 0
BBX 32 53 4 0
BITMAP
FC000000
FC000000
FC000000
FC000000
FC000000
FC000000
FC000000
FC000000
FC000000
FC000000
FC000000
FC000000
FC000000
FC000000
FC000000
FC0003F8
FC0007F0
FC000FE0
FC001FC0
FC003F80
FC007F00
FC00FE00
FC01FC00
FC03F800
FC07F000
FC0FE000
FC1FC000
FC3F8000
FC7F8000
FCFFC000
FDFFC000
FFFFE000
FFFFF000
FFE7F000
FFC7F800
FF83F800
FF01FC00
FE01FE00
FC00FE00
FC00FF00
FC007F00
FC003F80
FC003FC0
FC001FC0
FC000FE0
FC000FF0
FC0007F0
FC0007F8
FC0003F8
FC0001FC
FC0001FE
FC0000FE
FC0000FF
ENDCHAR
STARTCHAR 006C
ENCODING 108
SWIDTH 221 0
DWIDTH 16 0
BBX 6 53 5 0
BITMAP
FC
FC
FC
FC
FC
FC
FC
FC
FC
FC
FC
FC
FC
FC
FC
FC
FC
FC
FC
FC
FC
FC
FC
FC
FC
FC
FC
FC
FC
FC
FC
FC
FC
FC
FC
FC
FC
FC
FC
FC
FC
FC
FC
FC
FC
FC
FC
FC
FC
FC
FC
FC
FC
ENDCHAR
STARTCHAR 006D
ENCODING 109
SWIDTH 830 0
DWIDTH 60 0
BBX 50 39 5 0
BITMAP
0007F8001FE000
FC1FFF00FFFC00
FC7FFF81FFFE00
FCFFFFC3FFFF00
FDFFFFE7FFFF80
FFF87FEFE1FF80
FFE01FFF807FC0
FF800FFE003FC0
FF0007FC001FC0
FF0007FC001FC0
FE0003F8000FC0
FE0003F8000FC0
FC0003F0000FC0
FC0003F0000FC0
FC0003F0000FC0
FC0003F0000FC0
FC0003F0000FC0
FC0003F0000FC0
FC0003F0000FC0
FC0003F0000FC0
FC0003F0000FC0
FC0003F0000FC0
FC0003F0000FC0
FC0003F0000FC0
FC0003F0000FC0
FC0003F0000FC0
FC0003F0000FC0
FC0003F0000FC0
FC0003F0000FC0
FC0003F0000FC0
FC0003F0000FC0
FC0003F0000FC0
FC0003F0000FC0
FC0003F0000FC0
FC0003F0000FC0
FC0003F0000FC0
FC0003F0000FC0
FC0003F0000FC0
FC0003F0000FC0
ENDCHAR
STARTCHAR 006E
ENCODING 110
SWIDTH 553 0
DWIDTH 40 0
BBX 30 39 5 0
BITMAP
0003FC00
FC1FFF80
FC3FFFE0
FC7FFFF0
FCFFFFF0
FDFC3FF8
FFF007FC
FFC003FC
FF8001FC
FF0000FC
FF0000FC
FE0000FC
FE0000FC
FE0000FC
FC0000FC
FC0000FC
FC0000FC
FC0000FC
FC0000FC
FC0000FC
FC0000FC
FC0000FC
FC0000FC
FC0000FC
FC0000FC
FC0000FC
FC0000FC
FC0000FC
FC0000FC
FC0000FC
FC0000FC
FC0000FC
FC0000FC
FC0000FC
FC0000FC
FC0000FC
FC0000FC
FC0000FC
FC0000FC
ENDCHAR
STARTCHAR 006F
ENCODING 111
SWIDTH 553 0
DWIDTH 40 0
BBX 34 41 3 -2
BITMAP
000FF80000
007FFF0000
01FFFFC000
03FFFFF000
07FFFFF800
0FFFFFF800
1FF007FC00
1FE001FE00
3FC000FE00
3F80007F00
7F00007F00
7F00003F80
7E00003F80
FE00001F80
FE00001F80
FC00001FC0
FC00001FC0
FC00001FC0
FC00001FC0
FC00000FC0
FC00000FC0
FC00000FC0
FC00001FC0
FC00001FC0
FC00001FC0
FC00001FC0
FE00001F80
FE00001F80
7E00003F80
7F00003F80
7F00007F00
3F80007F00
3FC000FE00
1FE001FE00
1FF007FC00
0FFFFFF800
07FFFFF000
03FFFFE000
01FFFFC000
007FFF0000
000FF80000
ENDCHAR
STARTCHAR 0070
ENCODING 112
SWIDTH 553 0
DWIDTH 40 0
BBX 34 55 4 -16
BITMAP
0007FC0000
F81FFF0000
F87FFFC000
F8FFFFF000
F9FFFFF800
FBFFFFF800
FBF807FC00
FFE003FE00
FFC001FE00
FF8000FF00
FF00007F00
FF00003F00
FE00003F80
FE00003F80
FE00001F80
FC00001F80
FC00001FC0
FC00001FC0
FC00001FC0
FC00001FC0
FC00001FC0
FC00001FC0
FC00001FC0
FC00001FC0
FC00001FC0
FC00001F80
FE00001F80
FE00003F80
FE00003F80
FF00003F80
FF00007F00
FF8000FF00
FFC000FE00
FFE003FE00
FFF807FC00
FFFFFFF800
FDFFFFF000
FCFFFFE000
FC7FFFC000
FC1FFF0000
FC07FC0000
FC00000000
FC00000000
FC00000000
FC00000000
FC00000000
FC00000000
FC00000000
FC00000000
FC00000000
FC00000000
FC00000000
FC00000000
FC00000000
FC00000000
ENDCHAR
STARTCHAR 0071
ENCODING 113
SWIDTH 553 0
DWIDTH 40 0
BBX 34 55 2 -16
BITMAP
000FF00000
003FFE0FC0
00FFFF8FC0
01FFFFCFC0
07FFFFEFC0
07FFFFFFC0
0FF807FFC0
1FE001FFC0
1FC000FFC0
3F80007FC0
3F80007FC0
7F00003FC0
7F00003FC0
7E00001FC0
7E00001FC0
FE00001FC0
FE00001FC0
FC00000FC0
FC00000FC0
FC00000FC0
FC00000FC0
FC00000FC0
FC00000FC0
FC00000FC0
FE00000FC0
FE00001FC0
FE00001FC0
7E00001FC0
7F00003FC0
7F00003FC0
7F80007FC0
3F80007FC0
3FC000FFC0
1FE001FFC0
1FF807FFC0
0FFFFFEFC0
07FFFFEFC0
03FFFFCFC0
01FFFF0FC0
007FFE0FC0
000FF00FC0
0000000FC0
0000000FC0
0000000FC0
0000000FC0
0000000FC0
0000000FC0
0000000FC0
0000000FC0
0000000FC0
0000000FC0
0000000FC0
0000000FC0
0000000FC0
0000000FC0
ENDCHAR
STARTCHAR 0072
ENCODING 114
SWIDTH 332 0
DWIDTH 24 0
BBX 18 39 5 0
BITMAP
0007C0
FC1FC0
FC3FC0
FC7FC0
FCFFC0
FDFFC0
FDFE00
FFE000
FFC000
FF8000
FF0000
FF0000
FE0000
FE0000
FE0000
FC0000
FC0000
FC0000
FC0000
FC0000
FC0000
FC0000
FC0000
FC0000
FC0000
FC0000
FC0000
FC0000
FC0000
FC0000
FC0000
FC0000
FC0000
FC0000
FC0000
FC0000
FC0000
FC0000
FC0000
ENDCHAR
STARTCHAR 0073
ENCODING 115
SWIDTH 498 0
DWIDTH 36 0
BBX 31 41 2 -2
BITMAP
001FF800
00FFFF00
03FFFF80
07FFFFE0
0FFFFFE0
1FFFFFF0
1FE00FF8
3F8003F8
3F8003F8
3F0001F8
7F0001FC
7F0001FC
7F000000
3F000000
3F800000
3FE00000
3FF80000
1FFF8000
0FFFFC00
07FFFF80
01FFFFE0
007FFFF0
0007FFF8
00007FFC
00000FFC
000001FE
000000FE
0000007E
FE00007E
7E00007E
7E00007E
7F0000FE
7F0000FE
7F8001FC
3FE007FC
3FFFFFF8
1FFFFFF0
0FFFFFE0
07FFFFC0
01FFFF00
003FF000
ENDCHAR
STARTCHAR 0074
ENCODING 116
SWIDTH 276 0
DWIDTH 20 0
BBX 17 50 1 -2
BITMAP
07E000
07E000
07E000
07E000
07E000
07E000
07E000
07E000
07E000
07E000
FFFF80
FFFF80
FFFF80
FFFF80
FFFF80
07E000
07E000
07E000
07E000
07E000
07E000
07E000
07E000
07E000
07E000
07E000
07E000
07E000
07E000
07E000
07E000
07E000
07E000
07E000
07E000
07E000
07E000
07E000
07E000
07E000
07E000
07E000
07E000
07F000
07F800
07FF80
03FF80
03FF80
01FF80
007F80
ENDCHAR
STARTCHAR 0075
ENCODING 117
SWIDTH 553 0
DWIDTH 40 0
BBX 30 40 5 -2
BITMAP
FC0000FC
FC0000FC
FC0000FC
FC0000FC
FC0000FC
FC0000FC
FC0000FC
FC0000FC
FC0000FC
FC0000FC
FC0000FC
FC0000FC
FC0000FC
FC0000FC
FC0000FC
FC0000FC
FC0000FC
FC0000FC
FC0000FC
FC0000FC
FC0000FC
FC0000FC
FC0000FC
FC0000FC
FC0000FC
FC0001FC
FC0001FC
FC0001FC
FC0001FC
FC0003FC
FC0003FC
FE0007FC
FF000FFC
FF803FFC
7FE0FEFC
7FFFFCFC
3FFFF8FC
1FFFF0FC
07FFC000
00FE0000
ENDCHAR
STARTCHAR 0076
ENCODING 118
SWIDTH 498 0
DWIDTH 36 0
BBX 34 38 1 0
BITMAP
FE00001FC0
FE00001FC0
7E00003F80
7F00003F80
7F00003F00
3F00007F00
3F80007F00
3F80007E00
1F8000FE00
1FC000FC00
1FC000FC00
0FC001FC00
0FE001F800
0FE001F800
07E003F800
07F003F000
07F003F000
03F007E000
03F807E000
01F807E000
01F80FC000
01FC0FC000
00FC1F8000
00FC1F8000
00FE1F8000
007E3F0000
007E3F0000
007F3F0000
003F7E0000
003F7E0000
003FFC0000
001FFC0000
001FFC0000
001FF80000
000FF80000
000FF80000
000FF00000
0007F00000
ENDCHAR
STARTCHAR 0077
ENCODING 119
SWIDTH 720 0
DWIDTH 52 0
BBX 50 38 1 0
BITMAP
FC0007F8001FC0
FC0007F8001FC0
FE000FF8001F80
FE000FF8003F80
7E000FFC003F80
7F000FFC003F80
7F001FFC003F00
3F001FFC007F00
3F001F7E007F00
3F801F7E007E00
3F803F7E007E00
1F803F7E00FE00
1F803E3F00FC00
1FC03E3F00FC00
0FC07E3F00FC00
0FC07E3F01FC00
0FC07C1F81F800
0FE07C1F81F800
07E0FC1F81F800
07E0FC1F83F000
07E0F80FC3F000
03F0F80FC3F000
03F0F80FC3F000
03F1F80FC7E000
03F1F007E7E000
01F9F007E7E000
01F9F007E7C000
01FBF007EFC000
00FFF003FFC000
00FFE003FF8000
00FFE003FF8000
007FE003FF8000
007FE001FF8000
007FC001FF0000
007FC001FF0000
003FC001FF0000
003FC000FE0000
003F8000FE0000
ENDCHAR
STARTCHAR 0078
ENCODING 120
SWIDTH 498 0
DWIDTH 36 0
BBX 32 38 2 0
BITMAP
FE00007E
7F0000FE
3F0001FC
3F8001F8
1FC003F8
0FC007F0
0FE007E0
07F00FE0
03F01FC0
03F81F80
01FC3F80
00FC7F00
00FE7E00
007FFC00
003FFC00
003FF800
001FF000
000FF000
000FE000
000FF000
001FF800
001FF800
003FFC00
007FFE00
007EFE00
00FC7F00
01FC3F80
03F83F80
03F01FC0
07F00FE0
0FE00FE0
0FC007F0
1FC003F8
3F8003F8
3F0001FC
7F0000FE
FE0000FE
FC00007F
ENDCHAR
STARTCHAR 0079
ENCODING 121
SWIDTH 498 0
DWIDTH 36 0
BBX 32 54 2 -16
BITMAP
FC00003F
FC00007F
FE00007F
7E00007E
7E0000FE
7F0000FE
3F0000FC
3F0001FC
3F8001F8
1F8001F8
1F8003F8
1FC003F0
0FC003F0
0FC007F0
0FE007E0
07E007E0
07E00FC0
07F00FC0
03F01FC0
03F01F80
03F81F80
01F83F80
01F83F00
01FC3F00
00FC7F00
00FC7E00
00FE7E00
007EFC00
007EFC00
007EFC00
003FF800
003FF800
003FF800
001FF000
001FF000
001FF000
000FE000
000FE000
000FC000
000FC000
001FC000
001F8000
001F8000
003F8000
003F0000
007F0000
007F0000
00FE0000
3FFE0000
3FFC0000
3FF80000
3FF00000
3FE00000
1F800000
ENDCHAR
STARTCHAR 007A
ENCODING 122
SWIDTH 498 0
DWIDTH 36 0
BBX 31 38 2 0
BITMAP
3FFFFFFC
3FFFFFFC
3FFFFFFC
3FFFFFFC
3FFFFFFC
000001FC
000003F8
000007F0
00000FE0
00001FE0
00001FC0
00003F80
00007F00
0000FE00
0001FC00
0003FC00
0003F800
0007F000
000FE000
001FC000
003FC000
007F8000
007F0000
00FE0000
01FC0000
03F80000
07F80000
0FF00000
0FE00000
1FC00000
3F800000
7F800000
FF000000
FFFFFFFE
FFFFFFFE
FFFFFFFE
FFFFFFFE
FFFFFFFE
ENDCHAR
STARTCHAR 007B
ENCODING 123
SWIDTH 332 0
DWIDTH 24 0
BBX 17 68 3 -15
BITMAP
001F80
007F80
00FF80
01FF80
01FF80
03F800
03F000
03E000
03E000
03E000
03E000
03E000
03E000
03E000
03E000
03E000
03E000
03E000
03E000
03E000
03E000
03E000
03E000
03E000
03E000
03E000
07E000
07E000
07E000
0FC000
1FC000
FF8000
FF0000
FC0000
FE0000
FF0000
FF8000
1FC000
0FC000
07C000
07E000
07E000
03E000
03E000
03E000
03E000
03E000
03E000
03E000
03E000
03E000
03E000
03E000
03E000
03E000
03E000
03E000
03E000
03E000
03E000
03F000
03F000
03F800
01FF80
01FF80
00FF80
007F80
001F80
ENDCHAR
STARTCHAR 007C
ENCODING 124
SWIDTH 263 0
DWIDTH 19 0
BBX 5 68 7 -15
BITMAP
F8
F8
F8
F8
F8
F8
F8
F8
F8
F8
F8
F8
F8
F8
F8
F8
F8
F8
F8
F8
F8
F8
F8
F8
F8
F8
F8
F8
F8
F8
F8
F8
F8
F8
F8
F8
F8
F8
F8
F8
F8
F8
F8
F8
F8
F8
F8
F8
F8
F8
F8
F8
F8
F8
F8
F8
F8
F8
F8
F8
F8
F8
F8
F8
F8
F8
F8
F8
ENDCHAR
STARTCHAR 007D
ENCODING 125
SWIDTH 332 0
DWIDTH 24 0
BBX 17 68 2 -15
BITMAP
FC0000
FF0000
FF8000
FFC000
FFE000
07E000
07E000
03E000
03E000
03E000
03E000
03E000
03E000
03E000
03E000
03E000
03E000
03E000
03E000
03E000
03E000
03E000
03E000
03E000
03F000
03F000
03F000
03F000
01F800
01F800
00FC00
00FF80
007F80
001F80
001F80
007F80
00FF80
00FC00
01F800
01F800
01F000
03F000
03F000
03F000
03E000
03E000
03E000
03E000
03E000
03E000
03E000
03E000
03E000
03E000
03E000
03E000
03E000
03E000
03E000
03E000
03E000
07E000
07E000
FFE000
FFC000
FF8000
FF0000
FC0000
ENDCHAR
STARTCHAR 007E
ENCODING 126
SWIDTH 581 0
DWIDTH 42 0
BBX 32 13 5 19
BITMAP
03C00000
0FF00000
1FFC000F
3FFF000F
3FFF800F
7E3FE00F
7C0FF01E
7807FC3E
7801FFFE
7000FFFC
F0007FFC
00001FF8
000003E0
ENDCHAR
STARTCHAR 00A0
ENCODING 160
SWIDTH 276 0
DWIDTH 20 0
BBX 0 0 0 0
BITMAP
ENDCHAR
STARTCHAR 00A1
ENCODING 161
SWIDTH 332 0
DWIDTH 24 0
BBX 6 53 9 -15
BITMAP
FC
FC
FC
FC
FC
FC
FC
FC
00
00
00
00
70
70
70
78
78
78
78
78
78
F8
F8
F8
F8
FC
FC
FC
FC
FC
FC
FC
FC
FC
FC
FC
FC
FC
FC
FC
FC
FC
FC
FC
FC
FC
FC
FC
FC
FC
FC
FC
FC
ENDCHAR
STARTCHAR 00A2
ENCODING 162
SWIDTH 553 0
DWIDTH 40 0
BBX 33 54 4 -9
BITMAP
0001E00000
0001E00000
0001E00000
0001E00000
0001E00000
0001E00000
0003FC0000
003FFF8000
00FFFFE000
01FFFFF000
03FFFFF800
07FFFFFC00
0FF9E3FC00
1FE1E1FE00
1FC1E0FE00
3F81E07F00
3F01E07F00
7F01E03F00
7E01E03F00
7E01E03F00
FE01E00000
FE01E00000
FC01E00000
FC01E00000
FC01E00000
FC01E00000
FC01E00000
FC01E00000
FC01E00000
FC01E00000
FC01E00000
FE01E00000
FE01E01F80
7E01E01F80
7E01E03F80
7F01E03F00
3F81E07F00
3F81E07F00
1FC1E0FE00
1FE1E1FE00
0FFDE7FC00
07FFFFF800
03FFFFF800
01FFFFE000
00FFFFC000
001FFF0000
0001F00000
0001E00000
0001E00000
0001E00000
0001E00000
0001E00000
0001E00000
0001E00000
ENDCHAR
STARTCHAR 00A3
ENCODING 163
SWIDTH 553 0
DWIDTH 40 0
BBX 36 55 2 -2
BITMAP
0001FF0000
000FFFE000
003FFFF000
00FFFFFC00
01FFFFFE00
03FFFFFF00
07FC01FF80
0FF0007F80
0FE0003FC0
1FC0001FC0
1FC0001FC0
1F80000FE0
3F80000FE0
3F80000FE0
3F80000FE0
3F800007E0
3F800007E0
3F80000000
3F80000000
3FC0000000
1FC0000000
1FC0000000
0FE0000000
0FE0000000
07F0000000
07F8000000
FFFFFF0000
FFFFFF0000
FFFFFF0000
FFFFFF0000
00FE000000
007E000000
007E000000
007F000000
007F000000
003F000000
003F000000
007E000000
007E000000
007E000000
00FC000000
00F8000000
01F8000000
01F0000000
03E0000000
07C0000000
0F8FF00040
1F3FFE01C0
3FFFFFFFE0
7FFFFFFFF0
7FFFFFFFF0
3FFFFFFFF0
1E007FFFE0
18000FFF80
000001FE00
ENDCHAR
STARTCHAR 00A4
ENCODING 164
SWIDTH 553 0
DWIDTH 40 0
BBX 30 29 5 11
BITMAP
18000060
3C0100F0
7E3FF1F8
FFFFFFFC
7FFFFFFC
3FFFFFF8
1FFFFFF0
0FF07FE0
1FC01FE0
3F8007E0
3F0007F0
3F0003F0
3E0003F0
7E0003F0
7E0001F0
7E0003F0
3E0003F0
3F0003F0
3F0007F0
3F8007E0
1FC01FE0
0FF03FC0
1FFFFFE0
3FFFFFF0
7FFFFFF8
FFFFFFFC
7E7FF1F8
3C0300F0
18000060
ENDCHAR
STARTCHAR 00A5
ENCODING 165
SWIDTH 553 0
DWIDTH 40 0
BBX 38 51 1 0
BITMAP
FC000000FC
7E000001F8
7F000001F8
3F000003F0
1F800003F0
1F800007E0
0FC0000FC0
0FC0000FC0
07E0001F80
07F0001F80
03F0003F00
01F8003F00
01F8007E00
00FC007E00
00FC00FC00
007E01F800
007F01F800
003F03F000
001F83F000
001F87E000
000FC7E000
000FCFC000
0007EF8000
0003FF8000
0003FF0000
0FFFFFFFE0
0FFFFFFFE0
0FFFFFFFE0
0FFFFFFFE0
0000FC0000
0000FC0000
0000FC0000
0000FC0000
0000FC0000
0000FC0000
0FFFFFFFE0
0FFFFFFFE0
0FFFFFFFE0
0FFFFFFFE0
0000FC0000
0000FC0000
0000FC0000
0000FC0000
0000FC0000
0000FC0000
0000FC0000
0000FC0000
0000FC0000
0000FC0000
0000FC0000
0000FC0000
ENDCHAR
STARTCHAR 00A6
ENCODING 166
SWIDTH 263 0
DWIDTH 19 0
BBX 5 68 7 -15
BITMAP
F8
F8
F8
F8
F8
F8
F8
F8
F8
F8
F8
F8
F8
F8
F8
F8
F8
F8
F8
F8
F8
F8
F8
F8
F8
F8
F8
F8
F8
00
00
00
00
00
00
00
00
00
00
F8
F8
F8
F8
F8
F8
F8
F8
F8
F8
F8
F8
F8
F8
F8
F8
F8
F8
F8
F8
F8
F8
F8
F8
F8
F8
F8
F8
F8
ENDCHAR
STARTCHAR 00A7
ENCODING 167
SWIDTH 553 0
DWIDTH 40 0
BBX 34 69 3 -16
BITMAP
0003FC0000
001FFF0000
003FFFC000
00FFFFE000
01FFFFF000
01FFFFF800
03FC07F800
03F803FC00
07F001FC00
07F000FC00
07E000FC00
07E000FC00
07E000FE00
07E0007E00
07F0007E00
07F8000000
03FC000000
03FE000000
01FF800000
00FFC00000
03FFF00000
07FFF80000
0FCFFE0000
1F87FF0000
3F01FFC000
7E00FFF000
7C003FF800
7C001FFC00
FC0007FE00
FC0003FF00
FC0001FF00
FC00007F80
FE00003F80
7E00003F80
7F00001F80
7F80001FC0
3FE0000FC0
3FF0000FC0
1FF8000F80
0FFE000F80
07FF001F80
03FF801F80
00FFE03F00
007FF07F00
001FF8FE00
000FFFFC00
0003FFF000
0001FFC000
0000FFC000
00003FE000
00001FF000
00000FF000
000007F800
000003F800
1F8001F800
1F8001F800
1F8001F800
1F8001F800
1F8001F800
1FC003F800
1FE003F800
0FF007F000
0FF81FF000
07FFFFE000
03FFFFC000
01FFFF8000
00FFFF0000
003FFC0000
0001800000
ENDCHAR
STARTCHAR 00A8
ENCODING 168
SWIDTH 332 0
DWIDTH 24 0
BBX 19 7 2 45
BITMAP
FF0FE0
FF0FE0
FF0FE0
FF0FE0
FF0FE0
FF0FE0
FF0FE0
ENDCHAR
STARTCHAR 00A9
ENCODING 169
SWIDTH 733 0
DWIDTH 53 0
BBX 55 56 -1 -2
BITMAP
000001FF800000
00001FFFF80000
0000FFFFFE0000
0003FFFFFF8000
0007FFEFFFE000
001FF8003FF000
003FC00007F800
007F800001FE00
00FE000000FF00
01FC0000003F00
03F00000001F80
07E0007F000FC0
07E003FFC007E0
0FC00FFFF007E0
0F801FFFF803F0
1F003FFFFC01F0
1F007F00FC01F8
3E007E007E00F8
3E00FC003E00FC
7E00F8003F007C
7C01F8001F007C
7C01F0001F007E
7C01F00000003E
F801F00000003E
F803E00000003E
F803E00000003E
F803E00000003E
F803E00000003E
F803E00000003E
F803E00000003E
F803E00000003E
F803E0000F803E
F803F0000F803E
7C01F0001F003E
7C01F0001F007E
7C01F8001F007C
7E00F8003F007C
3E00FC003E00FC
3F007E007E00F8
1F007F00FC01F8
1F803FFFF801F0
0F801FFFF803F0
0FC00FFFF003E0
07E003FFC007E0
07F000FF000FC0
03F80000001F80
01FC0000003F00
00FE000000FE00
007F800001FC00
003FE00007F800
001FF8003FF000
0007FFEFFFE000
0003FFFFFF8000
0000FFFFFE0000
00001FFFF00000
000003FF000000
ENDCHAR
STARTCHAR 00AA
ENCODING 170
SWIDTH 373 0
DWIDTH 27 0
BBX 21 32 3 22
BITMAP
03FC00
0FFF00
1FFF80
3FFFC0
7C07C0
7C03E0
7801E0
7801E0
0003E0
0003E0
003FE0
0FFFE0
3FFFE0
7FF1E0
7E01E0
F801E0
F001E0
F003E0
F003E0
F007E0
F80FE0
FFFFF0
7FFDF8
3FF9F8
0FC0F8
000000
000000
000000
FFFFF0
FFFFF0
FFFFF0
FFFFF0
ENDCHAR
STARTCHAR 00AB
ENCODING 171
SWIDTH 553 0
DWIDTH 40 0
BBX 26 23 7 9
BITMAP
002000C0
00E001C0
01E003C0
03E007C0
07E01FC0
1FE03FC0
3FC07F00
7F00FE00
FE01FC00
FC01F800
F001E000
F001C000
F801F000
FC01F800
FE01FC00
7F80FF00
3FC07F80
0FE03FC0
07E00FC0
03E007C0
01E003C0
006000C0
00200040
ENDCHAR
STARTCHAR 00AC
ENCODING 172
SWIDTH 581 0
DWIDTH 42 0
BBX 36 21 3 6
BITMAP
FFFFFFFFF0
FFFFFFFFF0
FFFFFFFFF0
FFFFFFFFF0
FFFFFFFFF0
00000001F0
00000001F0
00000001F0
00000001F0
00000001F0
00000001F0
00000001F0
00000001F0
00000001F0
00000001F0
00000001F0
00000001F0
00000001F0
00000001F0
00000001F0
00000001F0
ENDCHAR
STARTCHAR 00AD
ENCODING 173
SWIDTH 332 0
DWIDTH 24 0
BBX 18 5 3 17
BITMAP
FFFFC0
FFFFC0
FFFFC0
FFFFC0
FFFFC0
ENDCHAR
STARTCHAR 00AE
ENCODING 174
SWIDTH 733 0
DWIDTH 53 0
BBX 55 56 -1 -2
BITMAP
000001FF800000
00001FFFF80000
0000FFFFFE0000
0003FFFFFF8000
0007FFEFFFE000
001FF8003FF000
003FC00007F800
007F000001FE00
00FE000000FF00
01FC0000003F00
03F00000001F80
07E0FFFE000FC0
07E0FFFFF007E0
0FC0FFFFFC07E0
0F80FFFFFE03F0
1F00FFFFFF01F0
1F00F8007F01F8
3E00F8003F00F8
3E00F8001F80FC
7E00F8001F807C
7C00F8001F807C
7C00F8001F807E
7C00F8001F803E
F800F8001F003E
F800F8003F003E
F800F8007E003E
F800FFFFFE003E
F800FFFFF8003E
F800FFFFF8003E
F800FFFFFE003E
F800FFFFFE003E
F800F8003F003E
F800F8003F003E
7C00F8001F003E
7C00F8001F007E
7C00F8001F007C
7E00F8001F007C
3E00F8001F00FC
3E00F8001F00F8
1F00F8001F00F8
1F80F8001F01F0
0F80F8001F83F0
0FC0F8001FC3E0
07E0F8000FC7E0
07F00000000FC0
03F80000001F80
01FC0000003F00
00FE000000FE00
007F800001FC00
003FC00007F800
001FF8003FF000
0007FFEFFFE000
0003FFFFFF8000
0000FFFFFE0000
00001FFFF00000
000003FF000000
ENDCHAR
STARTCHAR 00AF
ENCODING 175
SWIDTH 332 0
DWIDTH 24 0
BBX 20 5 2 46
BITMAP
FFFFF0
FFFFF0
FFFFF0
FFFFF0
FFFFF0
ENDCHAR
STARTCHAR 00B0
ENCODING 176
SWIDTH 401 0
DWIDTH 29 0
BBX 22 21 3 28
BITMAP
00FE00
03FF80
0FFFE0
1FFFF0
3F83F0
3E00F8
7C007C
78007C
78003C
78003C
F8003C
78003C
78003C
78007C
7C007C
3E00F8
3F83F0
1FFFF0
0FFFE0
03FF80
00FE00
ENDCHAR
STARTCHAR 00B1
ENCODING 177
SWIDTH 581 0
DWIDTH 42 0
BBX 35 46 4 -1
BITMAP
0001F00000
0001F00000
0001F00000
0001F00000
0001F00000
0001F00000
0001F00000
0001F00000
0001F00000
0001F00000
0001F00000
0001F00000
0001F00000
0001F00000
0001F00000
FFFFFFFFE0
FFFFFFFFE0
FFFFFFFFE0
FFFFFFFFE0
FFFFFFFFE0
0001F00000
0001F00000
0001F00000
0001F00000
0001F00000
0001F00000
0001F00000
0001F00000
0001F00000
0001F00000
0001F00000
0001F00000
0001F00000
0001F00000
0001F00000
0000000000
0000000000
0000000000
0000000000
0000000000
0000000000
FFFFFFFFE0
FFFFFFFFE0
FFFFFFFFE0
FFFFFFFFE0
FFFFFFFFE0
ENDCHAR
STARTCHAR 00B2
ENCODING 178
SWIDTH 332 0
DWIDTH 24 0
BBX 22 30 1 21
BITMAP
01FE00
07FFC0
0FFFE0
1FFFF0
3F03F8
7E00F8
7C007C
78007C
78007C
78007C
F8007C
00007C
0000F8
0001F8
0007F0
000FE0
003FC0
00FF00
03FC00
07F000
1FC000
3F0000
3E0000
7C0000
7C0000
F80000
FFFFFC
FFFFFC
FFFFFC
FFFFFC
ENDCHAR
STARTCHAR 00B3
ENCODING 179
SWIDTH 332 0
DWIDTH 24 0
BBX 22 32 1 19
BITMAP
01FC00
0FFF80
1FFFC0
3FFFE0
3E03F0
7C01F0
7800F0
F800F8
F800F8
F800F8
0000F0
0001F0
0003E0
00FFE0
00FF80
00FFC0
00FFE0
0003F0
0000F8
0000F8
00007C
00007C
F0007C
F0007C
F80078
F800F8
FC01F8
7E03F0
3FFFE0
1FFFC0
0FFF80
01FC00
ENDCHAR
STARTCHAR 00B4
ENCODING 180
SWIDTH 332 0
DWIDTH 24 0
BBX 14 11 7 43
BITMAP
03FC
03F8
07F0
0FE0
0FC0
1F80
3F00
3E00
7C00
F800
F000
ENDCHAR
STARTCHAR 00B5
ENCODING 181
SWIDTH 553 0
DWIDTH 40 0
BBX 34 54 5 -16
BITMAP
FC0000FC00
FC0000FC00
FC0000FC00
FC0000FC00
FC0000FC00
FC0000FC00
FC0000FC00
FC0000FC00
FC0000FC00
FC0000FC00
FC0000FC00
FC0000FC00
FC0000FC00
FC0000FC00
FC0000FC00
FC0000FC00
FC0000FC00
FC0000FC00
FC0000FC00
FC0000FC00
FC0000FC00
FC0000FC00
FC0000FC00
FC0000FC00
FC0000FC00
FC0001FC00
FC0001FC00
FC0001FC00
FC0001FC00
FC0003FC00
FC0007FC00
FE0007FC00
FF000FFC00
FF803FFC00
FFE0FFFE00
FFFFFEFFC0
FFFFFCFFC0
FFFFF07FC0
FFFFE03FC0
FCFF001FC0
FC00000000
FC00000000
FC00000000
FC00000000
FC00000000
FC00000000
FC00000000
FC00000000
FC00000000
FC00000000
FC00000000
FC00000000
FC00000000
FC00000000
ENDCHAR
STARTCHAR 00B6
ENCODING 182
SWIDTH 540 0
DWIDTH 39 0
BBX 35 65 3 -12
BITMAP
0007FFFFE0
003FFFFFE0
00FFFFFFE0
01FFFFFFE0
03FFFFFFE0
07FFF03E00
0FFFF03E00
1FFFF03E00
1FFFF03E00
3FFFF03E00
3FFFF03E00
7FFFF03E00
7FFFF03E00
7FFFF03E00
7FFFF03E00
7FFFF03E00
FFFFF03E00
FFFFF03E00
7FFFF03E00
7FFFF03E00
7FFFF03E00
7FFFF03E00
7FFFF03E00
7FFFF03E00
3FFFF03E00
3FFFF03E00
1FFFF03E00
1FFFF03E00
0FFFF03E00
07FFF03E00
03FFF03E00
01FFF03E00
007FF03E00
000FF03E00
0001F03E00
0001F03E00
0001F03E00
0001F03E00
0001F03E00
0001F03E00
0001F03E00
0001F03E00
0001F03E00
0001F03E00
0001F03E00
0001F03E00
0001F03E00
0001F03E00
0001F03E00
0001F03E00
0001F03E00
0001F03E00
0001F03E00
0001F03E00
0001F03E00
0001F03E00
0001F03E00
0001F03E00
0001F03E00
0001F03E00
0001F03E00
0001F03E00
0001F03E00
0001F03E00
0001F03E00
ENDCHAR
STARTCHAR 00B7
ENCODING 183
SWIDTH 276 0
DWIDTH 20 0
BBX 7 8 8 16
BITMAP
FE
FE
FE
FE
FE
FE
FE
FE
ENDCHAR
STARTCHAR 00B8
ENCODING 184
SWIDTH 332 0
DWIDTH 24 0
BBX 18 15 3 -15
BITMAP
006000
00E000
00E000
01C000
01FE00
03FF80
03FF80
000FC0
000FC0
000FC0
600F80
F81F80
FFFF00
3FFE00
07F800
ENDCHAR
STARTCHAR 00B9
ENCODING 185
SWIDTH 332 0
DWIDTH 24 0
BBX 11 30 4 21
BITMAP
00E0
00E0
01E0
01E0
03E0
3FE0
FFE0
FFE0
FFE0
01E0
01E0
01E0
01E0
01E0
01E0
01E0
01E0
01E0
01E0
01E0
01E0
01E0
01E0
01E0
01E0
01E0
01E0
01E0
01E0
01E0
ENDCHAR
STARTCHAR 00BA
ENCODING 186
SWIDTH 360 0
DWIDTH 26 0
BBX 20 32 3 22
BITMAP
01FC00
07FF00
1FFF80
3FFFC0
3E07E0
7C03E0
7801F0
7801F0
F800F0
F000F0
F000F0
F000F0
F000F0
F000F0
F000F0
F000F0
F800F0
F801F0
7801F0
7C03E0
3E07E0
3FFFC0
1FFF80
0FFF00
01FC00
000000
000000
000000
7FFFF0
7FFFF0
7FFFF0
7FFFF0
ENDCHAR
STARTCHAR 00BB
ENCODING 187
SWIDTH 553 0
DWIDTH 40 0
BBX 26 24 7 8
BITMAP
00020000
C0030000
E0038000
F003C000
F803F000
FE03F800
FF01FC00
3F80FF00
1FC07F80
0FE03FC0
07E00FC0
01E007C0
00E003C0
03E007C0
07E01FC0
0FE03FC0
3FC07F00
7F80FE00
FE03FC00
FC03F800
F803E000
F003C000
C0038000
80030000
ENDCHAR
STARTCHAR 00BC
ENCODING 188
SWIDTH 830 0
DWIDTH 60 0
BBX 57 53 2 -1
BITMAP
00F00000003C0000
00F0000000780000
00F0000000F80000
01F0000000F00000
03F0000001E00000
0FF0000001E00000
FFF0000003C00000
FFF0000007800000
FFF0000007800000
01F000000F000000
01F000001F000000
01F000001E000000
01F000003C000000
01F000003C000000
01F0000078000000
01F00000F8000000
01F00000F0000000
01F00001E0000000
01F00001E0000000
01F00003C0000000
01F0000780000000
01F000078000F000
01F0000F0001F000
01F0001F0003F000
01F0001E0003F000
01F0003C0007F000
01F0003C000FF000
01F00078001FF000
01F000F8001FF000
01F000F0003DF000
01F001E00079F000
000001E000F9F000
000003C001F1F000
0000078001E1F000
0000078003C1F000
00000F0007C1F000
00001F000F81F000
00001E000F01F000
00003C001E01F000
00003C003E01F000
000078003FFFFF80
0000F8003FFFFF80
0000F0003FFFFF80
0001E0003FFFFF80
0001E0000001F000
0003C0000001F000
000780000001F000
000780000001F000
000F00000001F000
001F00000001F000
001E00000001F000
003C00000001F000
003C000000000000
ENDCHAR
STARTCHAR 00BD
ENCODING 189
SWIDTH 830 0
DWIDTH 60 0
BBX 56 53 2 -1
BITMAP
00E0000000F000
00E0000001F000
00E0000001E000
01E0000003C000
01E0000003C000
07E00000078000
FFE000000F8000
FFE000000F0000
FFE000001E0000
FFE000003E0000
01E000003C0000
01E00000780000
01E00000780000
01E00000F00000
01E00001F00000
01E00001E00000
01E00003C00000
01E00003C00000
01E00007800000
01E0000F000000
01E0000F000000
01E0001E003FC0
01E0003E01FFF0
01E0003C03FFF8
01E0007807FFFC
01E000780FE07E
01E000F00F803F
01E001E00F001F
01E001E01F000F
01E003C01F000F
01E007C01F000F
000007801E000F
00000F0000001F
00000F0000001F
00001E0000003E
00003E000000FC
00003C000003FC
000078000007F0
0000F800001FE0
0000F000007F80
0001E00001FE00
0001E00003F800
0003C00007E000
0007C0000FC000
000780000F8000
000F00001F0000
001F00001F0000
001E00001FFFFF
003C00001FFFFF
003C00003FFFFF
007800003FFFFF
00F800003FFFFF
00F00000000000
ENDCHAR
STARTCHAR 00BE
ENCODING 190
SWIDTH 830 0
DWIDTH 60 0
BBX 57 52 2 -1
BITMAP
01FE0000000F0000
07FF8000001E0000
1FFFC000003E0000
3FFFE000003C0000
3F03F00000780000
7C01F00000F80000
7C00F80000F00000
7800F80001E00000
7800F80001E00000
F800F80003C00000
0000F80007C00000
0001F00007800000
0007F0000F000000
00FFC0001F000000
00FF80001E000000
00FFE0003C000000
001FF0003C000000
0001F80078000000
0000F800F0000000
00007C00F0000000
00007C01E000F000
F0007C03E001F000
F8007C03C001F000
F8007C078003F000
F80078078007F000
7C00F80F000FF000
7E03F81E000FF000
3FFFF01E001FF000
1FFFE03C003DF000
0FFF807C007DF000
01FE00780079F000
000000F000F1F000
000000F001E1F000
000001E003E1F000
000003C003C1F000
000003C00781F000
000007800F81F000
00000F801F01F000
00000F001E01F000
00001E003C01F000
00001E003FFFFF80
00003C003FFFFF80
000078003FFFFF80
000078003FFFFF80
0000F0000001F000
0001F0000001F000
0001E0000001F000
0003C0000001F000
0007C0000001F000
000780000001F000
000F00000001F000
000F000000000000
ENDCHAR
STARTCHAR 00BF
ENCODING 191
SWIDTH 609 0
DWIDTH 44 0
BBX 31 54 7 -16
BITMAP
0007E000
0007E000
0007E000
0007E000
0007E000
0007E000
0007E000
0007E000
00000000
00000000
00000000
00000000
00000000
00000000
0007E000
0007E000
0007E000
0007E000
0007E000
0007E000
000FE000
000FE000
001FE000
001FC000
003F8000
007F8000
01FF0000
03FE0000
07FC0000
0FF80000
1FE00000
1FC00000
3F800000
7F800000
7F000000
7E000000
FE000000
FE00007E
FC00007E
FC00007E
FC00007E
FE00007E
FE0000FE
FE0000FC
7F0001FC
7F8001FC
7FC003F8
3FF01FF8
1FFFFFF0
0FFFFFE0
07FFFFC0
03FFFF00
00FFFC00
00078000
ENDCHAR
STARTCHAR 00C0
ENCODING 192
SWIDTH 664 0
DWIDTH 48 0
BBX 46 68 1 0
BITMAP
0007F8000000
0003FC000000
0001FE000000
0000FE000000
00007F000000
00003F800000
00001F800000
00000FC00000
000007E00000
000003E00000
000001F00000
000000000000
000000000000
000000000000
000000000000
00001FF00000
00003FF00000
00003FF80000
00003FF80000
00007FF80000
00007FFC0000
00007FFC0000
0000FFFC0000
0000FEFE0000
0000FCFE0000
0001FCFE0000
0001FC7F0000
0001F87F0000
0003F87F0000
0003F83F8000
0003F03F8000
0007F03F8000
0007F01FC000
000FE01FC000
000FE01FC000
000FE00FE000
001FC00FE000
001FC00FF000
001F8007F000
003F8007F000
003F8007F800
003F0003F800
007F0003F800
007F0003FC00
007E0001FC00
00FE0001FC00
00FFFFFFFE00
01FFFFFFFE00
01FFFFFFFE00
01FFFFFFFF00
03FFFFFFFF00
03FFFFFFFF00
03F800007F80
07F000003F80
07F000003F80
07F000003FC0
0FE000001FC0
0FE000001FE0
0FE000001FE0
1FC000000FE0
1FC000000FF0
1FC000000FF0
3F80000007F0
3F80000007F8
7F80000007F8
7F00000003F8
7F00000003FC
FF00000003FC
ENDCHAR
STARTCHAR 00C1
ENCODING 193
SWIDTH 664 0
DWIDTH 48 0
BBX 46 68 1 0
BITMAP
0000007F8000
0000007F0000
000000FE0000
000001FC0000
000001F80000
000003F00000
000007E00000
000007C00000
00000F800000
00001F000000
00001E000000
000000000000
000000000000
000000000000
000000000000
00001FF00000
00003FF00000
00003FF80000
00003FF80000
00007FF80000
00007FFC0000
00007FFC0000
0000FFFC0000
0000FEFE0000
0000FCFE0000
0001FCFE0000
0001FC7F0000
0001F87F0000
0003F87F0000
0003F83F8000
0003F03F8000
0007F03F8000
0007F01FC000
000FE01FC000
000FE01FC000
000FE00FE000
001FC00FE000
001FC00FF000
001F8007F000
003F8007F000
003F8007F800
003F0003F800
007F0003F800
007F0003FC00
007E0001FC00
00FE0001FC00
00FFFFFFFE00
01FFFFFFFE00
01FFFFFFFE00
01FFFFFFFF00
03FFFFFFFF00
03FFFFFFFF00
03F800007F80
07F000003F80
07F000003F80
07F000003FC0
0FE000001FC0
0FE000001FE0
0FE000001FE0
1FC000000FE0
1FC000000FF0
1FC000000FF0
3F80000007F0
3F80000007F8
7F80000007F8
7F00000003F8
7F00000003FC
FF00000003FC
ENDCHAR
STARTCHAR 00C2
ENCODING 194
SWIDTH 664 0
DWIDTH 48 0
BBX 46 68 1 0
BITMAP
00001FE00000
00001FF00000
00003FF00000
00007FF80000
00007EFC0000
0000FC7C0000
0001F83E0000
0001F03F0000
0003E01F0000
0003C00F8000
0007C007C000
000000000000
000000000000
000000000000
000000000000
00001FF00000
00003FF00000
00003FF80000
00003FF80000
00007FF80000
00007FFC0000
00007FFC0000
0000FFFC0000
0000FEFE0000
0000FCFE0000
0001FCFE0000
0001FC7F0000
0001F87F0000
0003F87F0000
0003F83F8000
0003F03F8000
0007F03F8000
0007F01FC000
000FE01FC000
000FE01FC000
000FE00FE000
001FC00FE000
001FC00FF000
001F8007F000
003F8007F000
003F8007F800
003F0003F800
007F0003F800
007F0003FC00
007E0001FC00
00FE0001FC00
00FFFFFFFE00
01FFFFFFFE00
01FFFFFFFE00
01FFFFFFFF00
03FFFFFFFF00
03FFFFFFFF00
03F800007F80
07F000003F80
07F000003F80
07F000003FC0
0FE000001FC0
0FE000001FE0
0FE000001FE0
1FC000000FE0
1FC000000FF0
1FC000000FF0
3F80000007F0
3F80000007F8
7F80000007F8
7F00000003F8
7F00000003FC
FF00000003FC
ENDCHAR
STARTCHAR 00C3
ENCODING 195
SWIDTH 664 0
DWIDTH 48 0
BBX 46 67 1 0
BITMAP
0000F003C000
0001FC03C000
0003FF87C000
0007FFFFC000
0007FFFF8000
000F87FF8000
000F01FF0000
000F007C0000
000000000000
000000000000
000000000000
000000000000
000000000000
000000000000
00001FF00000
00003FF00000
00003FF80000
00003FF80000
00007FF80000
00007FFC0000
00007FFC0000
0000FFFC0000
0000FEFE0000
0000FCFE0000
0001FCFE0000
0001FC7F0000
0001F87F0000
0003F87F0000
0003F83F8000
0003F03F8000
0007F03F8000
0007F01FC000
000FE01FC000
000FE01FC000
000FE00FE000
001FC00FE000
001FC00FF000
001F8007F000
003F8007F000
003F8007F800
003F0003F800
007F0003F800
007F0003FC00
007E0001FC00
00FE0001FC00
00FFFFFFFE00
01FFFFFFFE00
01FFFFFFFE00
01FFFFFFFF00
03FFFFFFFF00
03FFFFFFFF00
03F800007F80
07F000003F80
07F000003F80
07F000003FC0
0FE000001FC0
0FE000001FE0
0FE000001FE0
1FC000000FE0
1FC000000FF0
1FC000000FF0
3F80000007F0
3F80000007F8
7F80000007F8
7F00000003F8
7F00000003FC
FF00000003FC
ENDCHAR
STARTCHAR 00C4
ENCODING 196
SWIDTH 664 0
DWIDTH 48 0
BBX 46 66 1 0
BITMAP
0003F87F8000
0003F87F8000
0003F87F8000
0003F87F8000
0003F87F8000
0003F87F8000
0003F87F8000
000000000000
000000000000
000000000000
000000000000
000000000000
000000000000
00001FF00000
00003FF00000
00003FF80000
00003FF80000
00007FF80000
00007FFC0000
00007FFC0000
0000FFFC0000
0000FEFE0000
0000FCFE0000
0001FCFE0000
0001FC7F0000
0001F87F0000
0003F87F0000
0003F83F8000
0003F03F8000
0007F03F8000
0007F01FC000
000FE01FC000
000FE01FC000
000FE00FE000
001FC00FE000
001FC00FF000
001F8007F000
003F8007F000
003F8007F800
003F0003F800
007F0003F800
007F0003FC00
007E0001FC00
00FE0001FC00
00FFFFFFFE00
01FFFFFFFE00
01FFFFFFFE00
01FFFFFFFF00
03FFFFFFFF00
03FFFFFFFF00
03F800007F80
07F000003F80
07F000003F80
07F000003FC0
0FE000001FC0
0FE000001FE0
0FE000001FE0
1FC000000FE0
1FC000000FF0
1FC000000FF0
3F80000007F0
3F80000007F8
7F80000007F8
7F00000003F8
7F00000003FC
FF00000003FC
ENDCHAR
STARTCHAR 00C5
ENCODING 197
SWIDTH 664 0
DWIDTH 48 0
BBX 46 69 1 0
BITMAP
00000FC00000
00001FF00000
00003FF00000
000078780000
000070380000
0000703C0000
0000703C0000
000078380000
00007C780000
00003FF00000
00001FF00000
00000FC00000
000000000000
000000000000
000000000000
000000000000
00001FF00000
00003FF00000
00003FF80000
00003FF80000
00007FF80000
00007FFC0000
00007FFC0000
0000FFFC0000
0000FEFE0000
0000FCFE0000
0001FCFE0000
0001FC7F0000
0001F87F0000
0003F87F0000
0003F83F8000
0003F03F8000
0007F03F8000
0007F01FC000
000FE01FC000
000FE01FC000
000FE00FE000
001FC00FE000
001FC00FF000
001F8007F000
003F8007F000
003F8007F800
003F0003F800
007F0003F800
007F0003FC00
007E0001FC00
00FE0001FC00
00FFFFFFFE00
01FFFFFFFE00
01FFFFFFFE00
01FFFFFFFF00
03FFFFFFFF00
03FFFFFFFF00
03F800007F80
07F000003F80
07F000003F80
07F000003FC0
0FE000001FC0
0FE000001FE0
0FE000001FE0
1FC000000FE0
1FC000000FF0
1FC000000FF0
3F80000007F0
3F80000007F8
7F80000007F8
7F00000003F8
7F00000003FC
FF00000003FC
ENDCHAR
STARTCHAR 00C6
ENCODING 198
SWIDTH 996 0
DWIDTH 72 0
BBX 68 53 1 0
BITMAP
000007FFFFFFFFFFC0
000007FFFFFFFFFFC0
00000FFFFFFFFFFFC0
00000FFFFFFFFFFFC0
00000FFFFFFFFFFFC0
00001FFFFFFFFFFFC0
00001F807F00000000
00003F807F00000000
00003F807F00000000
00003F007F00000000
00007F007F00000000
00007E007F00000000
0000FE007F00000000
0000FE007F00000000
0001FC007F00000000
0001FC007F00000000
0001F8007F00000000
0003F8007F00000000
0003F8007F00000000
0007F0007F00000000
0007F0007F00000000
0007E0007F00000000
000FE0007F00000000
000FE0007FFFFFFF80
001FC0007FFFFFFF80
001FC0007FFFFFFF80
001F80007FFFFFFF80
003F80007FFFFFFF80
003F80007FFFFFFF80
007F00007F00000000
007F00007F00000000
007FFFFFFF00000000
00FFFFFFFF00000000
00FFFFFFFF00000000
01FFFFFFFF00000000
01FFFFFFFF00000000
01FFFFFFFF00000000
03F800007F00000000
03F800007F00000000
07F000007F00000000
07F000007F00000000
0FF000007F00000000
0FE000007F00000000
0FE000007F00000000
1FC000007F00000000
1FC000007F00000000
3FC000007F00000000
3F8000007FFFFFFFF0
3F8000007FFFFFFFF0
7F8000007FFFFFFFF0
7F0000007FFFFFFFF0
FF0000007FFFFFFFF0
FE0000007FFFFFFFF0
ENDCHAR
STARTCHAR 00C7
ENCODING 199
SWIDTH 720 0
DWIDTH 52 0
BBX 46 69 3 -15
BITMAP
00001FFC0000
0000FFFFC000
0007FFFFF000
000FFFFFF800
003FFFFFFE00
007FFFFFFF00
00FFE007FF00
01FF8001FF80
03FE00007FC0
03FC00003FC0
07F800001FE0
0FF000000FE0
0FE000000FF0
1FE0000007F0
1FC0000007F0
1FC0000003F0
3F80000003F8
3F8000000000
3F0000000000
7F0000000000
7F0000000000
7F0000000000
7F0000000000
7E0000000000
7E0000000000
7E0000000000
7E0000000000
FE0000000000
FE0000000000
FE0000000000
7E0000000000
7E0000000000
7F0000000000
7F0000000000
7F0000000000
7F00000001FC
7F00000001FC
3F80000003FC
3F80000003F8
3F80000003F8
3FC0000003F8
1FC0000007F8
1FE0000007F0
0FE000000FF0
0FF000000FE0
07F800001FE0
07FC00003FC0
03FF00007FC0
01FF8001FF80
00FFF007FF00
007FFFFFFE00
003FFFFFFC00
001FFFFFF800
0007FFFFE000
0001FFFF8000
00001FF80000
000007000000
000007000000
00000FF00000
00000FFC0000
00000FFE0000
0000007E0000
0000003E0000
0000003E0000
0003007E0000
0003E0FC0000
0007FFFC0000
0001FFF00000
00003FC00000
ENDCHAR
STARTCHAR 00C8
ENCODING 200
SWIDTH 664 0
DWIDTH 48 0
BBX 38 68 6 0
BITMAP
007FC00000
001FC00000
000FE00000
0007E00000
0003F00000
0001F80000
0000F80000
00007C0000
00003E0000
00001E0000
00000F0000
0000000000
0000000000
0000000000
0000000000
FFFFFFFFF8
FFFFFFFFF8
FFFFFFFFF8
FFFFFFFFF8
FFFFFFFFF8
FFFFFFFFF8
FE00000000
FE00000000
FE00000000
FE00000000
FE00000000
FE00000000
FE00000000
FE00000000
FE00000000
FE00000000
FE00000000
FE00000000
FE00000000
FE00000000
FE00000000
FE00000000
FE00000000
FFFFFFFFF0
FFFFFFFFF0
FFFFFFFFF0
FFFFFFFFF0
FFFFFFFFF0
FFFFFFFFF0
FE00000000
FE00000000
FE00000000
FE00000000
FE00000000
FE00000000
FE00000000
FE00000000
FE00000000
FE00000000
FE00000000
FE00000000
FE00000000
FE00000000
FE00000000
FE00000000
FE00000000
FE00000000
FFFFFFFFFC
FFFFFFFFFC
FFFFFFFFFC
FFFFFFFFFC
FFFFFFFFFC
FFFFFFFFFC
ENDCHAR
STARTCHAR 00C9
ENCODING 201
SWIDTH 664 0
DWIDTH 48 0
BBX 38 68 6 0
BITMAP
00000FF000
00001FE000
00001FC000
00003F8000
00007F0000
00007E0000
0000FC0000
0001F80000
0001F00000
0003E00000
0007C00000
0000000000
0000000000
0000000000
0000000000
FFFFFFFFF8
FFFFFFFFF8
FFFFFFFFF8
FFFFFFFFF8
FFFFFFFFF8
FFFFFFFFF8
FE00000000
FE00000000
FE00000000
FE00000000
FE00000000
FE00000000
FE00000000
FE00000000
FE00000000
FE00000000
FE00000000
FE00000000
FE00000000
FE00000000
FE00000000
FE00000000
FE00000000
FFFFFFFFF0
FFFFFFFFF0
FFFFFFFFF0
FFFFFFFFF0
FFFFFFFFF0
FFFFFFFFF0
FE00000000
FE00000000
FE00000000
FE00000000
FE00000000
FE00000000
FE00000000
FE00000000
FE00000000
FE00000000
FE00000000
FE00000000
FE00000000
FE00000000
FE00000000
FE00000000
FE00000000
FE00000000
FFFFFFFFFC
FFFFFFFFFC
FFFFFFFFFC
FFFFFFFFFC
FFFFFFFFFC
FFFFFFFFFC
ENDCHAR
STARTCHAR 00CA
ENCODING 202
SWIDTH 664 0
DWIDTH 48 0
BBX 38 68 6 0
BITMAP
0001FE0000
0003FE0000
0003FF0000
0007FF8000
000FCF8000
000F8FC000
001F87E000
001F03E000
003E01F000
007C00F800
0078007800
0000000000
0000000000
0000000000
0000000000
FFFFFFFFF8
FFFFFFFFF8
FFFFFFFFF8
FFFFFFFFF8
FFFFFFFFF8
FFFFFFFFF8
FE00000000
FE00000000
FE00000000
FE00000000
FE00000000
FE00000000
FE00000000
FE00000000
FE00000000
FE00000000
FE00000000
FE00000000
FE00000000
FE00000000
FE00000000
FE00000000
FE00000000
FFFFFFFFF0
FFFFFFFFF0
FFFFFFFFF0
FFFFFFFFF0
FFFFFFFFF0
FFFFFFFFF0
FE00000000
FE00000000
FE00000000
FE00000000
FE00000000
FE00000000
FE00000000
FE00000000
FE00000000
FE00000000
FE00000000
FE00000000
FE00000000
FE00000000
FE00000000
FE00000000
FE00000000
FE00000000
FFFFFFFFFC
FFFFFFFFFC
FFFFFFFFFC
FFFFFFFFFC
FFFFFFFFFC
FFFFFFFFFC
ENDCHAR
STARTCHAR 00CB
ENCODING 203
SWIDTH 664 0
DWIDTH 48 0
BBX 38 66 6 0
BITMAP
007F87F000
007F87F000
007F87F000
007F87F000
007F87F000
007F87F000
007F87F000
0000000000
0000000000
0000000000
0000000000
0000000000
0000000000
FFFFFFFFF8
FFFFFFFFF8
FFFFFFFFF8
FFFFFFFFF8
FFFFFFFFF8
FFFFFFFFF8
FE00000000
FE00000000
FE00000000
FE00000000
FE00000000
FE00000000
FE00000000
FE00000000
FE00000000
FE00000000
FE00000000
FE00000000
FE00000000
FE00000000
FE00000000
FE00000000
FE00000000
FFFFFFFFF0
FFFFFFFFF0
FFFFFFFFF0
FFFFFFFFF0
FFFFFFFFF0
FFFFFFFFF0
FE00000000
FE00000000
FE00000000
FE00000000
FE00000000
FE00000000
FE00000000
FE00000000
FE00000000
FE00000000
FE00000000
FE00000000
FE00000000
FE00000000
FE00000000
FE00000000
FE00000000
FE00000000
FFFFFFFFFC
FFFFFFFFFC
FFFFFFFFFC
FFFFFFFFFC
FFFFFFFFFC
FFFFFFFFFC
ENDCHAR
STARTCHAR 00CC
ENCODING 204
SWIDTH 276 0
DWIDTH 20 0
BBX 14 68 1 0
BITMAP
FF00
7F00
3F80
1FC0
0FC0
07E0
03F0
01F0
00F8
007C
003C
0000
0000
0000
0000
03F8
03F8
03F8
03F8
03F8
03F8
03F8
03F8
03F8
03F8
03F8
03F8
03F8
03F8
03F8
03F8
03F8
03F8
03F8
03F8
03F8
03F8
03F8
03F8
03F8
03F8
03F8
03F8
03F8
03F8
03F8
03F8
03F8
03F8
03F8
03F8
03F8
03F8
03F8
03F8
03F8
03F8
03F8
03F8
03F8
03F8
03F8
03F8
03F8
03F8
03F8
03F8
03F8
ENDCHAR
STARTCHAR 00CD
ENCODING 205
SWIDTH 276 0
DWIDTH 20 0
BBX 15 68 5 0
BITMAP
01FE
03FC
07F8
07F0
0FE0
1FC0
1F80
3F00
7C00
7800
F000
0000
0000
0000
0000
3F80
3F80
3F80
3F80
3F80
3F80
3F80
3F80
3F80
3F80
3F80
3F80
3F80
3F80
3F80
3F80
3F80
3F80
3F80
3F80
3F80
3F80
3F80
3F80
3F80
3F80
3F80
3F80
3F80
3F80
3F80
3F80
3F80
3F80
3F80
3F80
3F80
3F80
3F80
3F80
3F80
3F80
3F80
3F80
3F80
3F80
3F80
3F80
3F80
3F80
3F80
3F80
3F80
ENDCHAR
STARTCHAR 00CE
ENCODING 206
SWIDTH 276 0
DWIDTH 20 0
BBX 21 68 0 0
BITMAP
03FC00
03FE00
07FE00
0FFF00
0FDF80
1F8F80
1F07C0
3E07E0
7C03E0
7801F0
F800F8
000000
000000
000000
000000
01FC00
01FC00
01FC00
01FC00
01FC00
01FC00
01FC00
01FC00
01FC00
01FC00
01FC00
01FC00
01FC00
01FC00
01FC00
01FC00
01FC00
01FC00
01FC00
01FC00
01FC00
01FC00
01FC00
01FC00
01FC00
01FC00
01FC00
01FC00
01FC00
01FC00
01FC00
01FC00
01FC00
01FC00
01FC00
01FC00
01FC00
01FC00
01FC00
01FC00
01FC00
01FC00
01FC00
01FC00
01FC00
01FC00
01FC00
01FC00
01FC00
01FC00
01FC00
01FC00
01FC00
ENDCHAR
STARTCHAR 00CF
ENCODING 207
SWIDTH 276 0
DWIDTH 20 0
BBX 19 66 1 0
BITMAP
FE1FE0
FE1FE0
FE1FE0
FE1FE0
FE1FE0
FE1FE0
FE1FE0
000000
000000
000000
000000
000000
000000
03F800
03F800
03F800
03F800
03F800
03F800
03F800
03F800
03F800
03F800
03F800
03F800
03F800
03F800
03F800
03F800
03F800
03F800
03F800
03F800
03F800
03F800
03F800
03F800
03F800
03F800
03F800
03F800
03F800
03F800
03F800
03F800
03F800
03F800
03F800
03F800
03F800
03F800
03F800
03F800
03F800
03F800
03F800
03F800
03F800
03F800
03F800
03F800
03F800
03F800
03F800
03F800
03F800
ENDCHAR
STARTCHAR 00D0
ENCODING 208
SWIDTH 720 0
DWIDTH 52 0
BBX 47 53 1 0
BITMAP
07FFFFFE0000
07FFFFFFC000
07FFFFFFF000
07FFFFFFFC00
07FFFFFFFE00
07FFFFFFFF00
07F00007FF80
07F00000FFC0
07F000003FE0
07F000001FE0
07F000000FF0
07F0000007F0
07F0000007F8
07F0000003F8
07F0000003FC
07F0000001FC
07F0000001FC
07F0000000FC
07F0000000FE
07F0000000FE
07F0000000FE
07F0000000FE
07F0000000FE
FFFFFF0000FE
FFFFFF0000FE
FFFFFF0000FE
FFFFFF0000FE
FFFFFF0000FE
07F0000000FE
07F0000000FE
07F0000000FE
07F0000000FE
07F0000000FE
07F0000000FE
07F0000000FC
07F0000001FC
07F0000001FC
07F0000001FC
07F0000003F8
07F0000003F8
07F0000007F8
07F0000007F0
07F000000FF0
07F000001FE0
07F000003FC0
07F00000FFC0
07F00007FF80
07FFFFFFFF00
07FFFFFFFE00
07FFFFFFFC00
07FFFFFFF000
07FFFFFFC000
07FFFFFE0000
ENDCHAR
STARTCHAR 00D1
ENCODING 209
SWIDTH 720 0
DWIDTH 52 0
BBX 42 67 5 0
BITMAP
0001E0078000
0007F80F8000
000FFE0F0000
000FFFFF0000
001FFFFF0000
001F1FFE0000
003E07FC0000
003C00F00000
000000000000
000000000000
000000000000
000000000000
000000000000
000000000000
FF0000001FC0
FF8000001FC0
FF8000001FC0
FFC000001FC0
FFE000001FC0
FFE000001FC0
FFF000001FC0
FFF800001FC0
FFF800001FC0
FFFC00001FC0
FFFC00001FC0
FEFE00001FC0
FEFF00001FC0
FE7F00001FC0
FE3F80001FC0
FE3FC0001FC0
FE1FC0001FC0
FE0FE0001FC0
FE0FF0001FC0
FE07F0001FC0
FE07F8001FC0
FE03F8001FC0
FE01FC001FC0
FE01FE001FC0
FE00FE001FC0
FE007F001FC0
FE007F801FC0
FE003F801FC0
FE003FC01FC0
FE001FE01FC0
FE000FE01FC0
FE000FF01FC0
FE0007F01FC0
FE0003F81FC0
FE0003FC1FC0
FE0001FC1FC0
FE0000FE1FC0
FE0000FF1FC0
FE00007F1FC0
FE00007F9FC0
FE00003FDFC0
FE00001FDFC0
FE00001FFFC0
FE00000FFFC0
FE000007FFC0
FE000007FFC0
FE000003FFC0
FE000003FFC0
FE000001FFC0
FE000000FFC0
FE000000FFC0
FE0000007FC0
FE0000003FC0
ENDCHAR
STARTCHAR 00D2
ENCODING 210
SWIDTH 775 0
DWIDTH 56 0
BBX 51 70 3 -2
BITMAP
0001FE00000000
00007F00000000
00003F80000000
00001F80000000
00000FC0000000
000007E0000000
000003E0000000
000001F0000000
000000F8000000
00000078000000
00000000000000
00000000000000
00000000000000
00000000000000
00000FFE000000
0000FFFFC00000
0003FFFFF80000
000FFFFFFE0000
003FFFFFFF0000
007FFFFFFF8000
00FFF003FFE000
01FF80007FE000
03FF00001FF000
07FC00000FF800
07F8000007FC00
0FF0000003FC00
1FE0000001FE00
1FC0000000FF00
3FC00000007F00
3F800000007F00
3F800000003F80
7F000000003F80
7F000000003F80
7F000000001FC0
7E000000001FC0
FE000000001FC0
FE000000001FC0
FE000000000FC0
FE000000000FC0
FE000000000FE0
FE000000000FE0
FC000000000FE0
FC000000000FE0
FE000000000FE0
FE000000000FE0
FE000000000FC0
FE000000000FC0
FE000000001FC0
FE000000001FC0
FE000000001FC0
7F000000001FC0
7F000000003F80
7F000000003F80
3F800000003F80
3F800000007F00
3FC00000007F00
1FE0000000FE00
1FE0000001FE00
0FF0000003FC00
07F8000007FC00
07FC00000FF800
03FF00001FF000
01FFC0007FE000
00FFF803FFE000
007FFFFFFF8000
003FFFFFFF0000
000FFFFFFE0000
0003FFFFF80000
0000FFFFC00000
00000FFC000000
ENDCHAR
STARTCHAR 00D3
ENCODING 211
SWIDTH 775 0
DWIDTH 56 0
BBX 51 70 3 -2
BITMAP
0000001FE00000
0000003FC00000
0000007F800000
0000007F000000
000000FE000000
000001F8000000
000001F0000000
000003E0000000
000007C0000000
00000780000000
00000000000000
00000000000000
00000000000000
00000000000000
00000FFE000000
0000FFFFC00000
0003FFFFF80000
000FFFFFFE0000
003FFFFFFF0000
007FFFFFFF8000
00FFF003FFE000
01FF80007FE000
03FF00001FF000
07FC00000FF800
07F8000007FC00
0FF0000003FC00
1FE0000001FE00
1FC0000000FF00
3FC00000007F00
3F800000007F00
3F800000003F80
7F000000003F80
7F000000003F80
7F000000001FC0
7E000000001FC0
FE000000001FC0
FE000000001FC0
FE000000000FC0
FE000000000FC0
FE000000000FE0
FE000000000FE0
FC000000000FE0
FC000000000FE0
FE000000000FE0
FE000000000FE0
FE000000000FC0
FE000000000FC0
FE000000001FC0
FE000000001FC0
FE000000001FC0
7F000000001FC0
7F000000003F80
7F000000003F80
3F800000003F80
3F800000007F00
3FC00000007F00
1FE0000000FE00
1FE0000001FE00
0FF0000003FC00
07F8000007FC00
07FC00000FF800
03FF00001FF000
01FFC0007FE000
00FFF803FFE000
007FFFFFFF8000
003FFFFFFF0000
000FFFFFFE0000
0003FFFFF80000
0000FFFFC00000
00000FFC000000
ENDCHAR
STARTCHAR 00D4
ENCODING 212
SWIDTH 775 0
DWIDTH 56 0
BBX 51 70 3 -2
BITMAP
000007F8000000
000007FC000000
00000FFC000000
00001FFE000000
00001F3F000000
00003F1F000000
00007E0F800000
00007C0FC00000
0000F807C00000
0001F003E00000
00000000000000
00000000000000
00000000000000
00000000000000
00000FFE000000
0000FFFFC00000
0003FFFFF80000
000FFFFFFE0000
003FFFFFFF0000
007FFFFFFF8000
00FFF003FFE000
01FF80007FE000
03FF00001FF000
07FC00000FF800
07F8000007FC00
0FF0000003FC00
1FE0000001FE00
1FC0000000FF00
3FC00000007F00
3F800000007F00
3F800000003F80
7F000000003F80
7F000000003F80
7F000000001FC0
7E000000001FC0
FE000000001FC0
FE000000001FC0
FE000000000FC0
FE000000000FC0
FE000000000FE0
FE000000000FE0
FC000000000FE0
FC000000000FE0
FE000000000FE0
FE000000000FE0
FE000000000FC0
FE000000000FC0
FE000000001FC0
FE000000001FC0
FE000000001FC0
7F000000001FC0
7F000000003F80
7F000000003F80
3F800000003F80
3F800000007F00
3FC00000007F00
1FE0000000FE00
1FE0000001FE00
0FF0000003FC00
07F8000007FC00
07FC00000FF800
03FF00001FF000
01FFC0007FE000
00FFF803FFE000
007FFFFFFF8000
003FFFFFFF0000
000FFFFFFE0000
0003FFFFF80000
0000FFFFC00000
00000FFC000000
ENDCHAR
STARTCHAR 00D5
ENCODING 213
SWIDTH 775 0
DWIDTH 56 0
BBX 51 69 3 -2
BITMAP
00001C00780000
00007F80F80000
0000FFE1F00000
0001FFFFF00000
0001FFFFE00000
0001E1FFE00000
0003E07FC00000
0003C00F000000
00000000000000
00000000000000
00000000000000
00000000000000
00000000000000
00000FFE000000
0000FFFFC00000
0003FFFFF80000
000FFFFFFE0000
003FFFFFFF0000
007FFFFFFF8000
00FFF003FFE000
01FF80007FE000
03FF00001FF000
07FC00000FF800
07F8000007FC00
0FF0000003FC00
1FE0000001FE00
1FC0000000FF00
3FC00000007F00
3F800000007F00
3F800000003F80
7F000000003F80
7F000000003F80
7F000000001FC0
7E000000001FC0
FE000000001FC0
FE000000001FC0
FE000000000FC0
FE000000000FC0
FE000000000FE0
FE000000000FE0
FC000000000FE0
FC000000000FE0
FE000000000FE0
FE000000000FE0
FE000000000FC0
FE000000000FC0
FE000000001FC0
FE000000001FC0
FE000000001FC0
7F000000001FC0
7F000000003F80
7F000000003F80
3F800000003F80
3F800000007F00
3FC00000007F00
1FE0000000FE00
1FE0000001FE00
0FF0000003FC00
07F8000007FC00
07FC00000FF800
03FF00001FF000
01FFC0007FE000
00FFF803FFE000
007FFFFFFF8000
003FFFFFFF0000
000FFFFFFE0000
0003FFFFF80000
0000FFFFC00000
00000FFC000000
ENDCHAR
STARTCHAR 00D6
ENCODING 214
SWIDTH 775 0
DWIDTH 56 0
BBX 51 68 3 -2
BITMAP
0000FE1FE00000
0000FE1FE00000
0000FE1FE00000
0000FE1FE00000
0000FE1FE00000
0000FE1FE00000
0000FE1FE00000
00000000000000
00000000000000
00000000000000
00000000000000
00000000000000
00000FFE000000
0000FFFFC00000
0003FFFFF80000
000FFFFFFE0000
003FFFFFFF0000
007FFFFFFF8000
00FFF003FFE000
01FF80007FE000
03FF00001FF000
07FC00000FF800
07F8000007FC00
0FF0000003FC00
1FE0000001FE00
1FC0000000FF00
3FC00000007F00
3F800000007F00
3F800000003F80
7F000000003F80
7F000000003F80
7F000000001FC0
7E000000001FC0
FE000000001FC0
FE000000001FC0
FE000000000FC0
FE000000000FC0
FE000000000FE0
FE000000000FE0
FC000000000FE0
FC000000000FE0
FE000000000FE0
FE000000000FE0
FE000000000FC0
FE000000000FC0
FE000000001FC0
FE000000001FC0
FE000000001FC0
7F000000001FC0
7F000000003F80
7F000000003F80
3F800000003F80
3F800000007F00
3FC00000007F00
1FE0000000FE00
1FE0000001FE00
0FF0000003FC00
07F8000007FC00
07FC00000FF800
03FF00001FF000
01FFC0007FE000
00FFF803FFE000
007FFFFFFF8000
003FFFFFFF0000
000FFFFFFE0000
0003FFFFF80000
0000FFFFC00000
00000FFC000000
ENDCHAR
STARTCHAR 00D7
ENCODING 215
SWIDTH 581 0
DWIDTH 42 0
BBX 28 28 7 2
BITMAP
10000080
380001C0
7C0003E0
FE0007F0
7F000FE0
3F801FC0
1FC03F80
0FE07F00
07F0FE00
03F9FC00
01FFF800
00FFF000
007FE000
003FC000
003FC000
007FE000
00FFF000
01FFF800
03F9FC00
07F0FE00
0FE07F00
1FC03F80
3F801FC0
7F000FE0
FE0007F0
FC0003F0
780001E0
300000C0
ENDCHAR
STARTCHAR 00D8
ENCODING 216
SWIDTH 775 0
DWIDTH 56 0
BBX 51 57 3 -2
BITMAP
00000000000100
00000FFC0003C0
0000FFFFC003E0
0003FFFFF807C0
000FFFFFFC0F80
003FFFFFFF1F00
007FFFFFFFBE00
00FFF003FFFC00
01FF8000FFF800
03FE00003FF000
07FC00000FF800
0FF8000007FC00
0FF0000007FC00
1FE000000FFE00
1FC000001FFE00
3FC000003EFF00
3F8000007C7F00
7F800000F87F80
7F000001F03F80
7F000003E03F80
7E000007E03F80
FE00000FC01FC0
FE00000F801FC0
FE00001F001FC0
FE00003E001FC0
FC00007C001FC0
FC0000F8000FC0
FC0001F0000FC0
FC0003E0000FC0
FC0007C0000FC0
FC000FC0000FC0
FC001F80000FC0
FC001F00000FC0
FE003E00001FC0
FE007C00001FC0
FE00F800001FC0
FE01F000001FC0
7E03E000001F80
7F07C000003F80
7F0F8000003F80
7F9F8000007F80
3FBF0000007F00
3FFE000000FF00
1FFC000000FE00
1FF8000001FE00
0FF0000003FC00
0FF8000007FC00
07FC00000FF800
0FFF00001FF000
1FFF80007FE000
3FFFF003FFC000
7E7FFFFFFF8000
FC3FFFFFFF0000
F81FFFFFFC0000
F007FFFFF00000
6000FFFFC00000
00001FFC000000
ENDCHAR
STARTCHAR 00D9
ENCODING 217
SWIDTH 720 0
DWIDTH 52 0
BBX 41 70 6 -2
BITMAP
003FC0000000
000FE0000000
0007F0000000
0003F0000000
0001F8000000
0000FC000000
00007C000000
00003E000000
00001F000000
00000F000000
000007800000
000000000000
000000000000
000000000000
000000000000
FE0000003F80
FE0000003F80
FE0000003F80
FE0000003F80
FE0000003F80
FE0000003F80
FE0000003F80
FE0000003F80
FE0000003F80
FE0000003F80
FE0000003F80
FE0000003F80
FE0000003F80
FE0000003F80
FE0000003F80
FE0000003F80
FE0000003F80
FE0000003F80
FE0000003F80
FE0000003F80
FE0000003F80
FE0000003F80
FE0000003F80
FE0000003F80
FE0000003F80
FE0000003F80
FE0000003F80
FE0000003F80
FE0000003F80
FE0000003F80
FE0000003F80
FE0000003F80
FE0000003F80
FE0000003F80
FE0000003F80
FE0000003F80
FE0000003F80
FE0000003F80
FE0000003F80
FE0000003F80
FE0000003F00
7F0000007F00
7F0000007F00
7F000000FF00
7F800000FE00
3FC00001FE00
3FE00003FC00
1FF8000FFC00
0FFF007FF800
07FFFFFFF000
03FFFFFFE000
01FFFFFF8000
007FFFFF0000
001FFFF80000
0001FFC00000
ENDCHAR
STARTCHAR 00DA
ENCODING 218
SWIDTH 720 0
DWIDTH 52 0
BBX 41 70 6 -2
BITMAP
000003FC0000
000007F00000
00000FE00000
00000FC00000
00001F800000
00003F000000
00003E000000
00007C000000
0000F8000000
0000F0000000
0001E0000000
000000000000
000000000000
000000000000
000000000000
FE0000003F80
FE0000003F80
FE0000003F80
FE0000003F80
FE0000003F80
FE0000003F80
FE0000003F80
FE0000003F80
FE0000003F80
FE0000003F80
FE0000003F80
FE0000003F80
FE0000003F80
FE0000003F80
FE0000003F80
FE0000003F80
FE0000003F80
FE0000003F80
FE0000003F80
FE0000003F80
FE0000003F80
FE0000003F80
FE0000003F80
FE0000003F80
FE0000003F80
FE0000003F80
FE0000003F80
FE0000003F80
FE0000003F80
FE0000003F80
FE0000003F80
FE0000003F80
FE0000003F80
FE0000003F80
FE0000003F80
FE0000003F80
FE0000003F80
FE0000003F80
FE0000003F80
FE0000003F80
FE0000003F00
7F0000007F00
7F0000007F00
7F000000FF00
7F800000FE00
3FC00001FE00
3FE00003FC00
1FF8000FFC00
0FFF007FF800
07FFFFFFF000
03FFFFFFE000
01FFFFFF8000
007FFFFF0000
001FFFF80000
0001FFC00000
ENDCHAR
STARTCHAR 00DB
ENCODING 219
SWIDTH 720 0
DWIDTH 52 0
BBX 41 70 6 -2
BITMAP
0000FF000000
0000FF800000
0001FFC00000
0001FFC00000
0003F7E00000
0007E3E00000
0007C1F00000
000F80F80000
001F00F80000
001F007C0000
003E003E0000
000000000000
000000000000
000000000000
000000000000
FE0000003F80
FE0000003F80
FE0000003F80
FE0000003F80
FE0000003F80
FE0000003F80
FE0000003F80
FE0000003F80
FE0000003F80
FE0000003F80
FE0000003F80
FE0000003F80
FE0000003F80
FE0000003F80
FE0000003F80
FE0000003F80
FE0000003F80
FE0000003F80
FE0000003F80
FE0000003F80
FE0000003F80
FE0000003F80
FE0000003F80
FE0000003F80
FE0000003F80
FE0000003F80
FE0000003F80
FE0000003F80
FE0000003F80
FE0000003F80
FE0000003F80
FE0000003F80
FE0000003F80
FE0000003F80
FE0000003F80
FE0000003F80
FE0000003F80
FE0000003F80
FE0000003F80
FE0000003F80
FE0000003F00
7F0000007F00
7F0000007F00
7F000000FF00
7F800000FE00
3FC00001FE00
3FE00003FC00
1FF8000FFC00
0FFF007FF800
07FFFFFFF000
03FFFFFFE000
01FFFFFF8000
007FFFFF0000
001FFFF80000
0001FFC00000
ENDCHAR
STARTCHAR 00DC
ENCODING 220
SWIDTH 720 0
DWIDTH 52 0
BBX 41 68 6 -2
BITMAP
001FC3FC0000
001FC3FC0000
001FC3FC0000
001FC3FC0000
001FC3FC0000
001FC3FC0000
001FC3FC0000
000000000000
000000000000
000000000000
000000000000
000000000000
000000000000
FE0000003F80
FE0000003F80
FE0000003F80
FE0000003F80
FE0000003F80
FE0000003F80
FE0000003F80
FE0000003F80
FE0000003F80
FE0000003F80
FE0000003F80
FE0000003F80
FE0000003F80
FE0000003F80
FE0000003F80
FE0000003F80
FE0000003F80
FE0000003F80
FE0000003F80
FE0000003F80
FE0000003F80
FE0000003F80
FE0000003F80
FE0000003F80
FE0000003F80
FE0000003F80
FE0000003F80
FE0000003F80
FE0000003F80
FE0000003F80
FE0000003F80
FE0000003F80
FE0000003F80
FE0000003F80
FE0000003F80
FE0000003F80
FE0000003F80
FE0000003F80
FE0000003F80
FE0000003F80
FE0000003F00
7F0000007F00
7F0000007F00
7F000000FF00
7F800000FE00
3FC00001FE00
3FE00003FC00
1FF8000FFC00
0FFF007FF800
07FFFFFFF000
03FFFFFFE000
01FFFFFF8000
007FFFFF0000
001FFFF80000
0001FFC00000
ENDCHAR
STARTCHAR 00DD
ENCODING 221
SWIDTH 664 0
DWIDTH 48 0
BBX 46 68 1 0
BITMAP
0000007F8000
000000FF0000
000000FE0000
000001FC0000
000003F80000
000003F00000
000007E00000
00000FC00000
00000F800000
00001F000000
00003E000000
000000000000
000000000000
000000000000
000000000000
FF80000003FC
7F80000003FC
7FC0000007F8
3FC0000007F8
1FE000000FF0
1FF000001FE0
0FF000001FE0
07F800003FC0
07F800003F80
03FC00007F80
01FE00007F00
01FE0000FF00
00FF0001FE00
00FF0001FC00
007F8003FC00
003F8003F800
003FC007F800
001FE00FF000
000FE00FE000
000FF01FE000
0007F01FC000
0007F83F8000
0003FC3F8000
0001FC7F0000
0001FEFF0000
0000FEFE0000
00007FFC0000
00007FFC0000
00003FF80000
00003FF80000
00001FF00000
00000FE00000
00000FE00000
00000FE00000
00000FE00000
00000FE00000
00000FE00000
00000FE00000
00000FE00000
00000FE00000
00000FE00000
00000FE00000
00000FE00000
00000FE00000
00000FE00000
00000FE00000
00000FE00000
00000FE00000
00000FE00000
00000FE00000
00000FE00000
00000FE00000
00000FE00000
ENDCHAR
STARTCHAR 00DE
ENCODING 222
SWIDTH 664 0
DWIDTH 48 0
BBX 37 53 7 0
BITMAP
FC00000000
FC00000000
FC00000000
FC00000000
FC00000000
FC00000000
FC00000000
FC00000000
FC00000000
FFFFFFC000
FFFFFFF800
FFFFFFFE00
FFFFFFFF80
FFFFFFFFC0
FFFFFFFFE0
FC0000FFE0
FC00003FF0
FC00000FF0
FC000007F8
FC000007F8
FC000003F8
FC000003F8
FC000003F8
FC000003F8
FC000003F8
FC000003F8
FC000003F8
FC000003F8
FC000007F8
FC000007F8
FC00000FF0
FC00001FF0
FC0000FFE0
FFFFFFFFE0
FFFFFFFFC0
FFFFFFFF80
FFFFFFFE00
FFFFFFFC00
FFFFFFE000
FC00000000
FC00000000
FC00000000
FC00000000
FC00000000
FC00000000
FC00000000
FC00000000
FC00000000
FC00000000
FC00000000
FC00000000
FC00000000
FC00000000
ENDCHAR
STARTCHAR 00DF
ENCODING 223
SWIDTH 609 0
DWIDTH 44 0
BBX 35 54 5 -1
BITMAP
000FFC0000
007FFF8000
01FFFFE000
07FFFFF000
0FFFFFF800
1FFFFFFC00
3FE007FE00
7F8001FE00
7F0000FF00
7E00007F00
FE00003F00
FC00003F00
FC00003F80
FC00003F80
FC00003F80
FC00003F00
FC00003F00
FC00007F00
FC0000FE00
FC0001FC00
FC0007F800
FC003FF000
FC01FFC000
FC01FF0000
FC01FFC000
FC01FFF000
FC01FFFC00
FC003FFE00
FC0001FF00
FC00007F80
FC00003FC0
FC00001FC0
FC00000FE0
FC00000FE0
FC00000FE0
FC000007E0
FC000007E0
FC000007E0
FC000007E0
FC000007E0
FC00000FE0
FC00000FE0
FC00000FC0
FC00001FC0
FC00003FC0
FC00007F80
FC0001FF80
FC0007FF00
FC03FFFE00
FC03FFFC00
FC03FFF800
FC03FFE000
FC03FF8000
0003FC0000
ENDCHAR
STARTCHAR 00E0
ENCODING 224
SWIDTH 553 0
DWIDTH 40 0
BBX 36 56 3 -2
BITMAP
01FE000000
00FF000000
007F800000
003F800000
001FC00000
000FE00000
0007E00000
0003F00000
0001F00000
0000F80000
00007C0000
0000000000
0000000000
0000000000
0000000000
000FFC0000
007FFFC000
01FFFFE000
07FFFFF800
0FFFFFF800
0FFFFFFC00
1FE003FC00
3FC001FE00
3F8000FE00
3F80007E00
3F00007E00
3F00007E00
0000007E00
0000007E00
0000007E00
000000FE00
000003FE00
0000FFFE00
003FFFFE00
01FFFFFE00
07FFFFFE00
1FFFFC7E00
3FFF007E00
3FE0007E00
7F80007E00
7F00007E00
FE00007E00
FE00007E00
FC00007E00
FC00007E00
FC0000FE00
FE0000FE00
FE0003FE00
7F0007FE00
7F800FFE00
7FF0FFFF00
3FFFFF7FF0
1FFFFE3FF0
0FFFF83FF0
03FFE01FF0
00FF800FE0
ENDCHAR
STARTCHAR 00E1
ENCODING 225
SWIDTH 553 0
DWIDTH 40 0
BBX 36 56 3 -2
BITMAP
00001FE000
00003FC000
00007F8000
00007F0000
0000FE0000
0001FC0000
0001F80000
0003F00000
0003E00000
0007C00000
000F800000
0000000000
0000000000
0000000000
0000000000
000FFC0000
007FFFC000
01FFFFE000
07FFFFF800
0FFFFFF800
0FFFFFFC00
1FE003FC00
3FC001FE00
3F8000FE00
3F80007E00
3F00007E00
3F00007E00
0000007E00
0000007E00
0000007E00
000000FE00
000003FE00
0000FFFE00
003FFFFE00
01FFFFFE00
07FFFFFE00
1FFFFC7E00
3FFF007E00
3FE0007E00
7F80007E00
7F00007E00
FE00007E00
FE00007E00
FC00007E00
FC00007E00
FC0000FE00
FE0000FE00
FE0003FE00
7F0007FE00
7F800FFE00
7FF0FFFF00
3FFFFF7FF0
1FFFFE3FF0
0FFFF83FF0
03FFE01FF0
00FF800FE0
ENDCHAR
STARTCHAR 00E2
ENCODING 226
SWIDTH 553 0
DWIDTH 40 0
BBX 36 56 3 -2
BITMAP
0007F80000
0007F80000
000FFC0000
001FFC0000
001F7E0000
003F3F0000
007E1F0000
007C0F8000
00F80FC000
00F007C000
01F003E000
0000000000
0000000000
0000000000
0000000000
000FFC0000
007FFFC000
01FFFFE000
07FFFFF800
0FFFFFF800
0FFFFFFC00
1FE003FC00
3FC001FE00
3F8000FE00
3F80007E00
3F00007E00
3F00007E00
0000007E00
0000007E00
0000007E00
000000FE00
000003FE00
0000FFFE00
003FFFFE00
01FFFFFE00
07FFFFFE00
1FFFFC7E00
3FFF007E00
3FE0007E00
7F80007E00
7F00007E00
FE00007E00
FE00007E00
FC00007E00
FC00007E00
FC0000FE00
FE0000FE00
FE0003FE00
7F0007FE00
7F800FFE00
7FF0FFFF00
3FFFFF7FF0
1FFFFE3FF0
0FFFF83FF0
03FFE01FF0
00FF800FE0
ENDCHAR
STARTCHAR 00E3
ENCODING 227
SWIDTH 553 0
DWIDTH 40 0
BBX 36 54 3 -2
BITMAP
003C00F000
00FF00F000
01FFE1F000
01FFFFE000
03FFFFE000
03E1FFC000
03C07F8000
00001E0000
0000000000
0000000000
0000000000
0000000000
0000000000
000FFC0000
007FFFC000
01FFFFE000
07FFFFF800
0FFFFFF800
0FFFFFFC00
1FE003FC00
3FC001FE00
3F8000FE00
3F80007E00
3F00007E00
3F00007E00
0000007E00
0000007E00
0000007E00
000000FE00
000003FE00
0000FFFE00
003FFFFE00
01FFFFFE00
07FFFFFE00
1FFFFC7E00
3FFF007E00
3FE0007E00
7F80007E00
7F00007E00
FE00007E00
FE00007E00
FC00007E00
FC00007E00
FC0000FE00
FE0000FE00
FE0003FE00
7F0007FE00
7F800FFE00
7FF0FFFF00
3FFFFF7FF0
1FFFFE3FF0
0FFFF83FF0
03FFE01FF0
00FF800FE0
ENDCHAR
STARTCHAR 00E4
ENCODING 228
SWIDTH 553 0
DWIDTH 40 0
BBX 36 54 3 -2
BITMAP
01FE1FC000
01FE1FC000
01FE1FC000
01FE1FC000
01FE1FC000
01FE1FC000
01FE1FC000
0000000000
0000000000
0000000000
0000000000
0000000000
0000000000
000FFC0000
007FFFC000
01FFFFE000
07FFFFF800
0FFFFFF800
0FFFFFFC00
1FE003FC00
3FC001FE00
3F8000FE00
3F80007E00
3F00007E00
3F00007E00
0000007E00
0000007E00
0000007E00
000000FE00
000003FE00
0000FFFE00
003FFFFE00
01FFFFFE00
07FFFFFE00
1FFFFC7E00
3FFF007E00
3FE0007E00
7F80007E00
7F00007E00
FE00007E00
FE00007E00
FC00007E00
FC00007E00
FC0000FE00
FE0000FE00
FE0003FE00
7F0007FE00
7F800FFE00
7FF0FFFF00
3FFFFF7FF0
1FFFFE3FF0
0FFFF83FF0
03FFE01FF0
00FF800FE0
ENDCHAR
STARTCHAR 00E5
ENCODING 229
SWIDTH 553 0
DWIDTH 40 0
BBX 36 56 3 -2
BITMAP
0003F00000
0007F80000
000FFC0000
001E1E0000
001C0E0000
001C0E0000
001C0E0000
001C0E0000
001E1E0000
000FFC0000
0007F80000
0003F00000
0000000000
0000000000
0000000000
000FFC0000
007FFFC000
01FFFFE000
07FFFFF800
0FFFFFF800
0FFFFFFC00
1FE003FC00
3FC001FE00
3F8000FE00
3F80007E00
3F00007E00
3F00007E00
0000007E00
0000007E00
0000007E00
000000FE00
000003FE00
0000FFFE00
003FFFFE00
01FFFFFE00
07FFFFFE00
1FFFFC7E00
3FFF007E00
3FE0007E00
7F80007E00
7F00007E00
FE00007E00
FE00007E00
FC00007E00
FC00007E00
FC0000FE00
FE0000FE00
FE0003FE00
7F0007FE00
7F800FFE00
7FF0FFFF00
3FFFFF7FF0
1FFFFE3FF0
0FFFF83FF0
03FFE01FF0
00FF800FE0
ENDCHAR
STARTCHAR 00E6
ENCODING 230
SWIDTH 886 0
DWIDTH 64 0
BBX 59 41 2 -2
BITMAP
000FFC0003FE0000
007FFF801FFFC000
01FFFFE07FFFE000
03FFFFF0FFFFF800
07FFFFF9FFFFFC00
0FFFFFFFFFFFFE00
1FF003FFFC01FF00
1FC000FFF000FF00
1F80007FE0007F80
3F80007FC0003F80
3F80007F80001FC0
3F00003F80001FC0
0000003F00000FC0
0000007F00000FC0
0000007F00000FE0
0000007F00000FE0
000001FE000007E0
0001FFFFFFFFFFE0
007FFFFFFFFFFFE0
01FFFFFFFFFFFFE0
07FFFFBFFFFFFFE0
0FFFF83FFFFFFFE0
1FFE003E00000000
3FE0003E00000000
7F80003E00000000
7F00003E00000000
7E00003F00000000
7E00003F00000000
7E00007F00000FC0
FE00007F80000FC0
7E0000FF80001FC0
7E0000FFC0003F80
7E0003FFE0003F80
7F0007FFF000FF00
7F800FE7FC01FF00
3FF0FFC3FFFFFE00
3FFFFF01FFFFFC00
1FFFFE00FFFFF800
0FFFFC007FFFE000
03FFF0001FFFC000
00FF800003FE0000
ENDCHAR
STARTCHAR 00E7
ENCODING 231
SWIDTH 498 0
DWIDTH 36 0
BBX 32 54 2 -15
BITMAP
0007F800
003FFF00
00FFFFC0
01FFFFF0
03FFFFF8
07FFFFF8
0FF807FC
0FE001FE
1FC000FE
3F80007E
3F80007F
3F00007F
7F00003F
7F00003F
7E000000
7E000000
7E000000
FE000000
FE000000
FE000000
FE000000
FE000000
FE000000
FE000000
7E000000
7E000000
7E00003F
7F00003F
7F00003F
3F00007F
3F80007F
3FC000FE
1FE000FE
0FF003FC
0FFC0FFC
07FFFFF8
03FFFFF0
01FFFFE0
007FFF80
001FFE00
00038000
00038000
00070000
0007FC00
000FFE00
000CFF00
00003F00
00003F00
00003F00
01803F00
01E07E00
03FFFC00
00FFF800
001FE000
ENDCHAR
STARTCHAR 00E8
ENCODING 232
SWIDTH 553 0
DWIDTH 40 0
BBX 34 56 3 -2
BITMAP
00FE000000
00FF000000
007F800000
003F800000
001FC00000
000FE00000
0007E00000
0003F00000
0001F80000
0000F80000
00007C0000
0000000000
0000000000
0000000000
0000000000
0007FC0000
003FFF8000
00FFFFC000
01FFFFF000
03FFFFF800
07FFFFFC00
0FF807FE00
1FE001FE00
1FC000FF00
3F80007F00
3F00003F80
7F00003F80
7E00001F80
7E00001FC0
7E00001FC0
FE00001FC0
FC00000FC0
FFFFFFFFC0
FFFFFFFFC0
FFFFFFFFC0
FFFFFFFFC0
FFFFFFFFC0
FC00000000
FC00000000
FC00000000
FC00000000
FE00000000
7E00000000
7E00001F80
7F00003F80
3F00003F80
3F80007F00
3FC0007F00
1FE001FE00
0FF803FE00
0FFFFFFC00
07FFFFF800
03FFFFF000
00FFFFC000
003FFF8000
0007F80000
ENDCHAR
STARTCHAR 00E9
ENCODING 233
SWIDTH 553 0
DWIDTH 40 0
BBX 34 56 3 -2
BITMAP
00001FE000
00003FC000
00003F8000
00007F0000
0000FE0000
0000FC0000
0001F80000
0001F00000
0003E00000
0007C00000
0007800000
0000000000
0000000000
0000000000
0000000000
0007FC0000
003FFF8000
00FFFFC000
01FFFFF000
03FFFFF800
07FFFFFC00
0FF807FE00
1FE001FE00
1FC000FF00
3F80007F00
3F00003F80
7F00003F80
7E00001F80
7E00001FC0
7E00001FC0
FE00001FC0
FC00000FC0
FFFFFFFFC0
FFFFFFFFC0
FFFFFFFFC0
FFFFFFFFC0
FFFFFFFFC0
FC00000000
FC00000000
FC00000000
FC00000000
FE00000000
7E00000000
7E00001F80
7F00003F80
3F00003F80
3F80007F00
3FC0007F00
1FE001FE00
0FF803FE00
0FFFFFFC00
07FFFFF800
03FFFFF000
00FFFFC000
003FFF8000
0007F80000
ENDCHAR
STARTCHAR 00EA
ENCODING 234
SWIDTH 553 0
DWIDTH 40 0
BBX 34 56 3 -2
BITMAP
0003F80000
0007FC0000
0007FE0000
000FFE0000
001FBF0000
001F1F8000
003F0F8000
003E07C000
007C07C000
00F803E000
00F001F000
0000000000
0000000000
0000000000
0000000000
0007FC0000
003FFF8000
00FFFFC000
01FFFFF000
03FFFFF800
07FFFFFC00
0FF807FE00
1FE001FE00
1FC000FF00
3F80007F00
3F00003F80
7F00003F80
7E00001F80
7E00001FC0
7E00001FC0
FE00001FC0
FC00000FC0
FFFFFFFFC0
FFFFFFFFC0
FFFFFFFFC0
FFFFFFFFC0
FFFFFFFFC0
FC00000000
FC00000000
FC00000000
FC00000000
FE00000000
7E00000000
7E00001F80
7F00003F80
3F00003F80
3F80007F00
3FC0007F00
1FE001FE00
0FF803FE00
0FFFFFFC00
07FFFFF800
03FFFFF000
00FFFFC000
003FFF8000
0007F80000
ENDCHAR
STARTCHAR 00EB
ENCODING 235
SWIDTH 553 0
DWIDTH 40 0
BBX 34 54 3 -2
BITMAP
00FF0FE000
00FF0FE000
00FF0FE000
00FF0FE000
00FF0FE000
00FF0FE000
00FF0FE000
0000000000
0000000000
0000000000
0000000000
0000000000
0000000000
0007FC0000
003FFF8000
00FFFFC000
01FFFFF000
03FFFFF800
07FFFFFC00
0FF807FE00
1FE001FE00
1FC000FF00
3F80007F00
3F00003F80
7F00003F80
7E00001F80
7E00001FC0
7E00001FC0
FE00001FC0
FC00000FC0
FFFFFFFFC0
FFFFFFFFC0
FFFFFFFFC0
FFFFFFFFC0
FFFFFFFFC0
FC00000000
FC00000000
FC00000000
FC00000000
FE00000000
7E00000000
7E00001F80
7F00003F80
3F00003F80
3F80007F00
3FC0007F00
1FE001FE00
0FF803FE00
0FFFFFFC00
07FFFFF800
03FFFFF000
00FFFFC000
003FFF8000
0007F80000
ENDCHAR
STARTCHAR 00EC
ENCODING 236
SWIDTH 276 0
DWIDTH 20 0
BBX 14 54 0 0
BITMAP
FF00
7F80
3F80
1FC0
0FE0
07E0
03F0
01F8
00F8
007C
003C
0000
0000
0000
0000
0000
01F8
01F8
01F8
01F8
01F8
01F8
01F8
01F8
01F8
01F8
01F8
01F8
01F8
01F8
01F8
01F8
01F8
01F8
01F8
01F8
01F8
01F8
01F8
01F8
01F8
01F8
01F8
01F8
01F8
01F8
01F8
01F8
01F8
01F8
01F8
01F8
01F8
01F8
ENDCHAR
STARTCHAR 00ED
ENCODING 237
SWIDTH 276 0
DWIDTH 20 0
BBX 14 54 5 0
BITMAP
03FC
03F8
07F0
0FE0
0FC0
1F80
1F00
3E00
7C00
7800
F000
0000
0000
0000
0000
0000
3F00
3F00
3F00
3F00
3F00
3F00
3F00
3F00
3F00
3F00
3F00
3F00
3F00
3F00
3F00
3F00
3F00
3F00
3F00
3F00
3F00
3F00
3F00
3F00
3F00
3F00
3F00
3F00
3F00
3F00
3F00
3F00
3F00
3F00
3F00
3F00
3F00
3F00
ENDCHAR
STARTCHAR 00EE
ENCODING 238
SWIDTH 276 0
DWIDTH 20 0
BBX 20 54 0 0
BITMAP
03FC00
07FC00
07FE00
0FFE00
0FBF00
1F9F80
3F0F80
3E07C0
7C03E0
F803E0
F801F0
000000
000000
000000
000000
000000
01F800
01F800
01F800
01F800
01F800
01F800
01F800
01F800
01F800
01F800
01F800
01F800
01F800
01F800
01F800
01F800
01F800
01F800
01F800
01F800
01F800
01F800
01F800
01F800
01F800
01F800
01F800
01F800
01F800
01F800
01F800
01F800
01F800
01F800
01F800
01F800
01F800
01F800
ENDCHAR
STARTCHAR 00EF
ENCODING 239
SWIDTH 276 0
DWIDTH 20 0
BBX 19 51 0 0
BITMAP
FF0FE0
FF0FE0
FF0FE0
FF0FE0
FF0FE0
FF0FE0
FF0FE0
000000
000000
000000
000000
000000
000000
01F800
01F800
01F800
01F800
01F800
01F800
01F800
01F800
01F800
01F800
01F800
01F800
01F800
01F800
01F800
01F800
01F800
01F800
01F800
01F800
01F800
01F800
01F800
01F800
01F800
01F800
01F800
01F800
01F800
01F800
01F800
01F800
01F800
01F800
01F800
01F800
01F800
01F800
ENDCHAR
STARTCHAR 00F0
ENCODING 240
SWIDTH 553 0
DWIDTH 40 0
BBX 34 56 3 -2
BITMAP
0300000000
07C0040000
0FE01E0000
0FF87F0000
03FDFE0000
01FFF80000
007FE00000
00FFE00000
03FFF00000
0FFFF80000
0FE3FC0000
0701FE0000
0000FF0000
00007F8000
00003FC000
000FFFE000
007FFFF000
01FFFFF000
03FFFFF800
07FFFFFC00
0FFF7FFC00
1FF007FE00
3FE001FE00
3FC000FF00
7F80007F00
7F00007F00
7F00003F80
7E00003F80
FE00001F80
FE00001F80
FC00001FC0
FC00001FC0
FC00001FC0
FC00001FC0
FC00000FC0
FC00000FC0
FC00000FC0
FC00001FC0
FC00001FC0
FC00001FC0
FC00001FC0
FE00001F80
FE00001F80
7E00003F80
7F00003F80
7F00007F00
3F80007F00
3FC000FE00
1FE001FE00
1FF007FC00
0FFFFFFC00
07FFFFF800
03FFFFF000
01FFFFC000
007FFF0000
000FF80000
ENDCHAR
STARTCHAR 00F1
ENCODING 241
SWIDTH 553 0
DWIDTH 40 0
BBX 30 52 5 0
BITMAP
00F803C0
03FE03C0
03FF87C0
07FFFFC0
07FFFF80
0F87FF00
0F01FF00
00003C00
00000000
00000000
00000000
00000000
00000000
0003FC00
FC1FFF80
FC3FFFE0
FC7FFFF0
FCFFFFF0
FDFC3FF8
FFF007FC
FFC003FC
FF8001FC
FF0000FC
FF0000FC
FE0000FC
FE0000FC
FE0000FC
FC0000FC
FC0000FC
FC0000FC
FC0000FC
FC0000FC
FC0000FC
FC0000FC
FC0000FC
FC0000FC
FC0000FC
FC0000FC
FC0000FC
FC0000FC
FC0000FC
FC0000FC
FC0000FC
FC0000FC
FC0000FC
FC0000FC
FC0000FC
FC0000FC
FC0000FC
FC0000FC
FC0000FC
FC0000FC
ENDCHAR
STARTCHAR 00F2
ENCODING 242
SWIDTH 553 0
DWIDTH 40 0
BBX 34 56 3 -2
BITMAP
01FE000000
00FF000000
007F000000
003F800000
001FC00000
000FC00000
0007E00000
0003E00000
0001F00000
0000F80000
0000780000
0000000000
0000000000
0000000000
0000000000
000FF80000
007FFF0000
01FFFFC000
03FFFFF000
07FFFFF800
0FFFFFF800
1FF007FC00
1FE001FE00
3FC000FE00
3F80007F00
7F00007F00
7F00003F80
7E00003F80
FE00001F80
FE00001F80
FC00001FC0
FC00001FC0
FC00001FC0
FC00001FC0
FC00000FC0
FC00000FC0
FC00000FC0
FC00001FC0
FC00001FC0
FC00001FC0
FC00001FC0
FE00001F80
FE00001F80
7E00003F80
7F00003F80
7F00007F00
3F80007F00
3FC000FE00
1FE001FE00
1FF007FC00
0FFFFFF800
07FFFFF000
03FFFFE000
01FFFFC000
007FFF0000
000FF80000
ENDCHAR
STARTCHAR 00F3
ENCODING 243
SWIDTH 553 0
DWIDTH 40 0
BBX 34 56 3 -2
BITMAP
00003FC000
00003F8000
00007F0000
0000FE0000
0000FC0000
0001F80000
0003F00000
0003E00000
0007C00000
0007800000
000F000000
0000000000
0000000000
0000000000
0000000000
000FF80000
007FFF0000
01FFFFC000
03FFFFF000
07FFFFF800
0FFFFFF800
1FF007FC00
1FE001FE00
3FC000FE00
3F80007F00
7F00007F00
7F00003F80
7E00003F80
FE00001F80
FE00001F80
FC00001FC0
FC00001FC0
FC00001FC0
FC00001FC0
FC00000FC0
FC00000FC0
FC00000FC0
FC00001FC0
FC00001FC0
FC00001FC0
FC00001FC0
FE00001F80
FE00001F80
7E00003F80
7F00003F80
7F00007F00
3F80007F00
3FC000FE00
1FE001FE00
1FF007FC00
0FFFFFF800
07FFFFF000
03FFFFE000
01FFFFC000
007FFF0000
000FF80000
ENDCHAR
STARTCHAR 00F4
ENCODING 244
SWIDTH 553 0
DWIDTH 40 0
BBX 34 56 3 -2
BITMAP
0007F00000
000FF80000
000FFC0000
001FFC0000
001F7E0000
003F3F0000
007E1F0000
007C0F8000
00F80F8000
01F007C000
01F003E000
0000000000
0000000000
0000000000
0000000000
000FF80000
007FFF0000
01FFFFC000
03FFFFF000
07FFFFF800
0FFFFFF800
1FF007FC00
1FE001FE00
3FC000FE00
3F80007F00
7F00007F00
7F00003F80
7E00003F80
FE00001F80
FE00001F80
FC00001FC0
FC00001FC0
FC00001FC0
FC00001FC0
FC00000FC0
FC00000FC0
FC00000FC0
FC00001FC0
FC00001FC0
FC00001FC0
FC00001FC0
FE00001F80
FE00001F80
7E00003F80
7F00003F80
7F00007F00
3F80007F00
3FC000FE00
1FE001FE00
1FF007FC00
0FFFFFF800
07FFFFF000
03FFFFE000
01FFFFC000
007FFF0000
000FF80000
ENDCHAR
STARTCHAR 00F5
ENCODING 245
SWIDTH 553 0
DWIDTH 40 0
BBX 34 54 3 -2
BITMAP
003C00F000
00FF00F000
01FFE1F000
01FFFFE000
03FFFFE000
03E1FFC000
03C07F8000
00000E0000
0000000000
0000000000
0000000000
0000000000
0000000000
000FF80000
007FFF0000
01FFFFC000
03FFFFF000
07FFFFF800
0FFFFFF800
1FF007FC00
1FE001FE00
3FC000FE00
3F80007F00
7F00007F00
7F00003F80
7E00003F80
FE00001F80
FE00001F80
FC00001FC0
FC00001FC0
FC00001FC0
FC00001FC0
FC00000FC0
FC00000FC0
FC00000FC0
FC00001FC0
FC00001FC0
FC00001FC0
FC00001FC0
FE00001F80
FE00001F80
7E00003F80
7F00003F80
7F00007F00
3F80007F00
3FC000FE00
1FE001FE00
1FF007FC00
0FFFFFF800
07FFFFF000
03FFFFE000
01FFFFC000
007FFF0000
000FF80000
ENDCHAR
STARTCHAR 00F6
ENCODING 246
SWIDTH 553 0
DWIDTH 40 0
BBX 34 54 3 -2
BITMAP
01FE1FC000
01FE1FC000
01FE1FC000
01FE1FC000
01FE1FC000
01FE1FC000
01FE1FC000
0000000000
0000000000
0000000000
0000000000
0000000000
0000000000
000FF80000
007FFF0000
01FFFFC000
03FFFFF000
07FFFFF800
0FFFFFF800
1FF007FC00
1FE001FE00
3FC000FE00
3F80007F00
7F00007F00
7F00003F80
7E00003F80
FE00001F80
FE00001F80
FC00001FC0
FC00001FC0
FC00001FC0
FC00001FC0
FC00000FC0
FC00000FC0
FC00000FC0
FC00001FC0
FC00001FC0
FC00001FC0
FC00001FC0
FE00001F80
FE00001F80
7E00003F80
7F00003F80
7F00007F00
3F80007F00
3FC000FE00
1FE001FE00
1FF007FC00
0FFFFFF800
07FFFFF000
03FFFFE000
01FFFFC000
007FFF0000
000FF80000
ENDCHAR
STARTCHAR 00F7
ENCODING 247
SWIDTH 581 0
DWIDTH 42 0
BBX 35 34 4 0
BITMAP
0007F80000
0007F80000
0007F80000
0007F80000
0007F80000
0007F80000
0007F80000
0007F80000
0000000000
0000000000
0000000000
0000000000
0000000000
0000000000
FFFFFFFFE0
FFFFFFFFE0
FFFFFFFFE0
FFFFFFFFE0
FFFFFFFFE0
0000000000
0000000000
0000000000
0000000000
0000000000
0000000000
0000000000
0007F80000
0007F80000
0007F80000
0007F80000
0007F80000
0007F80000
0007F80000
0007F80000
ENDCHAR
STARTCHAR 00F8
ENCODING 248
SWIDTH 609 0
DWIDTH 44 0
BBX 37 41 1 -3
BITMAP
0003FE0020
001FFFC038
007FFFF078
00FFFFF8F0
01FFFFFFE0
03FFFFFFC0
07FC01FF80
07F8007F80
0FF0003F80
0FE0001FC0
1FC0003FC0
1FC0007FE0
1F8000FFE0
3F8001E7E0
3F8003C7E0
3F000787F0
3F000F87F0
3F000F07F0
3F001E03F0
3F003C03F0
3F007803F0
3F00F003F0
3F01E003F0
3F03C007F0
3F07C007F0
3F078007F0
3F8F0007E0
3F9E0007E0
1FBC000FE0
1FF8000FE0
1FF0001FC0
0FE0001FC0
0FF0003F80
07F8007F80
07FC01FF00
0FFFFFFE00
1FFFFFFC00
3CFFFFF800
787FFFF000
F01FFFC000
7003FE0000
ENDCHAR
STARTCHAR 00F9
ENCODING 249
SWIDTH 553 0
DWIDTH 40 0
BBX 30 56 5 -2
BITMAP
07F80000
03FC0000
01FC0000
00FE0000
007E0000
003F0000
001F8000
000F8000
0007C000
0003E000
0001E000
00000000
00000000
00000000
00000000
00000000
FC0000FC
FC0000FC
FC0000FC
FC0000FC
FC0000FC
FC0000FC
FC0000FC
FC0000FC
FC0000FC
FC0000FC
FC0000FC
FC0000FC
FC0000FC
FC0000FC
FC0000FC
FC0000FC
FC0000FC
FC0000FC
FC0000FC
FC0000FC
FC0000FC
FC0000FC
FC0000FC
FC0000FC
FC0000FC
FC0001FC
FC0001FC
FC0001FC
FC0001FC
FC0003FC
FC0003FC
FE0007FC
FF000FFC
FF803FFC
7FE0FEFC
7FFFFCFC
3FFFF8FC
1FFFF0FC
07FFC000
00FE0000
ENDCHAR
STARTCHAR 00FA
ENCODING 250
SWIDTH 553 0
DWIDTH 40 0
BBX 30 56 5 -2
BITMAP
0000FF00
0001FE00
0001FC00
0003F800
0007F000
0007E000
000FC000
000F8000
001F0000
003E0000
003C0000
00000000
00000000
00000000
00000000
00000000
FC0000FC
FC0000FC
FC0000FC
FC0000FC
FC0000FC
FC0000FC
FC0000FC
FC0000FC
FC0000FC
FC0000FC
FC0000FC
FC0000FC
FC0000FC
FC0000FC
FC0000FC
FC0000FC
FC0000FC
FC0000FC
FC0000FC
FC0000FC
FC0000FC
FC0000FC
FC0000FC
FC0000FC
FC0000FC
FC0001FC
FC0001FC
FC0001FC
FC0001FC
FC0003FC
FC0003FC
FE0007FC
FF000FFC
FF803FFC
7FE0FEFC
7FFFFCFC
3FFFF8FC
1FFFF0FC
07FFC000
00FE0000
ENDCHAR
STARTCHAR 00FB
ENCODING 251
SWIDTH 553 0
DWIDTH 40 0
BBX 30 56 5 -2
BITMAP
001FE000
003FE000
003FF000
007FF000
007DF800
00FCFC00
01F87C00
01F03E00
03E01F00
07C01F00
07800F80
00000000
00000000
00000000
00000000
00000000
FC0000FC
FC0000FC
FC0000FC
FC0000FC
FC0000FC
FC0000FC
FC0000FC
FC0000FC
FC0000FC
FC0000FC
FC0000FC
FC0000FC
FC0000FC
FC0000FC
FC0000FC
FC0000FC
FC0000FC
FC0000FC
FC0000FC
FC0000FC
FC0000FC
FC0000FC
FC0000FC
FC0000FC
FC0000FC
FC0001FC
FC0001FC
FC0001FC
FC0001FC
FC0003FC
FC0003FC
FE0007FC
FF000FFC
FF803FFC
7FE0FEFC
7FFFFCFC
3FFFF8FC
1FFFF0FC
07FFC000
00FE0000
ENDCHAR
STARTCHAR 00FC
ENCODING 252
SWIDTH 553 0
DWIDTH 40 0
BBX 30 54 5 -2
BITMAP
07F87F00
07F87F00
07F87F00
07F87F00
07F87F00
07F87F00
07F87F00
00000000
00000000
00000000
00000000
00000000
00000000
00000000
FC0000FC
FC0000FC
FC0000FC
FC0000FC
FC0000FC
FC0000FC
FC0000FC
FC0000FC
FC0000FC
FC0000FC
FC0000FC
FC0000FC
FC0000FC
FC0000FC
FC0000FC
FC0000FC
FC0000FC
FC0000FC
FC0000FC
FC0000FC
FC0000FC
FC0000FC
FC0000FC
FC0000FC
FC0000FC
FC0001FC
FC0001FC
FC0001FC
FC0001FC
FC0003FC
FC0003FC
FE0007FC
FF000FFC
FF803FFC
7FE0FEFC
7FFFFCFC
3FFFF8FC
1FFFF0FC
07FFC000
00FE0000
ENDCHAR
STARTCHAR 00FD
ENCODING 253
SWIDTH 498 0
DWIDTH 36 0
BBX 32 70 2 -16
BITMAP
00007F80
00007F00
0000FE00
0001FC00
0001F800
0003F000
0007E000
0007C000
000F8000
000F0000
001E0000
00000000
00000000
00000000
00000000
00000000
FC00003F
FC00007F
FE00007F
7E00007E
7E0000FE
7F0000FE
3F0000FC
3F0001FC
3F8001F8
1F8001F8
1F8003F8
1FC003F0
0FC003F0
0FC007F0
0FE007E0
07E007E0
07E00FC0
07F00FC0
03F01FC0
03F01F80
03F81F80
01F83F80
01F83F00
01FC3F00
00FC7F00
00FC7E00
00FE7E00
007EFC00
007EFC00
007EFC00
003FF800
003FF800
003FF800
001FF000
001FF000
001FF000
000FE000
000FE000
000FC000
000FC000
001FC000
001F8000
001F8000
003F8000
003F0000
007F0000
007F0000
00FE0000
3FFE0000
3FFC0000
3FF80000
3FF00000
3FE00000
1F800000
ENDCHAR
STARTCHAR 00FE
ENCODING 254
SWIDTH 553 0
DWIDTH 40 0
BBX 34 68 4 -16
BITMAP
FC00000000
FC00000000
FC00000000
FC00000000
FC00000000
FC00000000
FC00000000
FC00000000
FC00000000
FC00000000
FC00000000
FC00000000
FC00000000
FC03FC0000
FC1FFF0000
FC7FFFC000
FCFFFFE000
FDFFFFF000
FFFFFFF800
FFF00FFC00
FFE003FE00
FFC001FE00
FF8000FF00
FF00007F00
FF00007F00
FE00003F80
FE00003F80
FE00001F80
FC00001F80
FC00001F80
FC00001FC0
FC00001FC0
FC00001FC0
FC00001FC0
FC00001FC0
FC00001FC0
FC00001FC0
FC00001FC0
FC00001F80
FE00001F80
FE00003F80
FE00003F80
FF00003F00
FF00007F00
FF8000FF00
FFC001FE00
FFE003FE00
FFF807FC00
FFFFFFF800
FDFFFFF000
FCFFFFE000
FC7FFFC000
FC1FFF0000
FC07F80000
FC00000000
FC00000000
FC00000000
FC00000000
FC00000000
FC00000000
FC00000000
FC00000000
FC00000000
FC00000000
FC00000000
FC00000000
FC00000000
FC00000000
ENDCHAR
STARTCHAR 00FF
ENCODING 255
SWIDTH 498 0
DWIDTH 36 0
BBX 32 68 2 -16
BITMAP
03FC3F80
03FC3F80
03FC3F80
03FC3F80
03FC3F80
03FC3F80
03FC3F80
00000000
00000000
00000000
00000000
00000000
00000000
00000000
FC00003F
FC00007F
FE00007F
7E00007E
7E0000FE
7F0000FE
3F0000FC
3F0001FC
3F8001F8
1F8001F8
1F8003F8
1FC003F0
0FC003F0
0FC007F0
0FE007E0
07E007E0
07E00FC0
07F00FC0
03F01FC0
03F01F80
03F81F80
01F83F80
01F83F00
01FC3F00
00FC7F00
00FC7E00
00FE7E00
007EFC00
007EFC00
007EFC00
003FF800
003FF800
003FF800
001FF000
001FF000
001FF000
000FE000
000FE000
000FC000
000FC000
001FC000
001F8000
001F8000
003F8000
003F0000
007F0000
007F0000
00FE0000
3FFE0000
3FFC0000
3FF80000
3FF00000
3FE00000
1F800000
ENDCHAR
STARTCHAR 0100
ENCODING 256
SWIDTH 664 0
DWIDTH 48 0
BBX 46 65 1 0
BITMAP
0007FFFF8000
0007FFFF8000
0007FFFF8000
0007FFFF8000
0007FFFF8000
000000000000
000000000000
000000000000
000000000000
000000000000
000000000000
000000000000
00001FF00000
00003FF00000
00003FF80000
00003FF80000
00007FF80000
00007FFC0000
00007FFC0000
0000FFFC0000
0000FEFE0000
0000FCFE0000
0001FCFE0000
0001FC7F0000
0001F87F0000
0003F87F0000
0003F83F8000
0003F03F8000
0007F03F8000
0007F01FC000
000FE01FC000
000FE01FC000
000FE00FE000
001FC00FE000
001FC00FF000
001F8007F000
003F8007F000
003F8007F800
003F0003F800
007F0003F800
007F0003FC00
007E0001FC00
00FE0001FC00
00FFFFFFFE00
01FFFFFFFE00
01FFFFFFFE00
01FFFFFFFF00
03FFFFFFFF00
03FFFFFFFF00
03F800007F80
07F000003F80
07F000003F80
07F000003FC0
0FE000001FC0
0FE000001FE0
0FE000001FE0
1FC000000FE0
1FC000000FF0
1FC000000FF0
3F80000007F0
3F80000007F8
7F80000007F8
7F00000003F8
7F00000003FC
FF00000003FC
ENDCHAR
STARTCHAR 0101
ENCODING 257
SWIDTH 553 0
DWIDTH 40 0
BBX 36 53 3 -2
BITMAP
01FFFFE000
01FFFFE000
01FFFFE000
01FFFFE000
01FFFFE000
0000000000
0000000000
0000000000
0000000000
0000000000
0000000000
0000000000
000FFC0000
007FFFC000
01FFFFE000
07FFFFF800
0FFFFFF800
0FFFFFFC00
1FE003FC00
3FC001FE00
3F8000FE00
3F80007E00
3F00007E00
3F00007E00
0000007E00
0000007E00
0000007E00
000000FE00
000003FE00
0000FFFE00
003FFFFE00
01FFFFFE00
07FFFFFE00
1FFFFC7E00
3FFF007E00
3FE0007E00
7F80007E00
7F00007E00
FE00007E00
FE00007E00
FC00007E00
FC00007E00
FC0000FE00
FE0000FE00
FE0003FE00
7F0007FE00
7F800FFE00
7FF0FFFF00
3FFFFF7FF0
1FFFFE3FF0
0FFFF83FF0
03FFE01FF0
00FF800FE0
ENDCHAR
STARTCHAR 0102
ENCODING 258
SWIDTH 664 0
DWIDTH 48 0
BBX 46 68 1 0
BITMAP
000F8003C000
000F8003C000
00078007C000
0007C00FC000
0007F01F8000
0003FFFF8000
0003FFFF0000
0001FFFE0000
00007FFC0000
00001FE00000
000000000000
000000000000
000000000000
000000000000
000000000000
00001FF00000
00003FF00000
00003FF80000
00003FF80000
00007FF80000
00007FFC0000
00007FFC0000
0000FFFC0000
0000FEFE0000
0000FCFE0000
0001FCFE0000
0001FC7F0000
0001F87F0000
0003F87F0000
0003F83F8000
0003F03F8000
0007F03F8000
0007F01FC000
000FE01FC000
000FE01FC000
000FE00FE000
001FC00FE000
001FC00FF000
001F8007F000
003F8007F000
003F8007F800
003F0003F800
007F0003F800
007F0003FC00
007E0001FC00
00FE0001FC00
00FFFFFFFE00
01FFFFFFFE00
01FFFFFFFE00
01FFFFFFFF00
03FFFFFFFF00
03FFFFFFFF00
03F800007F80
07F000003F80
07F000003F80
07F000003FC0
0FE000001FC0
0FE000001FE0
0FE000001FE0
1FC000000FE0
1FC000000FF0
1FC000000FF0
3F80000007F0
3F80000007F8
7F80000007F8
7F00000003F8
7F00000003FC
FF00000003FC
ENDCHAR
STARTCHAR 0103
ENCODING 259
SWIDTH 553 0
DWIDTH 40 0
BBX 36 55 3 -2
BITMAP
03C001F000
03E001F000
03E001E000
03F003E000
01FC0FE000
01FFFFC000
00FFFFC000
007FFF8000
003FFE0000
0007F80000
0000000000
0000000000
0000000000
0000000000
000FFC0000
007FFFC000
01FFFFE000
07FFFFF800
0FFFFFF800
0FFFFFFC00
1FE003FC00
3FC001FE00
3F8000FE00
3F80007E00
3F00007E00
3F00007E00
0000007E00
0000007E00
0000007E00
000000FE00
000003FE00
0000FFFE00
003FFFFE00
01FFFFFE00
07FFFFFE00
1FFFFC7E00
3FFF007E00
3FE0007E00
7F80007E00
7F00007E00
FE00007E00
FE00007E00
FC00007E00
FC00007E00
FC0000FE00
FE0000FE00
FE0003FE00
7F0007FE00
7F800FFE00
7FF0FFFF00
3FFFFF7FF0
1FFFFE3FF0
0FFFF83FF0
03FFE01FF0
00FF800FE0
ENDCHAR
STARTCHAR 0104
ENCODING 260
SWIDTH 664 0
DWIDTH 48 0
BBX 49 68 1 -15
BITMAP
00001FF0000000
00003FF0000000
00003FF8000000
00003FF8000000
00007FF8000000
00007FFC000000
00007FFC000000
0000FFFC000000
0000FEFE000000
0000FCFE000000
0001FCFE000000
0001FC7F000000
0001F87F000000
0003F87F000000
0003F83F800000
0003F03F800000
0007F03F800000
0007F01FC00000
000FE01FC00000
000FE01FC00000
000FE00FE00000
001FC00FE00000
001FC00FF00000
001F8007F00000
003F8007F00000
003F8007F80000
003F0003F80000
007F0003F80000
007F0003FC0000
007E0001FC0000
00FE0001FC0000
00FFFFFFFE0000
01FFFFFFFE0000
01FFFFFFFE0000
01FFFFFFFF0000
03FFFFFFFF0000
03FFFFFFFF0000
03F800007F8000
07F000003F8000
07F000003F8000
07F000003FC000
0FE000001FC000
0FE000001FE000
0FE000001FE000
1FC000000FE000
1FC000000FF000
1FC000000FF000
3F80000007F000
3F80000007F800
7F80000007F800
7F00000003F800
7F00000003FC00
FF00000003FC00
0000000000F800
0000000003E000
0000000007C000
000000000F8000
000000001F0000
000000001F0000
000000003E0000
000000003E0000
000000003E0000
000000003F0000
000000003F0000
000000001FC180
000000000FFF80
0000000007FF80
0000000000FF00
ENDCHAR
STARTCHAR 0105
ENCODING 261
SWIDTH 553 0
DWIDTH 40 0
BBX 40 54 3 -15
BITMAP
000FFC0000
007FFFC000
01FFFFE000
07FFFFF800
0FFFFFFC00
0FFFFFFC00
1FF003FE00
1FC000FE00
3F8000FE00
3F80007E00
3F00007E00
3F00007E00
0000007E00
0000007E00
0000007E00
000000FE00
000003FE00
0000FFFE00
003FFFFE00
01FFFFFE00
07FFFFFE00
0FFFFC7E00
1FFF007E00
3FE0007E00
7F80007E00
7F00007E00
FE00007E00
FE00007E00
FC00007E00
FC00007E00
FC0000FE00
FE0000FE00
FE0003FE00
7F0007FE00
7F800FFF00
7FF0FFFF80
3FFFFF3FF0
1FFFFE3FF0
0FFFF83FF0
03FFF01FF0
00FF800FE0
00000007C0
0000000F00
0000001E00
0000003E00
0000007C00
0000007C00
0000007C00
0000007E00
0000007E00
0000003F81
0000001FFF
0000000FFF
00000003FF
ENDCHAR
STARTCHAR 0106
ENCODING 262
SWIDTH 720 0
DWIDTH 52 0
BBX 46 70 3 -2
BITMAP
0000003FC000
0000007F8000
000000FF0000
000000FE0000
000001FC0000
000001F80000
000003F00000
000007E00000
000007C00000
00000F800000
000000000000
000000000000
000000000000
000000000000
00001FFC0000
0000FFFFC000
0007FFFFF000
000FFFFFF800
003FFFFFFE00
007FFFFFFF00
00FFE00FFF00
01FF8001FF80
03FE00007FC0
03FC00003FC0
07F800001FE0
0FF000000FE0
0FE000000FF0
1FE0000007F0
1FC0000007F0
1FC0000003F0
3F80000003F8
3F8000000000
3F0000000000
7F0000000000
7F0000000000
7F0000000000
7F0000000000
7E0000000000
7E0000000000
7E0000000000
7E0000000000
FE0000000000
FE0000000000
FE0000000000
7E0000000000
7E0000000000
7E0000000000
7F0000000000
7F0000000000
7F00000001FC
7F00000001FC
3F80000001FC
3F80000003F8
3F80000003F8
3FC0000003F8
1FC0000007F8
1FE0000007F0
0FE000000FF0
0FF000000FF0
07F800001FE0
07FC00003FE0
03FF00007FC0
01FF8001FF80
00FFF007FF00
007FFFFFFF00
003FFFFFFC00
001FFFFFF800
0007FFFFF000
0001FFFF8000
00001FFC0000
ENDCHAR
STARTCHAR 0107
ENCODING 263
SWIDTH 498 0
DWIDTH 36 0
BBX 32 56 2 -2
BITMAP
00001FE0
00001FC0
00003F80
00007F00
00007E00
0000FC00
0001F800
0001F000
0003E000
0003C000
00078000
00000000
00000000
00000000
00000000
0007F800
003FFF00
00FFFFC0
01FFFFF0
03FFFFF8
07FFFFF8
0FF807FC
0FE001FE
1FC000FE
1F8000FE
3F80007F
3F00007F
7F00003F
7F00003F
7E000000
7E000000
7E000000
FE000000
FE000000
FE000000
FE000000
FE000000
FE000000
FE000000
FE000000
7E000000
7E00003F
7E00003F
7F00003F
3F00003F
3F80007F
3F80007E
1FC000FE
1FE001FE
0FF803FC
07FFFFF8
03FFFFF0
01FFFFE0
00FFFFC0
003FFF00
0007F800
ENDCHAR
STARTCHAR 0108
ENCODING 264
SWIDTH 720 0
DWIDTH 52 0
BBX 46 70 3 -2
BITMAP
00000FF00000
00001FF80000
00001FF80000
00003FFC0000
00007E7E0000
00007C3E0000
0000F83F0000
0000F81F0000
0001F00F8000
0003E007C000
000000000000
000000000000
000000000000
000000000000
00001FFC0000
0000FFFFC000
0007FFFFF000
000FFFFFF800
003FFFFFFE00
007FFFFFFF00
00FFE00FFF00
01FF8001FF80
03FE00007FC0
03FC00003FC0
07F800001FE0
0FF000000FE0
0FE000000FF0
1FE0000007F0
1FC0000007F0
1FC0000003F0
3F80000003F8
3F8000000000
3F0000000000
7F0000000000
7F0000000000
7F0000000000
7F0000000000
7E0000000000
7E0000000000
7E0000000000
7E0000000000
FE0000000000
FE0000000000
FE0000000000
7E0000000000
7E0000000000
7E0000000000
7F0000000000
7F0000000000
7F00000001FC
7F00000001FC
3F80000001FC
3F80000003F8
3F80000003F8
3FC0000003F8
1FC0000007F8
1FE0000007F0
0FE000000FF0
0FF000000FF0
07F800001FE0
07FC00003FE0
03FF00007FC0
01FF8001FF80
00FFF007FF00
007FFFFFFF00
003FFFFFFC00
001FFFFFF800
0007FFFFF000
0001FFFF8000
00001FFC0000
ENDCHAR
STARTCHAR 0109
ENCODING 265
SWIDTH 498 0
DWIDTH 36 0
BBX 32 56 2 -2
BITMAP
0003F800
0007FC00
000FFC00
000FFE00
001FBF00
003F3F00
003E1F80
007C0F80
007C07C0
00F803E0
01F001E0
00000000
00000000
00000000
00000000
0007F800
003FFF00
00FFFFC0
01FFFFF0
03FFFFF8
07FFFFF8
0FF807FC
0FE001FE
1FC000FE
1F8000FE
3F80007F
3F00007F
7F00003F
7F00003F
7E000000
7E000000
7E000000
FE000000
FE000000
FE000000
FE000000
FE000000
FE000000
FE000000
FE000000
7E000000
7E00003F
7E00003F
7F00003F
3F00003F
3F80007F
3F80007E
1FC000FE
1FE001FE
0FF803FC
07FFFFF8
03FFFFF0
01FFFFE0
00FFFFC0
003FFF00
0007F800
ENDCHAR
STARTCHAR 010A
ENCODING 266
SWIDTH 720 0
DWIDTH 52 0
BBX 46 69 3 -2
BITMAP
000007F00000
000007F00000
000007F00000
000007F00000
000007F00000
000007F00000
000007F00000
000007F00000
000000000000
000000000000
000000000000
000000000000
000000000000
00001FFC0000
0000FFFFC000
0007FFFFF000
000FFFFFF800
003FFFFFFE00
007FFFFFFF00
00FFE00FFF00
01FF8001FF80
03FE00007FC0
03FC00003FC0
07F800001FE0
0FF000000FE0
0FE000000FF0
1FE0000007F0
1FC0000007F0
1FC0000003F0
3F80000003F8
3F8000000000
3F0000000000
7F0000000000
7F0000000000
7F0000000000
7F0000000000
7E0000000000
7E0000000000
7E0000000000
7E0000000000
FE0000000000
FE0000000000
FE0000000000
7E0000000000
7E0000000000
7E0000000000
7F0000000000
7F0000000000
7F00000001FC
7F00000001FC
3F80000001FC
3F80000003F8
3F80000003F8
3FC0000003F8
1FC0000007F8
1FE0000007F0
0FE000000FF0
0FF000000FF0
07F800001FE0
07FC00003FE0
03FF00007FC0
01FF8001FF80
00FFF007FF00
007FFFFFFF00
003FFFFFFC00
001FFFFFF800
0007FFFFF000
0001FFFF8000
00001FFC0000
ENDCHAR
STARTCHAR 010B
ENCODING 267
SWIDTH 498 0
DWIDTH 36 0
BBX 32 54 2 -2
BITMAP
0007F800
0007F800
0007F800
0007F800
0007F800
0007F800
0007F800
0007F800
00000000
00000000
00000000
00000000
00000000
0007F800
003FFF00
00FFFFC0
01FFFFF0
03FFFFF8
07FFFFF8
0FF807FC
0FE001FE
1FC000FE
1F8000FE
3F80007F
3F00007F
7F00003F
7F00003F
7E000000
7E000000
7E000000
FE000000
FE000000
FE000000
FE000000
FE000000
FE000000
FE000000
FE000000
7E000000
7E00003F
7E00003F
7F00003F
3F00003F
3F80007F
3F80007E
1FC000FE
1FE001FE
0FF803FC
07FFFFF8
03FFFFF0
01FFFFE0
00FFFFC0
003FFF00
0007F800
ENDCHAR
STARTCHAR 010C
ENCODING 268
SWIDTH 720 0
DWIDTH 52 0
BBX 46 70 3 -2
BITMAP
0001E003C000
0001F007C000
0000F80F8000
00007C1F0000
00007E3F0000
00003F7E0000
00001F7C0000
00001FFC0000
00000FF80000
00000FF80000
000000000000
000000000000
000000000000
000000000000
00001FFC0000
0000FFFFC000
0007FFFFF000
000FFFFFF800
003FFFFFFE00
007FFFFFFF00
00FFE00FFF00
01FF8001FF80
03FE00007FC0
03FC00003FC0
07F800001FE0
0FF000000FE0
0FE000000FF0
1FE0000007F0
1FC0000007F0
1FC0000003F0
3F80000003F8
3F8000000000
3F0000000000
7F0000000000
7F0000000000
7F0000000000
7F0000000000
7E0000000000
7E0000000000
7E0000000000
7E0000000000
FE0000000000
FE0000000000
FE0000000000
7E0000000000
7E0000000000
7E0000000000
7F0000000000
7F0000000000
7F00000001FC
7F00000001FC
3F80000001FC
3F80000003F8
3F80000003F8
3FC0000003F8
1FC0000007F8
1FE0000007F0
0FE000000FF0
0FF000000FF0
07F800001FE0
07FC00003FE0
03FF00007FC0
01FF8001FF80
00FFF007FF00
007FFFFFFF00
003FFFFFFC00
001FFFFFF800
0007FFFFF000
0001FFFF8000
00001FFC0000
ENDCHAR
STARTCHAR 010D
ENCODING 269
SWIDTH 498 0
DWIDTH 36 0
BBX 32 56 2 -2
BITMAP
01F003E0
00F803E0
00F807C0
007C0F80
003E1F80
003F3F00
001FBE00
000FFE00
000FFC00
0007FC00
0007F800
00000000
00000000
00000000
00000000
0007F800
003FFF00
00FFFFC0
01FFFFF0
03FFFFF8
07FFFFF8
0FF807FC
0FE001FE
1FC000FE
1F8000FE
3F80007F
3F00007F
7F00003F
7F00003F
7E000000
7E000000
7E000000
FE000000
FE000000
FE000000
FE000000
FE000000
FE000000
FE000000
FE000000
7E000000
7E00003F
7E00003F
7F00003F
3F00003F
3F80007F
3F80007E
1FC000FE
1FE001FE
0FF803FC
07FFFFF8
03FFFFF0
01FFFFE0
00FFFFC0
003FFF00
0007F800
ENDCHAR
STARTCHAR 010E
ENCODING 270
SWIDTH 720 0
DWIDTH 52 0
BBX 42 68 6 0
BITMAP
007801F00000
007C01F00000
003E03E00000
003F07C00000
001F8FC00000
000F9F800000
000FDF000000
0007FF000000
0003FE000000
0003FE000000
0001FC000000
000000000000
000000000000
000000000000
000000000000
FFFFFFC00000
FFFFFFF80000
FFFFFFFE0000
FFFFFFFF8000
FFFFFFFFC000
FFFFFFFFE000
FE0000FFF000
FE00001FF800
FE000007FC00
FE000003FC00
FE000001FE00
FE000000FE00
FE000000FF00
FE0000007F00
FE0000007F00
FE0000003F80
FE0000003F80
FE0000003F80
FE0000001FC0
FE0000001FC0
FE0000001FC0
FE0000001FC0
FE0000001FC0
FE0000001FC0
FE0000001FC0
FE0000001FC0
FE0000001FC0
FE0000001FC0
FE0000001FC0
FE0000001FC0
FE0000001FC0
FE0000001FC0
FE0000001FC0
FE0000001FC0
FE0000001F80
FE0000003F80
FE0000003F80
FE0000003F80
FE0000007F00
FE0000007F00
FE000000FF00
FE000000FE00
FE000001FE00
FE000003FC00
FE000007F800
FE00001FF800
FE0000FFF000
FFFFFFFFE000
FFFFFFFFC000
FFFFFFFF8000
FFFFFFFE0000
FFFFFFF80000
FFFFFFC00000
ENDCHAR
STARTCHAR 010F
ENCODING 271
SWIDTH 636 0
DWIDTH 46 0
BBX 45 55 2 -2
BITMAP
0000000FC3F8
0000000FC3F8
0000000FC3F8
0000000FC3F8
0000000FC3F8
0000000FC3F8
0000000FC3F8
0000000FC038
0000000FC038
0000000FC078
0000000FC070
0000000FC070
0000000FC0F0
0000000FC3E0
000FF00FC3C0
007FFE0FC380
00FFFF8FC000
03FFFFCFC000
07FFFFEFC000
0FFFFFFFC000
0FF807FFC000
1FE001FFC000
3FC000FFC000
3F80007FC000
3F80007FC000
7F00003FC000
7F00003FC000
7E00001FC000
FE00001FC000
FE00001FC000
FE00001FC000
FC00000FC000
FC00000FC000
FC00000FC000
FC00000FC000
FC00000FC000
FC00000FC000
FC00000FC000
FE00001FC000
FE00001FC000
FE00001FC000
7E00001FC000
7F00003FC000
7F00003FC000
3F80007FC000
3F80007FC000
3FC000FFC000
1FE001FFC000
0FF807FFC000
0FFFFFFFC000
07FFFFEFC000
03FFFFCFC000
00FFFF8FC000
007FFE000000
000FF0000000
ENDCHAR
STARTCHAR 0110
ENCODING 272
SWIDTH 720 0
DWIDTH 52 0
BBX 47 53 1 0
BITMAP
07FFFFFE0000
07FFFFFFC000
07FFFFFFF000
07FFFFFFFC00
07FFFFFFFE00
07FFFFFFFF00
07F00007FF80
07F00000FFC0
07F000003FE0
07F000001FE0
07F000000FF0
07F0000007F0
07F0000007F8
07F0000003F8
07F0000003FC
07F0000001FC
07F0000001FC
07F0000000FC
07F0000000FE
07F0000000FE
07F0000000FE
07F0000000FE
07F0000000FE
FFFFFF0000FE
FFFFFF0000FE
FFFFFF0000FE
FFFFFF0000FE
FFFFFF0000FE
07F0000000FE
07F0000000FE
07F0000000FE
07F0000000FE
07F0000000FE
07F0000000FE
07F0000000FC
07F0000001FC
07F0000001FC
07F0000001FC
07F0000003F8
07F0000003F8
07F0000007F8
07F0000007F0
07F000000FF0
07F000001FE0
07F000003FC0
07F00000FFC0
07F00007FF80
07FFFFFFFF00
07FFFFFFFE00
07FFFFFFFC00
07FFFFFFF000
07FFFFFFC000
07FFFFFE0000
ENDCHAR
STARTCHAR 0111
ENCODING 273
SWIDTH 553 0
DWIDTH 40 0
BBX 38 55 2 -2
BITMAP
0000000FC0
0000000FC0
0000000FC0
0000000FC0
0000000FC0
0000000FC0
00007FFFFC
00007FFFFC
00007FFFFC
00007FFFFC
0000000FC0
0000000FC0
0000000FC0
0000000FC0
000FF00FC0
007FFE0FC0
00FFFF8FC0
03FFFFCFC0
07FFFFEFC0
0FFFFFFFC0
0FFC0FFFC0
1FF003FFC0
3FC000FFC0
3FC0007FC0
3F80007FC0
7F00003FC0
7F00003FC0
7E00001FC0
FE00001FC0
FE00001FC0
FE00001FC0
FC00000FC0
FC00000FC0
FC00000FC0
FC00000FC0
FC00000FC0
FC00000FC0
FC00000FC0
FE00001FC0
FE00001FC0
7E00001FC0
7E00001FC0
7F00003FC0
7F00003FC0
3F80007FC0
3FC0007FC0
1FE000FFC0
1FF003FFC0
0FFC07FFC0
07FFFFFFC0
07FFFFEFC0
03FFFFCFC0
00FFFF8FC0
007FFE0000
000FF00000
ENDCHAR
STARTCHAR 0112
ENCODING 274
SWIDTH 664 0
DWIDTH 48 0
BBX 38 65 6 0
BITMAP
007FFFF800
007FFFF800
007FFFF800
007FFFF800
007FFFF800
0000000000
0000000000
0000000000
0000000000
0000000000
0000000000
0000000000
FFFFFFFFF8
FFFFFFFFF8
FFFFFFFFF8
FFFFFFFFF8
FFFFFFFFF8
FFFFFFFFF8
FE00000000
FE00000000
FE00000000
FE00000000
FE00000000
FE00000000
FE00000000
FE00000000
FE00000000
FE00000000
FE00000000
FE00000000
FE00000000
FE00000000
FE00000000
FE00000000
FE00000000
FFFFFFFFF0
FFFFFFFFF0
FFFFFFFFF0
FFFFFFFFF0
FFFFFFFFF0
FFFFFFFFF0
FE00000000
FE00000000
FE00000000
FE00000000
FE00000000
FE00000000
FE00000000
FE00000000
FE00000000
FE00000000
FE00000000
FE00000000
FE00000000
FE00000000
FE00000000
FE00000000
FE00000000
FE00000000
FFFFFFFFFC
FFFFFFFFFC
FFFFFFFFFC
FFFFFFFFFC
FFFFFFFFFC
FFFFFFFFFC
ENDCHAR
STARTCHAR 0113
ENCODING 275
SWIDTH 553 0
DWIDTH 40 0
BBX 34 53 3 -2
BITMAP
00FFFFE000
00FFFFE000
00FFFFE000
00FFFFE000
00FFFFE000
0000000000
0000000000
0000000000
0000000000
0000000000
0000000000
0000000000
0007FC0000
003FFF8000
00FFFFC000
01FFFFF000
03FFFFF800
07FFFFFC00
0FF807FE00
1FE001FE00
1FC000FF00
3F80007F00
3F00003F80
7F00003F80
7E00001F80
7E00001FC0
7E00001FC0
FE00001FC0
FC00000FC0
FFFFFFFFC0
FFFFFFFFC0
FFFFFFFFC0
FFFFFFFFC0
FFFFFFFFC0
FC00000000
FC00000000
FC00000000
FC00000000
FE00000000
7E00000000
7E00001F80
7F00003F80
3F00003F80
3F80007F00
3FC0007F00
1FE001FE00
0FF803FE00
0FFFFFFC00
07FFFFF800
03FFFFF000
00FFFFC000
003FFF8000
0007F80000
ENDCHAR
STARTCHAR 0114
ENCODING 276
SWIDTH 664 0
DWIDTH 48 0
BBX 38 68 6 0
BITMAP
00F0003C00
00F8007C00
00F8007800
00FC00F800
007F03F800
007FFFF000
003FFFF000
001FFFE000
000FFF8000
0001FE0000
0000000000
0000000000
0000000000
0000000000
0000000000
FFFFFFFFF8
FFFFFFFFF8
FFFFFFFFF8
FFFFFFFFF8
FFFFFFFFF8
FFFFFFFFF8
FE00000000
FE00000000
FE00000000
FE00000000
FE00000000
FE00000000
FE00000000
FE00000000
FE00000000
FE00000000
FE00000000
FE00000000
FE00000000
FE00000000
FE00000000
FE00000000
FE00000000
FFFFFFFFF0
FFFFFFFFF0
FFFFFFFFF0
FFFFFFFFF0
FFFFFFFFF0
FFFFFFFFF0
FE00000000
FE00000000
FE00000000
FE00000000
FE00000000
FE00000000
FE00000000
FE00000000
FE00000000
FE00000000
FE00000000
FE00000000
FE00000000
FE00000000
FE00000000
FE00000000
FE00000000
FE00000000
FFFFFFFFFC
FFFFFFFFFC
FFFFFFFFFC
FFFFFFFFFC
FFFFFFFFFC
FFFFFFFFFC
ENDCHAR
STARTCHAR 0115
ENCODING 277
SWIDTH 553 0
DWIDTH 40 0
BBX 34 55 3 -2
BITMAP
01E000F800
01E000F000
01F000F000
01F801F000
00FE07F000
00FFFFE000
007FFFC000
003FFF8000
001FFF0000
0003F80000
0000000000
0000000000
0000000000
0000000000
0007FC0000
003FFF8000
00FFFFC000
01FFFFF000
03FFFFF800
07FFFFFC00
0FF807FE00
1FE001FE00
1FC000FF00
3F80007F00
3F00003F80
7F00003F80
7E00001F80
7E00001FC0
7E00001FC0
FE00001FC0
FC00000FC0
FFFFFFFFC0
FFFFFFFFC0
FFFFFFFFC0
FFFFFFFFC0
FFFFFFFFC0
FC00000000
FC00000000
FC00000000
FC00000000
FE00000000
7E00000000
7E00001F80
7F00003F80
3F00003F80
3F80007F00
3FC0007F00
1FE001FE00
0FF803FE00
0FFFFFFC00
07FFFFF800
03FFFFF000
00FFFFC000
003FFF8000
0007F80000
ENDCHAR
STARTCHAR 0116
ENCODING 278
SWIDTH 664 0
DWIDTH 48 0
BBX 38 67 6 0
BITMAP
0001FE0000
0001FE0000
0001FE0000
0001FE0000
0001FE0000
0001FE0000
0001FE0000
0001FE0000
0000000000
0000000000
0000000000
0000000000
0000000000
0000000000
FFFFFFFFF8
FFFFFFFFF8
FFFFFFFFF8
FFFFFFFFF8
FFFFFFFFF8
FFFFFFFFF8
FE00000000
FE00000000
FE00000000
FE00000000
FE00000000
FE00000000
FE00000000
FE00000000
FE00000000
FE00000000
FE00000000
FE00000000
FE00000000
FE00000000
FE00000000
FE00000000
FE00000000
FFFFFFFFF0
FFFFFFFFF0
FFFFFFFFF0
FFFFFFFFF0
FFFFFFFFF0
FFFFFFFFF0
FE00000000
FE00000000
FE00000000
FE00000000
FE00000000
FE00000000
FE00000000
FE00000000
FE00000000
FE00000000
FE00000000
FE00000000
FE00000000
FE00000000
FE00000000
FE00000000
FE00000000
FE00000000
FFFFFFFFFC
FFFFFFFFFC
FFFFFFFFFC
FFFFFFFFFC
FFFFFFFFFC
FFFFFFFFFC
ENDCHAR
STARTCHAR 0117
ENCODING 279
SWIDTH 553 0
DWIDTH 40 0
BBX 34 54 3 -2
BITMAP
0003F80000
0003F80000
0003F80000
0003F80000
0003F80000
0003F80000
0003F80000
0003F80000
0000000000
0000000000
0000000000
0000000000
0000000000
0007FC0000
003FFF8000
00FFFFC000
01FFFFF000
03FFFFF800
07FFFFFC00
0FF807FE00
1FE001FE00
1FC000FF00
3F80007F00
3F00003F80
7F00003F80
7E00001F80
7E00001FC0
7E00001FC0
FE00001FC0
FC00000FC0
FFFFFFFFC0
FFFFFFFFC0
FFFFFFFFC0
FFFFFFFFC0
FFFFFFFFC0
FC00000000
FC00000000
FC00000000
FC00000000
FE00000000
7E00000000
7E00001F80
7F00003F80
3F00003F80
3F80007F00
3FC0007F00
1FE001FE00
0FF803FE00
0FFFFFFC00
07FFFFF800
03FFFFF000
00FFFFC000
003FFF8000
0007F80000
ENDCHAR
STARTCHAR 0118
ENCODING 280
SWIDTH 664 0
DWIDTH 48 0
BBX 41 68 6 -15
BITMAP
FFFFFFFFF800
FFFFFFFFF800
FFFFFFFFF800
FFFFFFFFF800
FFFFFFFFF800
FFFFFFFFF800
FE0000000000
FE0000000000
FE0000000000
FE0000000000
FE0000000000
FE0000000000
FE0000000000
FE0000000000
FE0000000000
FE0000000000
FE0000000000
FE0000000000
FE0000000000
FE0000000000
FE0000000000
FE0000000000
FE0000000000
FFFFFFFFF000
FFFFFFFFF000
FFFFFFFFF000
FFFFFFFFF000
FFFFFFFFF000
FFFFFFFFF000
FE0000000000
FE0000000000
FE0000000000
FE0000000000
FE0000000000
FE0000000000
FE0000000000
FE0000000000
FE0000000000
FE0000000000
FE0000000000
FE0000000000
FE0000000000
FE0000000000
FE0000000000
FE0000000000
FE0000000000
FE0000000000
FFFFFFFFFC00
FFFFFFFFFC00
FFFFFFFFFC00
FFFFFFFFFC00
FFFFFFFFFC00
FFFFFFFFFC00
00000000F800
00000003F000
00000007C000
0000000F8000
0000001F0000
0000001F0000
0000003E0000
0000003E0000
0000003E0000
0000003F0000
0000003F0000
0000001FC180
0000000FFF80
00000007FF80
00000000FF00
ENDCHAR
STARTCHAR 0119
ENCODING 281
SWIDTH 553 0
DWIDTH 40 0
BBX 34 54 3 -15
BITMAP
0007FC0000
003FFF8000
00FFFFC000
01FFFFF000
03FFFFF800
07FFFFFC00
0FF803FE00
1FE001FE00
1FC000FF00
3F80007F00
3F00003F80
7F00003F80
7E00001F80
7E00001FC0
7E00001FC0
FE00000FC0
FC00000FC0
FFFFFFFFC0
FFFFFFFFC0
FFFFFFFFC0
FFFFFFFFC0
FFFFFFFFC0
FC00000000
FC00000000
FC00000000
FE00000000
FE00000000
7E00000000
7E00001F80
7F00001F80
3F00003F80
3F80007F00
3FC0007F00
1FE001FE00
0FF803FE00
0FFFBFFC00
07FFFFF800
03FFFFF000
00FFFFE000
003FFFC000
0007FF8000
0000078000
00000F0000
00001E0000
00003E0000
00003E0000
00007C0000
00007C0000
00007E0000
00007E0000
00003F8100
00001FFF00
00000FFF00
000001FE00
ENDCHAR
STARTCHAR 011A
ENCODING 282
SWIDTH 664 0
DWIDTH 48 0
BBX 38 68 6 0
BITMAP
007C00F800
003E01F000
003E03E000
001F03E000
000F87C000
000FCFC000
0007FF8000
0007FF0000
0003FF0000
0001FE0000
0001FC0000
0000000000
0000000000
0000000000
0000000000
FFFFFFFFF8
FFFFFFFFF8
FFFFFFFFF8
FFFFFFFFF8
FFFFFFFFF8
FFFFFFFFF8
FE00000000
FE00000000
FE00000000
FE00000000
FE00000000
FE00000000
FE00000000
FE00000000
FE00000000
FE00000000
FE00000000
FE00000000
FE00000000
FE00000000
FE00000000
FE00000000
FE00000000
FFFFFFFFF0
FFFFFFFFF0
FFFFFFFFF0
FFFFFFFFF0
FFFFFFFFF0
FFFFFFFFF0
FE00000000
FE00000000
FE00000000
FE00000000
FE00000000
FE00000000
FE00000000
FE00000000
FE00000000
FE00000000
FE00000000
FE00000000
FE00000000
FE00000000
FE00000000
FE00000000
FE00000000
FE00000000
FFFFFFFFFC
FFFFFFFFFC
FFFFFFFFFC
FFFFFFFFFC
FFFFFFFFFC
FFFFFFFFFC
ENDCHAR
STARTCHAR 011B
ENCODING 283
SWIDTH 553 0
DWIDTH 40 0
BBX 34 56 3 -2
BITMAP
00F001F000
00F803E000
007C07C000
007E07C000
003F0F8000
001F1F8000
001FBF0000
000FFE0000
0007FE0000
0007FC0000
0003FC0000
0000000000
0000000000
0000000000
0000000000
0007FC0000
003FFF8000
00FFFFC000
01FFFFF000
03FFFFF800
07FFFFFC00
0FF807FE00
1FE001FE00
1FC000FF00
3F80007F00
3F00003F80
7F00003F80
7E00001F80
7E00001FC0
7E00001FC0
FE00001FC0
FC00000FC0
FFFFFFFFC0
FFFFFFFFC0
FFFFFFFFC0
FFFFFFFFC0
FFFFFFFFC0
FC00000000
FC00000000
FC00000000
FC00000000
FE00000000
7E00000000
7E00001F80
7F00003F80
3F00003F80
3F80007F00
3FC0007F00
1FE001FE00
0FF803FE00
0FFFFFFC00
07FFFFF800
03FFFFF000
00FFFFC000
003FFF8000
0007F80000
ENDCHAR
STARTCHAR 011C
ENCODING 284
SWIDTH 775 0
DWIDTH 56 0
BBX 48 70 3 -2
BITMAP
000007F80000
00000FF80000
00000FFC0000
00001FFE0000
00003F3E0000
00003E1F0000
00007C1F8000
0000FC0F8000
0000F807C000
0001F003E000
000000000000
000000000000
000000000000
000000000000
00000FFE0000
0000FFFFE000
0003FFFFF800
000FFFFFFE00
003FFFFFFF00
007FFFFFFFC0
00FFF803FFE0
01FFC0007FE0
03FF00001FF0
03FC00000FF8
07F8000007F8
0FF0000003FC
0FF0000001FC
1FE0000001FE
1FC0000000FE
3FC0000000FE
3F80000000FE
3F8000000000
7F0000000000
7F0000000000
7F0000000000
7F0000000000
7E0000000000
FE0000000000
FE0000000000
FE0000000000
FE00003FFFFF
FE00003FFFFF
FE00003FFFFF
FE00003FFFFF
FE00003FFFFF
FE00003FFFFF
FE000000003F
7E000000003F
7F000000003F
7F000000003F
7F000000003F
7F800000003F
3F800000003F
3F800000007F
3FC00000007F
1FC0000000FF
1FE0000000FF
0FF0000001FF
0FF0000001FF
07F8000003FF
03FE00000FFF
03FF00001FFF
01FFC0007FBF
00FFF803FF1F
007FFFFFFE1F
003FFFFFFC1F
000FFFFFF81F
0003FFFFE00F
0000FFFF800F
00001FF80000
ENDCHAR
STARTCHAR 011D
ENCODING 285
SWIDTH 553 0
DWIDTH 40 0
BBX 32 70 3 -16
BITMAP
0007F000
000FF800
000FFC00
001FFC00
003F7E00
003E3F00
007E1F00
007C0F80
00F80F80
01F007C0
01E003E0
00000000
00000000
00000000
00000000
001FE000
007FF83F
01FFFE3F
03FFFF3F
07FFFFBF
0FFFFFFF
1FF00FFF
1FC007FF
3F8003FF
3F0001FF
7F0000FF
7E0000FF
7E0000FF
FE00007F
FC00007F
FC00007F
FC00007F
FC00007F
FC00003F
FC00003F
FC00003F
FC00003F
FC00003F
FC00003F
FC00007F
FC00007F
FC00007F
FE00007F
FE00007F
7E0000FF
7F0000FF
3F0001FF
3F8003FF
1FC007FF
1FF00FBF
0FFFFFBF
07FFFF3F
03FFFE3F
01FFFC3F
007FF07F
001FC07E
0000007E
0000007E
0000007E
7E00007E
7E0000FC
7F0000FC
3F0001FC
3FC003F8
1FF01FF0
0FFFFFF0
0FFFFFC0
03FFFF80
01FFFE00
003FF000
ENDCHAR
STARTCHAR 011E
ENCODING 286
SWIDTH 775 0
DWIDTH 56 0
BBX 48 70 3 -2
BITMAP
0001E0007800
0001F000F800
0001F000F000
0001F801F000
0000FE07F000
0000FFFFE000
00007FFFE000
00003FFFC000
00001FFF0000
000003FC0000
000000000000
000000000000
000000000000
000000000000
00000FFE0000
0000FFFFE000
0003FFFFF800
000FFFFFFE00
003FFFFFFF00
007FFFFFFFC0
00FFF803FFE0
01FFC0007FE0
03FF00001FF0
03FC00000FF8
07F8000007F8
0FF0000003FC
0FF0000001FC
1FE0000001FE
1FC0000000FE
3FC0000000FE
3F80000000FE
3F8000000000
7F0000000000
7F0000000000
7F0000000000
7F0000000000
7E0000000000
FE0000000000
FE0000000000
FE0000000000
FE00003FFFFF
FE00003FFFFF
FE00003FFFFF
FE00003FFFFF
FE00003FFFFF
FE00003FFFFF
FE000000003F
7E000000003F
7F000000003F
7F000000003F
7F000000003F
7F800000003F
3F800000003F
3F800000007F
3FC00000007F
1FC0000000FF
1FE0000000FF
0FF0000001FF
0FF0000001FF
07F8000003FF
03FE00000FFF
03FF00001FFF
01FFC0007FBF
00FFF803FF1F
007FFFFFFE1F
003FFFFFFC1F
000FFFFFF81F
0003FFFFE00F
0000FFFF800F
00001FF80000
ENDCHAR
STARTCHAR 011F
ENCODING 287
SWIDTH 553 0
DWIDTH 40 0
BBX 32 69 3 -16
BITMAP
03C001E0
03C001E0
03E003E0
03F007E0
03F80FC0
01FFFFC0
00FFFF80
007FFF00
003FFE00
0007F000
00000000
00000000
00000000
00000000
001FE000
007FF83F
01FFFE3F
03FFFF3F
07FFFFBF
0FFFFFFF
1FF00FFF
1FC007FF
3F8003FF
3F0001FF
7F0000FF
7E0000FF
7E0000FF
FE00007F
FC00007F
FC00007F
FC00007F
FC00007F
FC00003F
FC00003F
FC00003F
FC00003F
FC00003F
FC00003F
FC00007F
FC00007F
FC00007F
FE00007F
FE00007F
7E0000FF
7F0000FF
3F0001FF
3F8003FF
1FC007FF
1FF00FBF
0FFFFFBF
07FFFF3F
03FFFE3F
01FFFC3F
007FF07F
001FC07E
0000007E
0000007E
0000007E
7E00007E
7E0000FC
7F0000FC
3F0001FC
3FC003F8
1FF01FF0
0FFFFFF0
0FFFFFC0
03FFFF80
01FFFE00
003FF000
ENDCHAR
STARTCHAR 0120
ENCODING 288
SWIDTH 775 0
DWIDTH 56 0
BBX 48 69 3 -2
BITMAP
000007F80000
000007F80000
000007F80000
000007F80000
000007F80000
000007F80000
000007F80000
000007F80000
000000000000
000000000000
000000000000
000000000000
000000000000
00000FFE0000
0000FFFFE000
0003FFFFF800
000FFFFFFE00
003FFFFFFF00
007FFFFFFFC0
00FFF803FFE0
01FFC0007FE0
03FF00001FF0
03FC00000FF8
07F8000007F8
0FF0000003FC
0FF0000001FC
1FE0000001FE
1FC0000000FE
3FC0000000FE
3F80000000FE
3F8000000000
7F0000000000
7F0000000000
7F0000000000
7F0000000000
7E0000000000
FE0000000000
FE0000000000
FE0000000000
FE00003FFFFF
FE00003FFFFF
FE00003FFFFF
FE00003FFFFF
FE00003FFFFF
FE00003FFFFF
FE000000003F
7E000000003F
7F000000003F
7F000000003F
7F000000003F
7F800000003F
3F800000003F
3F800000007F
3FC00000007F
1FC0000000FF
1FE0000000FF
0FF0000001FF
0FF0000001FF
07F8000003FF
03FE00000FFF
03FF00001FFF
01FFC0007FBF
00FFF803FF1F
007FFFFFFE1F
003FFFFFFC1F
000FFFFFF81F
0003FFFFE00F
0000FFFF800F
00001FF80000
ENDCHAR
STARTCHAR 0121
ENCODING 289
SWIDTH 553 0
DWIDTH 40 0
BBX 32 68 3 -16
BITMAP
000FF000
000FF000
000FF000
000FF000
000FF000
000FF000
000FF000
00000000
00000000
00000000
00000000
00000000
00000000
001FE000
007FF83F
01FFFE3F
03FFFF3F
07FFFFBF
0FFFFFFF
1FF00FFF
1FC007FF
3F8003FF
3F0001FF
7F0000FF
7E0000FF
7E0000FF
FE00007F
FC00007F
FC00007F
FC00007F
FC00007F
FC00003F
FC00003F
FC00003F
FC00003F
FC00003F
FC00003F
FC00007F
FC00007F
FC00007F
FE00007F
FE00007F
7E0000FF
7F0000FF
3F0001FF
3F8003FF
1FC007FF
1FF00FBF
0FFFFFBF
07FFFF3F
03FFFE3F
01FFFC3F
007FF07F
001FC07E
0000007E
0000007E
0000007E
7E00007E
7E0000FC
7F0000FC
3F0001FC
3FC003F8
1FF01FF0
0FFFFFF0
0FFFFFC0
03FFFF80
01FFFE00
003FF000
ENDCHAR
STARTCHAR 0122
ENCODING 290
SWIDTH 775 0
DWIDTH 56 0
BBX 48 75 3 -21
BITMAP
00000FFE0000
0000FFFFE000
0003FFFFF800
000FFFFFFE00
003FFFFFFF00
007FFFFFFFC0
00FFF803FFE0
01FFC0007FE0
03FF00001FF0
03FC00000FF8
07F8000007F8
0FF0000003FC
0FF0000001FC
1FE0000001FE
1FC0000000FE
3FC0000000FE
3F80000000FE
3F8000000000
7F0000000000
7F0000000000
7F0000000000
7F0000000000
7E0000000000
FE0000000000
FE0000000000
FE0000000000
FE00003FFFFF
FE00003FFFFF
FE00003FFFFF
FE00003FFFFF
FE00003FFFFF
FE00003FFFFF
FE000000003F
7E000000003F
7F000000003F
7F000000003F
7F000000003F
7F800000003F
3F800000003F
3F800000007F
3FC00000007F
1FC0000000FF
1FE0000000FF
0FF0000001FF
0FF0000001FF
07F8000003FF
03FE00000FFF
03FF00001FFF
01FFC0007FBF
00FFF803FF1F
007FFFFFFE1F
003FFFFFFC1F
000FFFFFF81F
0003FFFFE00F
0000FFFF800F
00001FF80000
000000000000
000000000000
000000000000
000007F80000
000007F80000
000007F80000
000007F80000
000007F80000
000007F80000
000007F80000
000000780000
000000780000
000000700000
000000700000
000000F00000
000000E00000
000007E00000
000007C00000
000007000000
ENDCHAR
STARTCHAR 0123
ENCODING 291
SWIDTH 553 0
DWIDTH 40 0
BBX 32 75 3 -16
BITMAP
00007000
0001F000
0003F000
0003C000
00078000
00070000
00070000
00070000
00070000
0007F000
0007F000
0007F000
0007F000
0007F000
0007F000
0007F000
00000000
00000000
00000000
00000000
001FE000
007FF83F
01FFFE3F
03FFFF3F
07FFFFBF
0FFFFFFF
1FF00FFF
1FC007FF
3F8003FF
3F0001FF
7F0000FF
7E0000FF
7E0000FF
FE00007F
FC00007F
FC00007F
FC00007F
FC00007F
FC00003F
FC00003F
FC00003F
FC00003F
FC00003F
FC00003F
FC00007F
FC00007F
FC00007F
FE00007F
FE00007F
7E0000FF
7F0000FF
3F0001FF
3F8003FF
1FC007FF
1FF00FBF
0FFFFFBF
07FFFF3F
03FFFE3F
01FFFC3F
007FF07F
001FC07E
0000007E
0000007E
0000007E
7E00007E
7E0000FC
7F0000FC
3F0001FC
3FC003F8
1FF01FF0
0FFFFFF0
0FFFFFC0
03FFFF80
01FFFE00
003FF000
ENDCHAR
STARTCHAR 0124
ENCODING 292
SWIDTH 720 0
DWIDTH 52 0
BBX 41 68 6 0
BITMAP
00007F800000
0000FF800000
0000FFC00000
0001FFE00000
0003F7E00000
0003E3F00000
0007C1F80000
000FC0F80000
000F807C0000
001F003E0000
001E001E0000
000000000000
000000000000
000000000000
000000000000
FE0000003F80
FE0000003F80
FE0000003F80
FE0000003F80
FE0000003F80
FE0000003F80
FE0000003F80
FE0000003F80
FE0000003F80
FE0000003F80
FE0000003F80
FE0000003F80
FE0000003F80
FE0000003F80
FE0000003F80
FE0000003F80
FE0000003F80
FE0000003F80
FE0000003F80
FE0000003F80
FE0000003F80
FE0000003F80
FE0000003F80
FFFFFFFFFF80
FFFFFFFFFF80
FFFFFFFFFF80
FFFFFFFFFF80
FFFFFFFFFF80
FFFFFFFFFF80
FE0000003F80
FE0000003F80
FE0000003F80
FE0000003F80
FE0000003F80
FE0000003F80
FE0000003F80
FE0000003F80
FE0000003F80
FE0000003F80
FE0000003F80
FE0000003F80
FE0000003F80
FE0000003F80
FE0000003F80
FE0000003F80
FE0000003F80
FE0000003F80
FE0000003F80
FE0000003F80
FE0000003F80
FE0000003F80
FE0000003F80
FE0000003F80
ENDCHAR
STARTCHAR 0125
ENCODING 293
SWIDTH 553 0
DWIDTH 40 0
BBX 37 68 -2 0
BITMAP
03FC000000
03FE000000
07FE000000
0FFF000000
0F9F800000
1F8F800000
3F07C00000
3E07E00000
7C03E00000
7801F00000
F800F00000
0000000000
0000000000
0000000000
0000000000
01F8000000
01F8000000
01F8000000
01F8000000
01F8000000
01F8000000
01F8000000
01F8000000
01F8000000
01F8000000
01F8000000
01F8000000
01F8000000
01F8000000
01F807F800
01F83FFF00
01F87FFFC0
01F8FFFFE0
01F9FFFFF0
01FBF87FF0
01FFE00FF8
01FF8007F8
01FF0003F8
01FE0001F8
01FE0001F8
01FC0001F8
01FC0001F8
01FC0001F8
01F80001F8
01F80001F8
01F80001F8
01F80001F8
01F80001F8
01F80001F8
01F80001F8
01F80001F8
01F80001F8
01F80001F8
01F80001F8
01F80001F8
01F80001F8
01F80001F8
01F80001F8
01F80001F8
01F80001F8
01F80001F8
01F80001F8
01F80001F8
01F80001F8
01F80001F8
01F80001F8
01F80001F8
01F80001F8
ENDCHAR
STARTCHAR 0126
ENCODING 294
SWIDTH 720 0
DWIDTH 52 0
BBX 51 53 1 0
BITMAP
07F0000001FC00
07F0000001FC00
07F0000001FC00
07F0000001FC00
07F0000001FC00
07F0000001FC00
07F0000001FC00
07F0000001FC00
07F0000001FC00
07F0000001FC00
07F0000001FC00
FFFFFFFFFFFFE0
FFFFFFFFFFFFE0
FFFFFFFFFFFFE0
FFFFFFFFFFFFE0
FFFFFFFFFFFFE0
07F0000001FC00
07F0000001FC00
07F0000001FC00
07F0000001FC00
07F0000001FC00
07F0000001FC00
07F0000001FC00
07FFFFFFFFFC00
07FFFFFFFFFC00
07FFFFFFFFFC00
07FFFFFFFFFC00
07FFFFFFFFFC00
07FFFFFFFFFC00
07F0000001FC00
07F0000001FC00
07F0000001FC00
07F0000001FC00
07F0000001FC00
07F0000001FC00
07F0000001FC00
07F0000001FC00
07F0000001FC00
07F0000001FC00
07F0000001FC00
07F0000001FC00
07F0000001FC00
07F0000001FC00
07F0000001FC00
07F0000001FC00
07F0000001FC00
07F0000001FC00
07F0000001FC00
07F0000001FC00
07F0000001FC00
07F0000001FC00
07F0000001FC00
07F0000001FC00
ENDCHAR
STARTCHAR 0127
ENCODING 295
SWIDTH 553 0
DWIDTH 40 0
BBX 34 53 1 0
BITMAP
0FC0000000
0FC0000000
0FC0000000
0FC0000000
0FC0000000
0FC0000000
FFFFFF8000
FFFFFF8000
FFFFFF8000
FFFFFF8000
0FC0000000
0FC0000000
0FC0000000
0FC0000000
0FC03FC000
0FC1FFF800
0FC3FFFE00
0FC7FFFF00
0FCFFFFF80
0FDFC3FF80
0FFF007FC0
0FFC003FC0
0FF8001FC0
0FF0000FC0
0FF0000FC0
0FE0000FC0
0FE0000FC0
0FE0000FC0
0FC0000FC0
0FC0000FC0
0FC0000FC0
0FC0000FC0
0FC0000FC0
0FC0000FC0
0FC0000FC0
0FC0000FC0
0FC0000FC0
0FC0000FC0
0FC0000FC0
0FC0000FC0
0FC0000FC0
0FC0000FC0
0FC0000FC0
0FC0000FC0
0FC0000FC0
0FC0000FC0
0FC0000FC0
0FC0000FC0
0FC0000FC0
0FC0000FC0
0FC0000FC0
0FC0000FC0
0FC0000FC0
ENDCHAR
STARTCHAR 0128
ENCODING 296
SWIDTH 276 0
DWIDTH 20 0
BBX 23 67 -2 0
BITMAP
07801E
1FE03E
3FF83E
3FFFFC
7FFFFC
7C7FF8
780FF0
F803E0
000000
000000
000000
000000
000000
000000
007F00
007F00
007F00
007F00
007F00
007F00
007F00
007F00
007F00
007F00
007F00
007F00
007F00
007F00
007F00
007F00
007F00
007F00
007F00
007F00
007F00
007F00
007F00
007F00
007F00
007F00
007F00
007F00
007F00
007F00
007F00
007F00
007F00
007F00
007F00
007F00
007F00
007F00
007F00
007F00
007F00
007F00
007F00
007F00
007F00
007F00
007F00
007F00
007F00
007F00
007F00
007F00
007F00
ENDCHAR
STARTCHAR 0129
ENCODING 297
SWIDTH 276 0
DWIDTH 20 0
BBX 22 52 -1 0
BITMAP
1F003C
3FC07C
7FF878
7FFFF8
FFFFF8
F07FF0
F01FE0
000780
000000
000000
000000
000000
000000
000000
00FC00
00FC00
00FC00
00FC00
00FC00
00FC00
00FC00
00FC00
00FC00
00FC00
00FC00
00FC00
00FC00
00FC00
00FC00
00FC00
00FC00
00FC00
00FC00
00FC00
00FC00
00FC00
00FC00
00FC00
00FC00
00FC00
00FC00
00FC00
00FC00
00FC00
00FC00
00FC00
00FC00
00FC00
00FC00
00FC00
00FC00
00FC00
ENDCHAR
STARTCHAR 012A
ENCODING 298
SWIDTH 276 0
DWIDTH 20 0
BBX 19 65 1 0
BITMAP
FFFFE0
FFFFE0
FFFFE0
FFFFE0
FFFFE0
000000
000000
000000
000000
000000
000000
000000
03F800
03F800
03F800
03F800
03F800
03F800
03F800
03F800
03F800
03F800
03F800
03F800
03F800
03F800
03F800
03F800
03F800
03F800
03F800
03F800
03F800
03F800
03F800
03F800
03F800
03F800
03F800
03F800
03F800
03F800
03F800
03F800
03F800
03F800
03F800
03F800
03F800
03F800
03F800
03F800
03F800
03F800
03F800
03F800
03F800
03F800
03F800
03F800
03F800
03F800
03F800
03F800
03F800
ENDCHAR
STARTCHAR 012B
ENCODING 299
SWIDTH 276 0
DWIDTH 20 0
BBX 18 51 1 0
BITMAP
FFFFC0
FFFFC0
FFFFC0
FFFFC0
FFFFC0
000000
000000
000000
000000
000000
000000
000000
000000
03F000
03F000
03F000
03F000
03F000
03F000
03F000
03F000
03F000
03F000
03F000
03F000
03F000
03F000
03F000
03F000
03F000
03F000
03F000
03F000
03F000
03F000
03F000
03F000
03F000
03F000
03F000
03F000
03F000
03F000
03F000
03F000
03F000
03F000
03F000
03F000
03F000
03F000
ENDCHAR
STARTCHAR 012C
ENCODING 300
SWIDTH 276 0
DWIDTH 20 0
BBX 22 68 -1 0
BITMAP
F0003C
F8007C
F8007C
FC00F8
7F03F8
7FFFF0
3FFFF0
1FFFE0
07FF80
01FE00
000000
000000
000000
000000
000000
00FE00
00FE00
00FE00
00FE00
00FE00
00FE00
00FE00
00FE00
00FE00
00FE00
00FE00
00FE00
00FE00
00FE00
00FE00
00FE00
00FE00
00FE00
00FE00
00FE00
00FE00
00FE00
00FE00
00FE00
00FE00
00FE00
00FE00
00FE00
00FE00
00FE00
00FE00
00FE00
00FE00
00FE00
00FE00
00FE00
00FE00
00FE00
00FE00
00FE00
00FE00
00FE00
00FE00
00FE00
00FE00
00FE00
00FE00
00FE00
00FE00
00FE00
00FE00
00FE00
00FE00
ENDCHAR
STARTCHAR 012D
ENCODING 301
SWIDTH 276 0
DWIDTH 20 0
BBX 22 53 -1 0
BITMAP
F8003C
F8007C
F80078
7C00F8
7F03F8
7FFFF0
3FFFF0
1FFFE0
07FF80
01FE00
000000
000000
000000
000000
000000
00FC00
00FC00
00FC00
00FC00
00FC00
00FC00
00FC00
00FC00
00FC00
00FC00
00FC00
00FC00
00FC00
00FC00
00FC00
00FC00
00FC00
00FC00
00FC00
00FC00
00FC00
00FC00
00FC00
00FC00
00FC00
00FC00
00FC00
00FC00
00FC00
00FC00
00FC00
00FC00
00FC00
00FC00
00FC00
00FC00
00FC00
00FC00
ENDCHAR
STARTCHAR 012E
ENCODING 302
SWIDTH 276 0
DWIDTH 20 0
BBX 12 68 5 -15
BITMAP
3F80
3F80
3F80
3F80
3F80
3F80
3F80
3F80
3F80
3F80
3F80
3F80
3F80
3F80
3F80
3F80
3F80
3F80
3F80
3F80
3F80
3F80
3F80
3F80
3F80
3F80
3F80
3F80
3F80
3F80
3F80
3F80
3F80
3F80
3F80
3F80
3F80
3F80
3F80
3F80
3F80
3F80
3F80
3F80
3F80
3F80
3F80
3F80
3F80
3F80
3F80
3F80
3F80
0780
0F00
3E00
3C00
7C00
F800
F800
F800
F800
F800
FC00
FE10
7FF0
3FF0
0FE0
ENDCHAR
STARTCHAR 012F
ENCODING 303
SWIDTH 221 0
DWIDTH 16 0
BBX 12 68 2 -15
BITMAP
1F80
1F80
1F80
1F80
1F80
1F80
1F80
1F80
0000
0000
0000
0000
0000
0000
0000
1F80
1F80
1F80
1F80
1F80
1F80
1F80
1F80
1F80
1F80
1F80
1F80
1F80
1F80
1F80
1F80
1F80
1F80
1F80
1F80
1F80
1F80
1F80
1F80
1F80
1F80
1F80
1F80
1F80
1F80
1F80
1F80
1F80
1F80
1F80
1F80
1F80
1F80
0700
0E00
3E00
3C00
7C00
F800
F800
F800
F800
F800
FC00
7E30
7FF0
3FF0
0FE0
ENDCHAR
STARTCHAR 0130
ENCODING 304
SWIDTH 276 0
DWIDTH 20 0
BBX 7 67 7 0
BITMAP
FE
FE
FE
FE
FE
FE
FE
FE
00
00
00
00
00
00
FE
FE
FE
FE
FE
FE
FE
FE
FE
FE
FE
FE
FE
FE
FE
FE
FE
FE
FE
FE
FE
FE
FE
FE
FE
FE
FE
FE
FE
FE
FE
FE
FE
FE
FE
FE
FE
FE
FE
FE
FE
FE
FE
FE
FE
FE
FE
FE
FE
FE
FE
FE
FE
ENDCHAR
STARTCHAR 0131
ENCODING 305
SWIDTH 276 0
DWIDTH 20 0
BBX 6 38 7 0
BITMAP
FC
FC
FC
FC
FC
FC
FC
FC
FC
FC
FC
FC
FC
FC
FC
FC
FC
FC
FC
FC
FC
FC
FC
FC
FC
FC
FC
FC
FC
FC
FC
FC
FC
FC
FC
FC
FC
FC
ENDCHAR
STARTCHAR 0132
ENCODING 306
SWIDTH 733 0
DWIDTH 53 0
BBX 40 55 7 -2
BITMAP
FE0000003F
FE0000003F
FE0000003F
FE0000003F
FE0000003F
FE0000003F
FE0000003F
FE0000003F
FE0000003F
FE0000003F
FE0000003F
FE0000003F
FE0000003F
FE0000003F
FE0000003F
FE0000003F
FE0000003F
FE0000003F
FE0000003F
FE0000003F
FE0000003F
FE0000003F
FE0000003F
FE0000003F
FE0000003F
FE0000003F
FE0000003F
FE0000003F
FE0000003F
FE0000003F
FE0000003F
FE0000003F
FE0000003F
FE0000003F
FE0000003F
FE0000003F
FE1FC0003F
FE1FC0003F
FE1FC0003F
FE1FC0003F
FE1FC0003F
FE1FC0007F
FE1FC0007F
FE1FC0007F
FE1FC0007F
FE1FE000FF
FE0FF000FE
FE0FF001FE
FE07FC07FC
FE07FFFFFC
FE03FFFFF8
FE01FFFFF0
FE00FFFFE0
00003FFF80
000007FC00
ENDCHAR
STARTCHAR 0133
ENCODING 307
SWIDTH 443 0
DWIDTH 32 0
BBX 20 69 6 -16
BITMAP
FC03F0
FC03F0
FC03F0
FC03F0
FC03F0
FC03F0
FC03F0
FC03F0
000000
000000
000000
000000
000000
000000
000000
FC03F0
FC03F0
FC03F0
FC03F0
FC03F0
FC03F0
FC03F0
FC03F0
FC03F0
FC03F0
FC03F0
FC03F0
FC03F0
FC03F0
FC03F0
FC03F0
FC03F0
FC03F0
FC03F0
FC03F0
FC03F0
FC03F0
FC03F0
FC03F0
FC03F0
FC03F0
FC03F0
FC03F0
FC03F0
FC03F0
FC03F0
FC03F0
FC03F0
FC03F0
FC03F0
FC03F0
FC03F0
FC03F0
0003F0
0003F0
0003F0
0003F0
0003F0
0003F0
0003F0
0003F0
0003F0
0007F0
000FF0
00FFF0
00FFE0
00FFC0
00FF80
00FC00
ENDCHAR
STARTCHAR 0134
ENCODING 308
SWIDTH 498 0
DWIDTH 36 0
BBX 36 70 1 -2
BITMAP
000003F800
000007FC00
00000FFE00
00000FFE00
00001FBF00
00003F1F80
00003E0F80
00007C07C0
0000F807C0
0000F803E0
0001F001F0
0000000000
0000000000
0000000000
0000000000
000001FC00
000001FC00
000001FC00
000001FC00
000001FC00
000001FC00
000001FC00
000001FC00
000001FC00
000001FC00
000001FC00
000001FC00
000001FC00
000001FC00
000001FC00
000001FC00
000001FC00
000001FC00
000001FC00
000001FC00
000001FC00
000001FC00
000001FC00
000001FC00
000001FC00
000001FC00
000001FC00
000001FC00
000001FC00
000001FC00
000001FC00
000001FC00
000001FC00
000001FC00
000001FC00
000001FC00
FE0001FC00
FE0001FC00
FE0001FC00
FE0001FC00
FE0001FC00
FE0001FC00
FE0001FC00
FF0001F800
7F0003F800
7F0003F800
7F8007F800
3FC00FF000
3FE01FF000
1FFFFFE000
1FFFFFC000
0FFFFF8000
03FFFF0000
01FFFC0000
003FE00000
ENDCHAR
STARTCHAR 0135
ENCODING 309
SWIDTH 221 0
DWIDTH 16 0
BBX 20 70 -2 -16
BITMAP
03FC00
07FC00
07FE00
0FFE00
0FBF00
1F1F80
3F0F80
3E07C0
7C07E0
F803E0
F001F0
000000
000000
000000
000000
000000
01F800
01F800
01F800
01F800
01F800
01F800
01F800
01F800
01F800
01F800
01F800
01F800
01F800
01F800
01F800
01F800
01F800
01F800
01F800
01F800
01F800
01F800
01F800
01F800
01F800
01F800
01F800
01F800
01F800
01F800
01F800
01F800
01F800
01F800
01F800
01F800
01F800
01F800
01F800
01F800
01F800
01F800
01F800
01F800
01F800
01F800
01F800
03F800
0FF800
7FF000
7FF000
7FE000
7FC000
7E0000
ENDCHAR
STARTCHAR 0136
ENCODING 310
SWIDTH 664 0
DWIDTH 48 0
BBX 41 73 6 -20
BITMAP
FC000000FF80
FC000001FF00
FC000003FE00
FC000007FC00
FC00000FF800
FC00001FF000
FC00003FE000
FC00007FC000
FC0000FF8000
FC0001FF0000
FC0003FE0000
FC0007FC0000
FC000FF80000
FC001FF00000
FC003FE00000
FC007FC00000
FC007F800000
FC00FF000000
FC01FE000000
FC03FC000000
FC07F8000000
FC0FF0000000
FC1FF0000000
FC3FF8000000
FC7FFC000000
FCFFFE000000
FDFDFE000000
FFF8FF000000
FFF07F800000
FFE03F800000
FFC03FC00000
FF801FE00000
FF000FE00000
FE000FF00000
FC0007F80000
FC0003F80000
FC0003FC0000
FC0001FE0000
FC0000FF0000
FC0000FF0000
FC00007F8000
FC00003FC000
FC00003FC000
FC00001FE000
FC00000FF000
FC00000FF000
FC000007F800
FC000003FC00
FC000003FC00
FC000001FE00
FC000000FF00
FC0000007F00
FC0000007F80
000000000000
000000000000
000000000000
000000000000
0000FE000000
0000FE000000
0000FE000000
0000FE000000
0000FE000000
0000FE000000
0000FE000000
00000E000000
00000E000000
00001E000000
00001C000000
00001C000000
00003C000000
0000F8000000
0000F0000000
0000E0000000
ENDCHAR
STARTCHAR 0137
ENCODING 311
SWIDTH 498 0
DWIDTH 36 0
BBX 32 73 4 -20
BITMAP
FC000000
FC000000
FC000000
FC000000
FC000000
FC000000
FC000000
FC000000
FC000000
FC000000
FC000000
FC000000
FC000000
FC000000
FC000000
FC0003F8
FC0007F0
FC000FE0
FC001FC0
FC003F80
FC007F00
FC00FE00
FC01FC00
FC03F800
FC07F000
FC0FE000
FC1FC000
FC3F8000
FC7F8000
FCFFC000
FDFFC000
FFFFE000
FFFFF000
FFE7F000
FFC7F800
FF83F800
FF01FC00
FE01FE00
FC00FE00
FC00FF00
FC007F00
FC003F80
FC003FC0
FC001FC0
FC000FE0
FC000FF0
FC0007F0
FC0007F8
FC0003F8
FC0001FC
FC0001FE
FC0000FE
FC0000FF
00000000
00000000
00000000
00000000
000FE000
000FE000
000FE000
000FE000
000FE000
000FE000
000FE000
0000E000
0000E000
0000E000
0001E000
0001C000
0003C000
000F8000
000F0000
000E0000
ENDCHAR
STARTCHAR 0138
ENCODING 312
SWIDTH 498 0
DWIDTH 36 0
BBX 29 37 3 0
BITMAP
F80001F8
F80003F0
F80007E0
F8000FC0
F8001F80
F8003F00
F8007E00
F800FC00
F801F800
F803F000
F807E000
F80FC000
F81F8000
F83F0000
F87E0000
F8FC0000
F9FE0000
FBFF0000
FFDF0000
FF8F8000
FF0FC000
FE07C000
FC03E000
F803F000
F801F800
F800F800
F800FC00
F8007E00
F8003E00
F8003F00
F8001F80
F8000F80
F80007C0
F80007E0
F80003E0
F80001F0
F80001F8
ENDCHAR
STARTCHAR 0139
ENCODING 313
SWIDTH 553 0
DWIDTH 40 0
BBX 33 68 5 0
BITMAP
01FE000000
03F8000000
07F0000000
07E0000000
0FC0000000
1F80000000
1F00000000
3E00000000
7C00000000
7800000000
F000000000
0000000000
0000000000
0000000000
0000000000
7E00000000
7E00000000
7E00000000
7E00000000
7E00000000
7E00000000
7E00000000
7E00000000
7E00000000
7E00000000
7E00000000
7E00000000
7E00000000
7E00000000
7E00000000
7E00000000
7E00000000
7E00000000
7E00000000
7E00000000
7E00000000
7E00000000
7E00000000
7E00000000
7E00000000
7E00000000
7E00000000
7E00000000
7E00000000
7E00000000
7E00000000
7E00000000
7E00000000
7E00000000
7E00000000
7E00000000
7E00000000
7E00000000
7E00000000
7E00000000
7E00000000
7E00000000
7E00000000
7E00000000
7E00000000
7E00000000
7E00000000
7FFFFFFF80
7FFFFFFF80
7FFFFFFF80
7FFFFFFF80
7FFFFFFF80
7FFFFFFF80
ENDCHAR
STARTCHAR 013A
ENCODING 314
SWIDTH 221 0
DWIDTH 16 0
BBX 14 68 5 0
BITMAP
03FC
07F8
07F0
0FE0
1FC0
1F80
3F00
3E00
7C00
F800
F000
0000
0000
0000
0000
FC00
FC00
FC00
FC00
FC00
FC00
FC00
FC00
FC00
FC00
FC00
FC00
FC00
FC00
FC00
FC00
FC00
FC00
FC00
FC00
FC00
FC00
FC00
FC00
FC00
FC00
FC00
FC00
FC00
FC00
FC00
FC00
FC00
FC00
FC00
FC00
FC00
FC00
FC00
FC00
FC00
FC00
FC00
FC00
FC00
FC00
FC00
FC00
FC00
FC00
FC00
FC00
FC00
ENDCHAR
STARTCHAR 013B
ENCODING 315
SWIDTH 553 0
DWIDTH 40 0
BBX 32 73 6 -20
BITMAP
FC000000
FC000000
FC000000
FC000000
FC000000
FC000000
FC000000
FC000000
FC000000
FC000000
FC000000
FC000000
FC000000
FC000000
FC000000
FC000000
FC000000
FC000000
FC000000
FC000000
FC000000
FC000000
FC000000
FC000000
FC000000
FC000000
FC000000
FC000000
FC000000
FC000000
FC000000
FC000000
FC000000
FC000000
FC000000
FC000000
FC000000
FC000000
FC000000
FC000000
FC000000
FC000000
FC000000
FC000000
FC000000
FC000000
FC000000
FFFFFFFF
FFFFFFFF
FFFFFFFF
FFFFFFFF
FFFFFFFF
FFFFFFFF
00000000
00000000
00000000
00000000
0007F000
0007F000
0007F000
0007F000
0007F000
0007F000
0007F000
00007000
00007000
0000F000
0000E000
0000E000
0001E000
0007C000
00078000
00070000
ENDCHAR
STARTCHAR 013C
ENCODING 316
SWIDTH 221 0
DWIDTH 16 0
BBX 7 73 5 -20
BITMAP
FC
FC
FC
FC
FC
FC
FC
FC
FC
FC
FC
FC
FC
FC
FC
FC
FC
FC
FC
FC
FC
FC
FC
FC
FC
FC
FC
FC
FC
FC
FC
FC
FC
FC
FC
FC
FC
FC
FC
FC
FC
FC
FC
FC
FC
FC
FC
FC
FC
FC
FC
FC
FC
00
00
00
00
FE
FE
FE
FE
FE
FE
FE
0E
0E
1E
1C
1C
3C
F8
F0
E0
ENDCHAR
STARTCHAR 013D
ENCODING 317
SWIDTH 553 0
DWIDTH 40 0
BBX 32 53 6 0
BITMAP
FC03F800
FC03F800
FC03F800
FC03F800
FC03F800
FC03F800
FC03F800
FC003800
FC003800
FC003800
FC007800
FC007000
FC00F000
FC03E000
FC03C000
FC038000
FC000000
FC000000
FC000000
FC000000
FC000000
FC000000
FC000000
FC000000
FC000000
FC000000
FC000000
FC000000
FC000000
FC000000
FC000000
FC000000
FC000000
FC000000
FC000000
FC000000
FC000000
FC000000
FC000000
FC000000
FC000000
FC000000
FC000000
FC000000
FC000000
FC000000
FC000000
FFFFFFFF
FFFFFFFF
FFFFFFFF
FFFFFFFF
FFFFFFFF
FFFFFFFF
ENDCHAR
STARTCHAR 013E
ENCODING 318
SWIDTH 304 0
DWIDTH 22 0
BBX 17 53 5 0
BITMAP
FC3F80
FC3F80
FC3F80
FC3F80
FC3F80
FC3F80
FC3F80
FC0380
FC0380
FC0380
FC0780
FC0700
FC0F00
FC3E00
FC3E00
FC3800
FC0000
FC0000
FC0000
FC0000
FC0000
FC0000
FC0000
FC0000
FC0000
FC0000
FC0000
FC0000
FC0000
FC0000
FC0000
FC0000
FC0000
FC0000
FC0000
FC0000
FC0000
FC0000
FC0000
FC0000
FC0000
FC0000
FC0000
FC0000
FC0000
FC0000
FC0000
FC0000
FC0000
FC0000
FC0000
FC0000
FC0000
ENDCHAR
STARTCHAR 013F
ENCODING 319
SWIDTH 553 0
DWIDTH 40 0
BBX 32 53 6 0
BITMAP
FC000000
FC000000
FC000000
FC000000
FC000000
FC000000
FC000000
FC000000
FC000000
FC000000
FC000000
FC000000
FC000000
FC000000
FC000000
FC000000
FC000000
FC000000
FC000000
FC000000
FC000000
FC000000
FC000000
FC001FC0
FC001FC0
FC001FC0
FC001FC0
FC001FC0
FC001FC0
FC001FC0
FC001FC0
FC000000
FC000000
FC000000
FC000000
FC000000
FC000000
FC000000
FC000000
FC000000
FC000000
FC000000
FC000000
FC000000
FC000000
FC000000
FC000000
FFFFFFFF
FFFFFFFF
FFFFFFFF
FFFFFFFF
FFFFFFFF
FFFFFFFF
ENDCHAR
STARTCHAR 0140
ENCODING 320
SWIDTH 332 0
DWIDTH 24 0
BBX 19 53 5 0
BITMAP
FC0000
FC0000
FC0000
FC0000
FC0000
FC0000
FC0000
FC0000
FC0000
FC0000
FC0000
FC0000
FC0000
FC0000
FC0000
FC0000
FC0000
FC0000
FC0000
FC0000
FC0000
FC0000
FC0000
FC1FE0
FC1FE0
FC1FE0
FC1FE0
FC1FE0
FC1FE0
FC1FE0
FC1FE0
FC0000
FC0000
FC0000
FC0000
FC0000
FC0000
FC0000
FC0000
FC0000
FC0000
FC0000
FC0000
FC0000
FC0000
FC0000
FC0000
FC0000
FC0000
FC0000
FC0000
FC0000
FC0000
ENDCHAR
STARTCHAR 0141
ENCODING 321
SWIDTH 553 0
DWIDTH 40 0
BBX 40 53 0 0
BITMAP
03F0000000
03F0000000
03F0000000
03F0000000
03F0000000
03F0000000
03F0000000
03F0000000
03F0000000
03F0000000
03F0000000
03F0000000
03F0000000
03F0000000
03F0000000
03F0008000
03F0038000
03F0078000
03F01F8000
03F03F8000
03F07F0000
03F1FE0000
03F3FC0000
03FFF00000
03FFE00000
03FFC00000
03FF000000
07FE000000
0FF8000000
3FF0000000
7FF0000000
FFF0000000
FFF0000000
FBF0000000
E3F0000000
C3F0000000
03F0000000
03F0000000
03F0000000
03F0000000
03F0000000
03F0000000
03F0000000
03F0000000
03F0000000
03F0000000
03F0000000
03FFFFFFFF
03FFFFFFFF
03FFFFFFFF
03FFFFFFFF
03FFFFFFFF
03FFFFFFFF
ENDCHAR
STARTCHAR 0142
ENCODING 322
SWIDTH 221 0
DWIDTH 16 0
BBX 15 53 0 0
BITMAP
07E0
07E0
07E0
07E0
07E0
07E0
07E0
07E0
07E0
07E0
07E0
07E0
07E0
07E0
07E0
07E0
07E0
07E0
07E0
07E2
07E6
07EE
07FE
07FE
07FC
07F8
1FE0
3FE0
7FE0
FFE0
F7E0
E7E0
C7E0
07E0
07E0
07E0
07E0
07E0
07E0
07E0
07E0
07E0
07E0
07E0
07E0
07E0
07E0
07E0
07E0
07E0
07E0
07E0
07E0
ENDCHAR
STARTCHAR 0143
ENCODING 323
SWIDTH 720 0
DWIDTH 52 0
BBX 42 68 5 0
BITMAP
000001FE0000
000003FC0000
000007F80000
000007F00000
00000FE00000
00001FC00000
00001F800000
00003F000000
00007E000000
00007C000000
0000F8000000
000000000000
000000000000
000000000000
000000000000
FF0000001FC0
FF8000001FC0
FF8000001FC0
FFC000001FC0
FFE000001FC0
FFE000001FC0
FFF000001FC0
FFF800001FC0
FFF800001FC0
FFFC00001FC0
FFFC00001FC0
FEFE00001FC0
FEFF00001FC0
FE7F00001FC0
FE3F80001FC0
FE3FC0001FC0
FE1FC0001FC0
FE0FE0001FC0
FE0FF0001FC0
FE07F0001FC0
FE07F8001FC0
FE03F8001FC0
FE01FC001FC0
FE01FE001FC0
FE00FE001FC0
FE007F001FC0
FE007F801FC0
FE003F801FC0
FE001FC01FC0
FE001FE01FC0
FE000FE01FC0
FE000FF01FC0
FE0007F01FC0
FE0003F81FC0
FE0003FC1FC0
FE0001FC1FC0
FE0000FE1FC0
FE0000FF1FC0
FE00007F1FC0
FE00007F9FC0
FE00003FDFC0
FE00001FDFC0
FE00001FFFC0
FE00000FFFC0
FE000007FFC0
FE000007FFC0
FE000003FFC0
FE000001FFC0
FE000001FFC0
FE000000FFC0
FE000000FFC0
FE0000007FC0
FE0000003FC0
ENDCHAR
STARTCHAR 0144
ENCODING 324
SWIDTH 553 0
DWIDTH 40 0
BBX 30 54 5 0
BITMAP
00007F80
0000FF00
0000FE00
0001FC00
0001F800
0003F000
0007E000
0007C000
000F8000
001F0000
001E0000
00000000
00000000
00000000
00000000
0003FC00
FC1FFF80
FC3FFFE0
FC7FFFF0
FCFFFFF0
FDFC3FF8
FFF007FC
FFC003FC
FF8001FC
FF0000FC
FF0000FC
FE0000FC
FE0000FC
FE0000FC
FC0000FC
FC0000FC
FC0000FC
FC0000FC
FC0000FC
FC0000FC
FC0000FC
FC0000FC
FC0000FC
FC0000FC
FC0000FC
FC0000FC
FC0000FC
FC0000FC
FC0000FC
FC0000FC
FC0000FC
FC0000FC
FC0000FC
FC0000FC
FC0000FC
FC0000FC
FC0000FC
FC0000FC
FC0000FC
ENDCHAR
STARTCHAR 0145
ENCODING 325
SWIDTH 720 0
DWIDTH 52 0
BBX 42 73 5 -20
BITMAP
FF0000001FC0
FF8000001FC0
FF8000001FC0
FFC000001FC0
FFE000001FC0
FFE000001FC0
FFF000001FC0
FFF800001FC0
FFF800001FC0
FFFC00001FC0
FFFC00001FC0
FEFE00001FC0
FEFF00001FC0
FE7F00001FC0
FE3F80001FC0
FE3FC0001FC0
FE1FC0001FC0
FE0FE0001FC0
FE0FF0001FC0
FE07F0001FC0
FE07F8001FC0
FE03F8001FC0
FE01FC001FC0
FE01FE001FC0
FE00FE001FC0
FE007F001FC0
FE007F801FC0
FE003F801FC0
FE001FC01FC0
FE001FE01FC0
FE000FE01FC0
FE000FF01FC0
FE0007F01FC0
FE0003F81FC0
FE0003FC1FC0
FE0001FC1FC0
FE0000FE1FC0
FE0000FF1FC0
FE00007F1FC0
FE00007F9FC0
FE00003FDFC0
FE00001FDFC0
FE00001FFFC0
FE00000FFFC0
FE000007FFC0
FE000007FFC0
FE000003FFC0
FE000001FFC0
FE000001FFC0
FE000000FFC0
FE000000FFC0
FE0000007FC0
FE0000003FC0
000000000000
000000000000
000000000000
000000000000
00007F000000
00007F000000
00007F000000
00007F000000
00007F000000
00007F000000
00007F000000
00000F000000
000007000000
00000F000000
00000E000000
00000E000000
00001E000000
00007C000000
000078000000
000070000000
ENDCHAR
STARTCHAR 0146
ENCODING 326
SWIDTH 553 0
DWIDTH 40 0
BBX 30 59 5 -20
BITMAP
0003FC00
FC1FFF80
FC3FFFE0
FC7FFFF0
FCFFFFF0
FDFC3FF8
FFF007FC
FFC003FC
FF8001FC
FF0000FC
FF0000FC
FE0000FC
FE0000FC
FE0000FC
FC0000FC
FC0000FC
FC0000FC
FC0000FC
FC0000FC
FC0000FC
FC0000FC
FC0000FC
FC0000FC
FC0000FC
FC0000FC
FC0000FC
FC0000FC
FC0000FC
FC0000FC
FC0000FC
FC0000FC
FC0000FC
FC0000FC
FC0000FC
FC0000FC
FC0000FC
FC0000FC
FC0000FC
FC0000FC
00000000
00000000
00000000
00000000
000FE000
000FE000
000FE000
000FE000
000FE000
000FE000
000FE000
0000E000
0000E000
0001E000
0001C000
0001C000
0003C000
000F8000
000F0000
000E0000
ENDCHAR
STARTCHAR 0147
ENCODING 327
SWIDTH 720 0
DWIDTH 52 0
BBX 42 68 5 0
BITMAP
001F003E0000
000F807C0000
000FC07C0000
0007C0F80000
0003E1F00000
0003F3F00000
0001FFE00000
0000FFE00000
0000FFC00000
00007F800000
00003F800000
000000000000
000000000000
000000000000
000000000000
FF0000001FC0
FF8000001FC0
FF8000001FC0
FFC000001FC0
FFE000001FC0
FFE000001FC0
FFF000001FC0
FFF800001FC0
FFF800001FC0
FFFC00001FC0
FFFC00001FC0
FEFE00001FC0
FEFF00001FC0
FE7F00001FC0
FE3F80001FC0
FE3FC0001FC0
FE1FC0001FC0
FE0FE0001FC0
FE0FF0001FC0
FE07F0001FC0
FE07F8001FC0
FE03F8001FC0
FE01FC001FC0
FE01FE001FC0
FE00FE001FC0
FE007F001FC0
FE007F801FC0
FE003F801FC0
FE001FC01FC0
FE001FE01FC0
FE000FE01FC0
FE000FF01FC0
FE0007F01FC0
FE0003F81FC0
FE0003FC1FC0
FE0001FC1FC0
FE0000FE1FC0
FE0000FF1FC0
FE00007F1FC0
FE00007F9FC0
FE00003FDFC0
FE00001FDFC0
FE00001FFFC0
FE00000FFFC0
FE000007FFC0
FE000007FFC0
FE000003FFC0
FE000001FFC0
FE000001FFC0
FE000000FFC0
FE000000FFC0
FE0000007FC0
FE0000003FC0
ENDCHAR
STARTCHAR 0148
ENCODING 328
SWIDTH 553 0
DWIDTH 40 0
BBX 30 54 5 0
BITMAP
07C00F80
03E00F80
03E01F00
01F03E00
00F87E00
00FCFC00
007EF800
007FF800
003FF000
001FF000
001FE000
00000000
00000000
00000000
00000000
0003FC00
FC1FFF80
FC3FFFE0
FC7FFFF0
FCFFFFF0
FDFC3FF8
FFF007FC
FFC003FC
FF8001FC
FF0000FC
FF0000FC
FE0000FC
FE0000FC
FE0000FC
FC0000FC
FC0000FC
FC0000FC
FC0000FC
FC0000FC
FC0000FC
FC0000FC
FC0000FC
FC0000FC
FC0000FC
FC0000FC
FC0000FC
FC0000FC
FC0000FC
FC0000FC
FC0000FC
FC0000FC
FC0000FC
FC0000FC
FC0000FC
FC0000FC
FC0000FC
FC0000FC
FC0000FC
FC0000FC
ENDCHAR
STARTCHAR 0149
ENCODING 329
SWIDTH 609 0
DWIDTH 44 0
BBX 38 55 1 0
BITMAP
FE00000000
FE00000000
FE00000000
FE00000000
FE00000000
FE00000000
FE00000000
0E00000000
0E00000000
0E00000000
1E00000000
1C00000000
3C00000000
F800000000
F000000000
E000000000
000007FC00
00F81FFF80
00F87FFFC0
00F8FFFFE0
00F9FFFFF0
00FBFC3FF8
00FBE00FF8
00FFC003F8
00FF8001FC
00FF0001FC
00FE0001FC
00FE0000FC
00FC0000FC
00FC0000FC
00FC0000FC
00FC0000FC
00FC0000FC
00FC0000FC
00FC0000FC
00FC0000FC
00FC0000FC
00FC0000FC
00FC0000FC
00FC0000FC
00FC0000FC
00FC0000FC
00FC0000FC
00FC0000FC
00FC0000FC
00FC0000FC
00FC0000FC
00FC0000FC
00FC0000FC
00FC0000FC
00FC0000FC
00FC0000FC
00FC0000FC
00FC0000FC
00FC0000FC
ENDCHAR
STARTCHAR 014A
ENCODING 330
SWIDTH 720 0
DWIDTH 52 0
BBX 39 75 7 -21
BITMAP
00003FE000
0001FFFC00
FC07FFFF00
FC0FFFFFC0
FC1FFFFFE0
FC3FFFFFF0
FC7F807FF8
FCFC000FF8
FDF80007FC
FFF00003FC
FFE00001FC
FFC00001FE
FF800001FE
FF800000FE
FF000000FE
FF000000FE
FE000000FE
FE000000FE
FE000000FE
FE000000FE
FE000000FE
FE000000FE
FE000000FE
FE000000FE
FE000000FE
FE000000FE
FE000000FE
FE000000FE
FE000000FE
FE000000FE
FE000000FE
FE000000FE
FE000000FE
FE000000FE
FE000000FE
FE000000FE
FE000000FE
FE000000FE
FE000000FE
FE000000FE
FE000000FE
FE000000FE
FE000000FE
FE000000FE
FE000000FE
FE000000FE
FE000000FE
FE000000FE
FE000000FE
FE000000FE
FE000000FE
FE000000FE
FE000000FE
FE000000FE
00000000FE
00000000FE
00000000FE
00000000FE
00000000FE
00000000FE
00000000FE
00000000FE
00000000FE
00000000FE
00000000FE
00000000FE
00000000FE
00000001FC
00000007FC
000001FFFC
000001FFF8
000001FFF0
000001FFE0
000001FFC0
000001FF00
ENDCHAR
STARTCHAR 014B
ENCODING 331
SWIDTH 553 0
DWIDTH 40 0
BBX 30 55 5 -16
BITMAP
0003FC00
FC0FFF80
FC3FFFE0
FC7FFFF0
FCFFFFF0
FDFC1FF8
FFF007FC
FFC003FC
FF8001FC
FF0000FC
FF0000FC
FE0000FC
FE0000FC
FE0000FC
FE0000FC
FC0000FC
FC0000FC
FC0000FC
FC0000FC
FC0000FC
FC0000FC
FC0000FC
FC0000FC
FC0000FC
FC0000FC
FC0000FC
FC0000FC
FC0000FC
FC0000FC
FC0000FC
FC0000FC
FC0000FC
FC0000FC
FC0000FC
FC0000FC
FC0000FC
FC0000FC
FC0000FC
FC0000FC
000000FC
000000FC
000000FC
000000FC
000000FC
000000FC
000000FC
000000FC
000000FC
000001FC
000007FC
00003FF8
00003FF8
00003FF0
00003FE0
00003F80
ENDCHAR
STARTCHAR 014C
ENCODING 332
SWIDTH 775 0
DWIDTH 56 0
BBX 51 67 3 -2
BITMAP
0001FFFFE00000
0001FFFFE00000
0001FFFFE00000
0001FFFFE00000
0001FFFFE00000
00000000000000
00000000000000
00000000000000
00000000000000
00000000000000
00000000000000
00000FFE000000
0000FFFFC00000
0003FFFFF80000
000FFFFFFE0000
003FFFFFFF0000
007FFFFFFF8000
00FFF003FFE000
01FF80007FE000
03FF00001FF000
07FC00000FF800
07F8000007FC00
0FF0000003FC00
1FE0000001FE00
1FC0000000FF00
3FC00000007F00
3F800000007F00
3F800000003F80
7F000000003F80
7F000000003F80
7F000000001FC0
7E000000001FC0
FE000000001FC0
FE000000001FC0
FE000000000FC0
FE000000000FC0
FE000000000FE0
FE000000000FE0
FC000000000FE0
FC000000000FE0
FE000000000FE0
FE000000000FE0
FE000000000FC0
FE000000000FC0
FE000000001FC0
FE000000001FC0
FE000000001FC0
7F000000001FC0
7F000000003F80
7F000000003F80
3F800000003F80
3F800000007F00
3FC00000007F00
1FE0000000FE00
1FE0000001FE00
0FF0000003FC00
07F8000007FC00
07FC00000FF800
03FF00001FF000
01FFC0007FE000
00FFF803FFE000
007FFFFFFF8000
003FFFFFFF0000
000FFFFFFE0000
0003FFFFF80000
0000FFFFC00000
00000FFC000000
ENDCHAR
STARTCHAR 014D
ENCODING 333
SWIDTH 553 0
DWIDTH 40 0
BBX 34 53 3 -2
BITMAP
01FFFFE000
01FFFFE000
01FFFFE000
01FFFFE000
01FFFFE000
0000000000
0000000000
0000000000
0000000000
0000000000
0000000000
0000000000
000FF80000
007FFF0000
01FFFFC000
03FFFFF000
07FFFFF800
0FFFFFF800
1FF007FC00
1FE001FE00
3FC000FE00
3F80007F00
7F00007F00
7F00003F80
7E00003F80
FE00001F80
FE00001F80
FC00001FC0
FC00001FC0
FC00001FC0
FC00001FC0
FC00000FC0
FC00000FC0
FC00000FC0
FC00001FC0
FC00001FC0
FC00001FC0
FC00001FC0
FE00001F80
FE00001F80
7E00003F80
7F00003F80
7F00007F00
3F80007F00
3FC000FE00
1FE001FE00
1FF007FC00
0FFFFFF800
07FFFFF000
03FFFFE000
01FFFFC000
007FFF0000
000FF80000
ENDCHAR
STARTCHAR 014E
ENCODING 334
SWIDTH 775 0
DWIDTH 56 0
BBX 51 70 3 -2
BITMAP
0003C000F00000
0003E001F00000
0003E001F00000
0001F003E00000
0001FC0FE00000
0001FFFFC00000
0000FFFFC00000
00007FFF800000
00001FFE000000
000007F8000000
00000000000000
00000000000000
00000000000000
00000000000000
00000FFE000000
0000FFFFC00000
0003FFFFF80000
000FFFFFFE0000
003FFFFFFF0000
007FFFFFFF8000
00FFF003FFE000
01FF80007FE000
03FF00001FF000
07FC00000FF800
07F8000007FC00
0FF0000003FC00
1FE0000001FE00
1FC0000000FF00
3FC00000007F00
3F800000007F00
3F800000003F80
7F000000003F80
7F000000003F80
7F000000001FC0
7E000000001FC0
FE000000001FC0
FE000000001FC0
FE000000000FC0
FE000000000FC0
FE000000000FE0
FE000000000FE0
FC000000000FE0
FC000000000FE0
FE000000000FE0
FE000000000FE0
FE000000000FC0
FE000000000FC0
FE000000001FC0
FE000000001FC0
FE000000001FC0
7F000000001FC0
7F000000003F80
7F000000003F80
3F800000003F80
3F800000007F00
3FC00000007F00
1FE0000000FE00
1FE0000001FE00
0FF0000003FC00
07F8000007FC00
07FC00000FF800
03FF00001FF000
01FFC0007FE000
00FFF803FFE000
007FFFFFFF8000
003FFFFFFF0000
000FFFFFFE0000
0003FFFFF80000
0000FFFFC00000
00000FFC000000
ENDCHAR
STARTCHAR 014F
ENCODING 335
SWIDTH 553 0
DWIDTH 40 0
BBX 34 55 3 -2
BITMAP
03C001F000
03C001E000
03E003E000
03F003E000
01FC0FC000
01FFFFC000
00FFFF8000
007FFF0000
003FFE0000
0007F00000
0000000000
0000000000
0000000000
0000000000
000FF80000
007FFF0000
01FFFFC000
03FFFFF000
07FFFFF800
0FFFFFF800
1FF007FC00
1FE001FE00
3FC000FE00
3F80007F00
7F00007F00
7F00003F80
7E00003F80
FE00001F80
FE00001F80
FC00001FC0
FC00001FC0
FC00001FC0
FC00001FC0
FC00000FC0
FC00000FC0
FC00000FC0
FC00001FC0
FC00001FC0
FC00001FC0
FC00001FC0
FE00001F80
FE00001F80
7E00003F80
7F00003F80
7F00007F00
3F80007F00
3FC000FE00
1FE001FE00
1FF007FC00
0FFFFFF800
07FFFFF000
03FFFFE000
01FFFFC000
007FFF0000
000FF80000
ENDCHAR
STARTCHAR 0150
ENCODING 336
SWIDTH 775 0
DWIDTH 56 0
BBX 51 70 3 -2
BITMAP
000001FE1FF000
000003FC1FC000
000007F83F8000
000007F07F0000
00000FE07E0000
00000FC0FC0000
00001F81F80000
00003F01F00000
00003E03E00000
00007C03C00000
0000F807800000
00000000000000
00000000000000
00000000000000
00000FFE000000
0000FFFFC00000
0003FFFFF80000
000FFFFFFE0000
003FFFFFFF0000
007FFFFFFF8000
00FFF003FFE000
01FF80007FE000
03FF00001FF000
07FC00000FF800
07F8000007FC00
0FF0000003FC00
1FE0000001FE00
1FC0000000FF00
3FC00000007F00
3F800000007F00
3F800000003F80
7F000000003F80
7F000000003F80
7F000000001FC0
7E000000001FC0
FE000000001FC0
FE000000001FC0
FE000000000FC0
FE000000000FC0
FE000000000FE0
FE000000000FE0
FC000000000FE0
FC000000000FE0
FE000000000FE0
FE000000000FE0
FE000000000FC0
FE000000000FC0
FE000000001FC0
FE000000001FC0
FE000000001FC0
7F000000001FC0
7F000000003F80
7F000000003F80
3F800000003F80
3F800000007F00
3FC00000007F00
1FE0000000FE00
1FE0000001FE00
0FF0000003FC00
07F8000007FC00
07FC00000FF800
03FF00001FF000
01FFC0007FE000
00FFF803FFE000
007FFFFFFF8000
003FFFFFFF0000
000FFFFFFE0000
0003FFFFF80000
0000FFFFC00000
00000FFC000000
ENDCHAR
STARTCHAR 0151
ENCODING 337
SWIDTH 553 0
DWIDTH 40 0
BBX 35 56 3 -2
BITMAP
0003FC1FE0
0007F83FC0
0007F07F80
000FE07F00
000FC0FE00
001F81FC00
003F01F800
003E03F000
007C03E000
00F807C000
00F00F8000
0000000000
0000000000
0000000000
0000000000
000FF80000
007FFF0000
01FFFFC000
03FFFFF000
07FFFFF800
0FFFFFF800
1FF007FC00
1FE001FE00
3FC000FE00
3F80007F00
7F00007F00
7F00003F80
7E00003F80
FE00001F80
FE00001F80
FC00001FC0
FC00001FC0
FC00001FC0
FC00001FC0
FC00000FC0
FC00000FC0
FC00000FC0
FC00001FC0
FC00001FC0
FC00001FC0
FC00001FC0
FE00001F80
FE00001F80
7E00003F80
7F00003F80
7F00007F00
3F80007F00
3FC000FE00
1FE001FE00
1FF007FC00
0FFFFFF800
07FFFFF000
03FFFFE000
01FFFFC000
007FFF0000
000FF80000
ENDCHAR
STARTCHAR 0152
ENCODING 338
SWIDTH 996 0
DWIDTH 72 0
BBX 66 55 3 -1
BITMAP
00007FC00000000000
0003FFF81FFFFFFFC0
000FFFFE1FFFFFFFC0
003FFFFF1FFFFFFFC0
007FFFFF9FFFFFFFC0
00FFFFFFDFFFFFFFC0
01FFC03FFFFFFFFFC0
03FE0007FFC0000000
07F80003FFC0000000
0FF00001FFC0000000
0FE00000FFC0000000
1FE000007FC0000000
1FC000003FC0000000
3F8000003FC0000000
3F8000001FC0000000
3F8000001FC0000000
7F0000001FC0000000
7F0000001FC0000000
7F0000001FC0000000
7E0000001FC0000000
7E0000001FC0000000
FE0000001FC0000000
FE0000001FC0000000
FE0000001FC0000000
FE0000001FFFFFFF80
FE0000001FFFFFFF80
FE0000001FFFFFFF80
FE0000001FFFFFFF80
FE0000001FFFFFFF80
FE0000001FFFFFFF80
FE0000001FC0000000
FE0000001FC0000000
FE0000001FC0000000
FE0000001FC0000000
7E0000001FC0000000
7E0000001FC0000000
7F0000001FC0000000
7F0000001FC0000000
7F0000001FC0000000
3F8000001FC0000000
3F8000001FC0000000
3F8000003FC0000000
1FC000003FC0000000
1FE000007FC0000000
0FE00000FFC0000000
0FF00001FFC0000000
07F80003FFC0000000
03FE0007FFC0000000
03FFC03FFFFFFFFFC0
01FFFFFFDFFFFFFFC0
007FFFFF9FFFFFFFC0
003FFFFF1FFFFFFFC0
001FFFFE1FFFFFFFC0
0003FFF81FFFFFFFC0
00007FC00000000000
ENDCHAR
STARTCHAR 0153
ENCODING 339
SWIDTH 941 0
DWIDTH 68 0
BBX 62 41 3 -2
BITMAP
0007FC00007FC000
007FFF8003FFF000
00FFFFC00FFFFC00
03FFFFF01FFFFF00
07FFFFF83FFFFF80
0FFFFFFC7FFFFFC0
1FF807FCFF807FE0
1FE001FFFE001FE0
3FC000FFFC000FF0
3F80007FF80007F0
7F00003FF00003F8
7F00003FF00003F8
7E00001FE00001F8
7E00001FE00001F8
FE00001FE00001FC
FE00001FC00001FC
FC00000FC00001FC
FC00000FFFFFFFFC
FC00000FFFFFFFFC
FC00000FFFFFFFFC
FC00000FFFFFFFFC
FC00000FFFFFFFFC
FC00000FC0000000
FC00000FC0000000
FE00000FC0000000
FE00001FC0000000
FE00001FE0000000
7E00001FE0000000
7F00001FE00001F8
7F00003FF00003F8
7F80003FF00003F0
3F80007FF80007F0
3FC000FFFC000FF0
1FE001FFFE001FE0
1FF807FCFF803FC0
0FFFFFFCFFFFFFC0
07FFFFF87FFFFF80
03FFFFF03FFFFF00
00FFFFC00FFFFC00
007FFF0003FFF000
000FFC00007F8000
ENDCHAR
STARTCHAR 0154
ENCODING 340
SWIDTH 720 0
DWIDTH 52 0
BBX 42 68 7 0
BITMAP
00000FF00000
00000FE00000
00001FC00000
00003F800000
00003F000000
00007E000000
0000FC000000
0000F8000000
0001F0000000
0003E0000000
0003C0000000
000000000000
000000000000
000000000000
000000000000
FFFFFFF80000
FFFFFFFF8000
FFFFFFFFC000
FFFFFFFFF000
FFFFFFFFF800
FFFFFFFFFC00
FC00000FFC00
FC000003FE00
FC000001FE00
FC000000FE00
FC000000FF00
FC0000007F00
FC0000007F00
FC0000007F00
FC0000007F00
FC0000007F00
FC0000007F00
FC0000007F00
FC0000007E00
FC000000FE00
FC000000FE00
FC000001FC00
FC000003F800
FC00001FF000
FFFFFFFFE000
FFFFFFFFC000
FFFFFFFF0000
FFFFFFFF8000
FFFFFFFFE000
FFFFFFFFF000
FC00001FF800
FC000007FC00
FC000001FC00
FC000001FC00
FC000000FC00
FC000000FE00
FC000000FE00
FC000000FE00
FC000000FE00
FC000000FE00
FC000000FE00
FC000000FE00
FC000000FE00
FC000000FE00
FC000000FE00
FC000000FE00
FC000000FE00
FC0000007E00
FC0000007F00
FC0000007F00
FC0000007F80
FC0000007FC0
FC0000003FC0
ENDCHAR
STARTCHAR 0155
ENCODING 341
SWIDTH 332 0
DWIDTH 24 0
BBX 18 54 5 0
BITMAP
003FC0
003F80
007F00
007E00
00FC00
01F800
01F800
03F000
07E000
07C000
0F8000
000000
000000
000000
000000
0007C0
FC1FC0
FC3FC0
FC7FC0
FCFFC0
FDFFC0
FDFE00
FFE000
FFC000
FF8000
FF0000
FF0000
FE0000
FE0000
FE0000
FC0000
FC0000
FC0000
FC0000
FC0000
FC0000
FC0000
FC0000
FC0000
FC0000
FC0000
FC0000
FC0000
FC0000
FC0000
FC0000
FC0000
FC0000
FC0000
FC0000
FC0000
FC0000
FC0000
FC0000
ENDCHAR
STARTCHAR 0156
ENCODING 342
SWIDTH 720 0
DWIDTH 52 0
BBX 42 73 7 -20
BITMAP
FFFFFFF80000
FFFFFFFF8000
FFFFFFFFC000
FFFFFFFFF000
FFFFFFFFF800
FFFFFFFFFC00
FC00000FFC00
FC000003FE00
FC000001FE00
FC000000FE00
FC000000FF00
FC0000007F00
FC0000007F00
FC0000007F00
FC0000007F00
FC0000007F00
FC0000007F00
FC0000007F00
FC0000007E00
FC000000FE00
FC000000FE00
FC000001FC00
FC000003F800
FC00001FF000
FFFFFFFFE000
FFFFFFFFC000
FFFFFFFF0000
FFFFFFFF8000
FFFFFFFFE000
FFFFFFFFF000
FC00001FF800
FC000007FC00
FC000001FC00
FC000001FC00
FC000000FC00
FC000000FE00
FC000000FE00
FC000000FE00
FC000000FE00
FC000000FE00
FC000000FE00
FC000000FE00
FC000000FE00
FC000000FE00
FC000000FE00
FC000000FE00
FC000000FE00
FC0000007E00
FC0000007F00
FC0000007F00
FC0000007F80
FC0000007FC0
FC0000003FC0
000000000000
000000000000
000000000000
000000000000
0000FE000000
0000FE000000
0000FE000000
0000FE000000
0000FE000000
0000FE000000
0000FE000000
00000E000000
00000E000000
00000E000000
00000E000000
00001E000000
00001C000000
0000FC000000
0000F8000000
0000E0000000
ENDCHAR
STARTCHAR 0157
ENCODING 343
SWIDTH 332 0
DWIDTH 24 0
BBX 18 59 5 -20
BITMAP
0007C0
FC1FC0
FC3FC0
FC7FC0
FCFFC0
FDFFC0
FDFE00
FFE000
FFC000
FF8000
FF0000
FF0000
FE0000
FE0000
FE0000
FC0000
FC0000
FC0000
FC0000
FC0000
FC0000
FC0000
FC0000
FC0000
FC0000
FC0000
FC0000
FC0000
FC0000
FC0000
FC0000
FC0000
FC0000
FC0000
FC0000
FC0000
FC0000
FC0000
FC0000
000000
000000
000000
000000
FE0000
FE0000
FE0000
FE0000
FE0000
FE0000
FE0000
0E0000
0E0000
0E0000
1E0000
1C0000
3C0000
F80000
F00000
E00000
ENDCHAR
STARTCHAR 0158
ENCODING 344
SWIDTH 720 0
DWIDTH 52 0
BBX 42 68 7 0
BITMAP
007C00F80000
007C01F00000
003E03E00000
001F07E00000
001F87C00000
000FCF800000
0007FF800000
0007FF000000
0003FF000000
0001FE000000
0001FC000000
000000000000
000000000000
000000000000
000000000000
FFFFFFF80000
FFFFFFFF8000
FFFFFFFFC000
FFFFFFFFF000
FFFFFFFFF800
FFFFFFFFFC00
FC00000FFC00
FC000003FE00
FC000001FE00
FC000000FE00
FC000000FF00
FC0000007F00
FC0000007F00
FC0000007F00
FC0000007F00
FC0000007F00
FC0000007F00
FC0000007F00
FC0000007E00
FC000000FE00
FC000000FE00
FC000001FC00
FC000003F800
FC00001FF000
FFFFFFFFE000
FFFFFFFFC000
FFFFFFFF0000
FFFFFFFF8000
FFFFFFFFE000
FFFFFFFFF000
FC00001FF800
FC000007FC00
FC000001FC00
FC000001FC00
FC000000FC00
FC000000FE00
FC000000FE00
FC000000FE00
FC000000FE00
FC000000FE00
FC000000FE00
FC000000FE00
FC000000FE00
FC000000FE00
FC000000FE00
FC000000FE00
FC000000FE00
FC0000007E00
FC0000007F00
FC0000007F00
FC0000007F80
FC0000007FC0
FC0000003FC0
ENDCHAR
STARTCHAR 0159
ENCODING 345
SWIDTH 332 0
DWIDTH 24 0
BBX 20 54 4 0
BITMAP
F001F0
F803E0
7C03E0
3E07C0
3F0F80
1F9F80
0FBF00
0FFE00
07FE00
07FC00
03FC00
000000
000000
000000
000000
0003E0
7E0FE0
7E1FE0
7E3FE0
7E7FE0
7EFFE0
7EFF00
7FF000
7FE000
7FC000
7F8000
7F8000
7F0000
7F0000
7F0000
7E0000
7E0000
7E0000
7E0000
7E0000
7E0000
7E0000
7E0000
7E0000
7E0000
7E0000
7E0000
7E0000
7E0000
7E0000
7E0000
7E0000
7E0000
7E0000
7E0000
7E0000
7E0000
7E0000
7E0000
ENDCHAR
STARTCHAR 015A
ENCODING 346
SWIDTH 664 0
DWIDTH 48 0
BBX 42 70 3 -2
BITMAP
000001FE0000
000003F80000
000007F00000
000007E00000
00000FC00000
00001F800000
00001F000000
00003E000000
00007C000000
000078000000
000000000000
000000000000
000000000000
000000000000
0000FFC00000
000FFFFC0000
003FFFFF0000
00FFFFFFC000
01FFFFFFE000
03FFFFFFF000
07FE001FF800
0FF80007FC00
0FF00003FC00
1FE00001FE00
1FC00000FE00
1F8000007F00
3F8000007F00
3F8000007F00
3F8000003F00
3F8000003F00
3F8000003F00
3F8000000000
3FC000000000
1FE000000000
1FF000000000
1FFC00000000
0FFF80000000
0FFFF8000000
07FFFF000000
01FFFFF00000
00FFFFFF0000
003FFFFFC000
0003FFFFF000
00007FFFF800
000007FFFC00
0000007FFE00
0000000FFF00
00000003FF80
00000000FF80
000000007F80
000000003FC0
FE0000001FC0
7E0000001FC0
7E0000001FC0
7E0000001FC0
7E0000001FC0
7F0000001FC0
7F0000001F80
3F8000003F80
3FC000003F80
3FC000007F00
1FF00000FF00
0FF80003FE00
0FFF001FFC00
07FFFFFFFC00
03FFFFFFF800
00FFFFFFE000
007FFFFFC000
000FFFFE0000
0001FFE00000
ENDCHAR
STARTCHAR 015B
ENCODING 347
SWIDTH 498 0
DWIDTH 36 0
BBX 31 56 2 -2
BITMAP
00003FC0
00007F80
0000FF00
0000FE00
0001FC00
0003F800
0003F000
0007E000
0007C000
000F8000
001F0000
00000000
00000000
00000000
00000000
001FF800
00FFFF00
03FFFF80
07FFFFE0
0FFFFFE0
1FFFFFF0
1FE00FF8
3F8003F8
3F8003F8
3F0001F8
7F0001FC
7F0001FC
7F000000
3F000000
3F800000
3FE00000
3FF80000
1FFF8000
0FFFFC00
07FFFF80
01FFFFE0
007FFFF0
0007FFF8
00007FFC
00000FFC
000001FE
000000FE
0000007E
FE00007E
7E00007E
7E00007E
7F0000FE
7F0000FE
7F8001FC
3FE007FC
3FFFFFF8
1FFFFFF0
0FFFFFE0
07FFFFC0
01FFFF00
003FF000
ENDCHAR
STARTCHAR 015C
ENCODING 348
SWIDTH 664 0
DWIDTH 48 0
BBX 42 70 3 -2
BITMAP
00007F800000
0000FF800000
0000FFC00000
0001FFE00000
0003F3E00000
0003E3F00000
0007C1F80000
000FC0F80000
000F807C0000
001F003E0000
000000000000
000000000000
000000000000
000000000000
0000FFC00000
000FFFFC0000
003FFFFF0000
00FFFFFFC000
01FFFFFFE000
03FFFFFFF000
07FE001FF800
0FF80007FC00
0FF00003FC00
1FE00001FE00
1FC00000FE00
1F8000007F00
3F8000007F00
3F8000007F00
3F8000003F00
3F8000003F00
3F8000003F00
3F8000000000
3FC000000000
1FE000000000
1FF000000000
1FFC00000000
0FFF80000000
0FFFF8000000
07FFFF000000
01FFFFF00000
00FFFFFF0000
003FFFFFC000
0003FFFFF000
00007FFFF800
000007FFFC00
0000007FFE00
0000000FFF00
00000003FF80
00000000FF80
000000007F80
000000003FC0
FE0000001FC0
7E0000001FC0
7E0000001FC0
7E0000001FC0
7E0000001FC0
7F0000001FC0
7F0000001F80
3F8000003F80
3FC000003F80
3FC000007F00
1FF00000FF00
0FF80003FE00
0FFF001FFC00
07FFFFFFFC00
03FFFFFFF800
00FFFFFFE000
007FFFFFC000
000FFFFE0000
0001FFE00000
ENDCHAR
STARTCHAR 015D
ENCODING 349
SWIDTH 498 0
DWIDTH 36 0
BBX 31 56 2 -2
BITMAP
000FF000
000FF000
001FF800
003FFC00
003FFC00
007E7E00
007C3E00
00F81F00
01F00F80
01F00F80
03E007C0
00000000
00000000
00000000
00000000
001FF800
00FFFF00
03FFFF80
07FFFFE0
0FFFFFE0
1FFFFFF0
1FE00FF8
3F8003F8
3F8003F8
3F0001F8
7F0001FC
7F0001FC
7F000000
3F000000
3F800000
3FE00000
3FF80000
1FFF8000
0FFFFC00
07FFFF80
01FFFFE0
007FFFF0
0007FFF8
00007FFC
00000FFC
000001FE
000000FE
0000007E
FE00007E
7E00007E
7E00007E
7F0000FE
7F0000FE
7F8001FC
3FE007FC
3FFFFFF8
1FFFFFF0
0FFFFFE0
07FFFFC0
01FFFF00
003FF000
ENDCHAR
STARTCHAR 015E
ENCODING 350
SWIDTH 664 0
DWIDTH 48 0
BBX 41 69 4 -15
BITMAP
0001FFC00000
001FFFF80000
007FFFFE0000
01FFFFFF8000
03FFFFFFC000
07FFFFFFE000
0FFC003FF000
1FF0000FF800
1FE00003FC00
3FC00001FC00
3F800001FC00
3F800000FE00
3F000000FE00
7F0000007E00
7F0000007E00
7F0000007E00
7F0000007E00
7F8000000000
3F8000000000
3FC000000000
3FE000000000
3FF800000000
1FFF00000000
0FFFF0000000
07FFFF000000
03FFFFE00000
01FFFFFE0000
003FFFFF8000
0007FFFFE000
00007FFFF800
00000FFFFC00
000000FFFC00
0000001FFE00
00000003FF00
00000001FF00
00000000FF80
000000007F80
FC0000003F80
FC0000003F80
FC0000003F80
FC0000003F80
FE0000003F80
FE0000003F80
FE0000003F80
7F0000007F00
7F8000007F00
3FC00000FE00
3FE00001FE00
1FF80007FC00
0FFF003FFC00
07FFFFFFF800
03FFFFFFF000
01FFFFFFC000
007FFFFF8000
001FFFFC0000
0001FFC00000
000070000000
000070000000
0000FF000000
0000FFC00000
0001FFE00000
000007E00000
000007E00000
000003E00000
003007E00000
003E0FC00000
007FFFC00000
001FFF000000
0003FC000000
ENDCHAR
STARTCHAR 015F
ENCODING 351
SWIDTH 498 0
DWIDTH 36 0
BBX 31 54 2 -15
BITMAP
001FF800
00FFFF00
03FFFF80
07FFFFE0
0FFFFFE0
1FFFFFF0
1FE00FF8
3F8003F8
3F0003F8
3F0001FC
7F0001FC
7F0001FC
7F000000
3F000000
3F800000
3FE00000
3FFC0000
1FFFC000
0FFFFC00
07FFFF80
01FFFFE0
003FFFF0
0003FFF8
00003FFC
000007FC
000001FE
000000FE
0000007E
FE00007E
7E00007E
7E00007E
7F0000FE
7F8000FC
3FC003FC
3FF00FF8
1FFFFFF8
1FFFFFF0
07FFFFE0
03FFFF80
00FFFE00
00078000
000E0000
000E0000
001FF000
001FF800
001FFC00
0000FC00
00007C00
00007C00
0300FC00
07C1FC00
0FFFF800
01FFF000
007F8000
ENDCHAR
STARTCHAR 0160
ENCODING 352
SWIDTH 664 0
DWIDTH 48 0
BBX 42 70 3 -2
BITMAP
001F003E0000
000F807C0000
000FC0FC0000
0007E0F80000
0003E1F00000
0003F3F00000
0001FFE00000
0000FFC00000
0000FFC00000
00007F800000
000000000000
000000000000
000000000000
000000000000
0000FFC00000
000FFFFC0000
003FFFFF0000
00FFFFFFC000
01FFFFFFE000
03FFFFFFF000
07FE001FF800
0FF80007FC00
0FF00003FC00
1FE00001FE00
1FC00000FE00
1F8000007F00
3F8000007F00
3F8000007F00
3F8000003F00
3F8000003F00
3F8000003F00
3F8000000000
3FC000000000
1FE000000000
1FF000000000
1FFC00000000
0FFF80000000
0FFFF8000000
07FFFF000000
01FFFFF00000
00FFFFFF0000
003FFFFFC000
0003FFFFF000
00007FFFF800
000007FFFC00
0000007FFE00
0000000FFF00
00000003FF80
00000000FF80
000000007F80
000000003FC0
FE0000001FC0
7E0000001FC0
7E0000001FC0
7E0000001FC0
7E0000001FC0
7F0000001FC0
7F0000001F80
3F8000003F80
3FC000003F80
3FC000007F00
1FF00000FF00
0FF80003FE00
0FFF001FFC00
07FFFFFFFC00
03FFFFFFF800
00FFFFFFE000
007FFFFFC000
000FFFFE0000
0001FFE00000
ENDCHAR
STARTCHAR 0161
ENCODING 353
SWIDTH 498 0
DWIDTH 36 0
BBX 31 56 2 -2
BITMAP
03C007C0
03E00F80
01F00F80
00F81F00
00FC3E00
007E7E00
007EFC00
003FF800
001FF800
001FF000
000FF000
00000000
00000000
00000000
00000000
001FF800
00FFFF00
03FFFF80
07FFFFE0
0FFFFFE0
1FFFFFF0
1FE00FF8
3F8003F8
3F8003F8
3F0001F8
7F0001FC
7F0001FC
7F000000
3F000000
3F800000
3FE00000
3FF80000
1FFF8000
0FFFFC00
07FFFF80
01FFFFE0
007FFFF0
0007FFF8
00007FFC
00000FFC
000001FE
000000FE
0000007E
FE00007E
7E00007E
7E00007E
7F0000FE
7F0000FE
7F8001FC
3FE007FC
3FFFFFF8
1FFFFFF0
0FFFFFE0
07FFFFC0
01FFFF00
003FF000
ENDCHAR
STARTCHAR 0162
ENCODING 354
SWIDTH 609 0
DWIDTH 44 0
BBX 41 68 2 -15
BITMAP
FFFFFFFFFF80
FFFFFFFFFF80
FFFFFFFFFF80
FFFFFFFFFF80
FFFFFFFFFF80
FFFFFFFFFF80
00007F000000
00007F000000
00007F000000
00007F000000
00007F000000
00007F000000
00007F000000
00007F000000
00007F000000
00007F000000
00007F000000
00007F000000
00007F000000
00007F000000
00007F000000
00007F000000
00007F000000
00007F000000
00007F000000
00007F000000
00007F000000
00007F000000
00007F000000
00007F000000
00007F000000
00007F000000
00007F000000
00007F000000
00007F000000
00007F000000
00007F000000
00007F000000
00007F000000
00007F000000
00007F000000
00007F000000
00007F000000
00007F000000
00007F000000
00007F000000
00007F000000
00007F000000
00007F000000
00007F000000
00007F000000
00007F000000
00007F000000
00000E000000
00000C000000
00001C000000
00001C000000
00003FE00000
00003FF00000
000073F80000
000001F80000
000000F80000
000000F80000
000C01F80000
000F83F00000
001FFFF00000
0007FFC00000
0000FF000000
ENDCHAR
STARTCHAR 0163
ENCODING 355
SWIDTH 276 0
DWIDTH 20 0
BBX 18 64 1 -16
BITMAP
07E000
07E000
07E000
07E000
07E000
07E000
07E000
07E000
07E000
07E000
FFFF80
FFFF80
FFFF80
FFFF80
FFFF80
07E000
07E000
07E000
07E000
07E000
07E000
07E000
07E000
07E000
07E000
07E000
07E000
07E000
07E000
07E000
07E000
07E000
07E000
07E000
07E000
07E000
07E000
07E000
07E000
07E000
07E000
07E000
07E000
07F000
07F800
07FF80
03FF80
03FF80
01FF80
00FF80
00E000
01C000
01FC00
03FF00
03FF80
001F80
000FC0
000FC0
000FC0
600F80
F81F80
FFFF00
3FFE00
07F000
ENDCHAR
STARTCHAR 0164
ENCODING 356
SWIDTH 609 0
DWIDTH 44 0
BBX 41 68 2 0
BITMAP
003E007C0000
001F00F80000
000F80F80000
000FC1F00000
0007C3F00000
0007E7E00000
0003FFC00000
0001FFC00000
0001FF800000
0000FF000000
00007F000000
000000000000
000000000000
000000000000
000000000000
FFFFFFFFFF80
FFFFFFFFFF80
FFFFFFFFFF80
FFFFFFFFFF80
FFFFFFFFFF80
FFFFFFFFFF80
00007F000000
00007F000000
00007F000000
00007F000000
00007F000000
00007F000000
00007F000000
00007F000000
00007F000000
00007F000000
00007F000000
00007F000000
00007F000000
00007F000000
00007F000000
00007F000000
00007F000000
00007F000000
00007F000000
00007F000000
00007F000000
00007F000000
00007F000000
00007F000000
00007F000000
00007F000000
00007F000000
00007F000000
00007F000000
00007F000000
00007F000000
00007F000000
00007F000000
00007F000000
00007F000000
00007F000000
00007F000000
00007F000000
00007F000000
00007F000000
00007F000000
00007F000000
00007F000000
00007F000000
00007F000000
00007F000000
00007F000000
ENDCHAR
STARTCHAR 0165
ENCODING 357
SWIDTH 318 0
DWIDTH 23 0
BBX 22 60 1 -2
BITMAP
0001FC
0001FC
0001FC
0001FC
0001FC
0001FC
0001FC
00001C
00001C
00001C
07E01C
07E03C
07E038
07E1F0
07E1F0
07E1C0
07E000
07E000
07E000
07E000
FFFF80
FFFF80
FFFF80
FFFF80
FFFF80
07E000
07E000
07E000
07E000
07E000
07E000
07E000
07E000
07E000
07E000
07E000
07E000
07E000
07E000
07E000
07E000
07E000
07E000
07E000
07E000
07E000
07E000
07E000
07E000
07E000
07E000
07E000
07E000
07F000
07F800
07FF80
03FF80
03FF80
01FF80
007F80
ENDCHAR
STARTCHAR 0166
ENCODING 358
SWIDTH 609 0
DWIDTH 44 0
BBX 41 53 2 0
BITMAP
FFFFFFFFFF80
FFFFFFFFFF80
FFFFFFFFFF80
FFFFFFFFFF80
FFFFFFFFFF80
FFFFFFFFFF80
00007F000000
00007F000000
00007F000000
00007F000000
00007F000000
00007F000000
00007F000000
00007F000000
00007F000000
00007F000000
00007F000000
00007F000000
00007F000000
07FFFFFFE000
07FFFFFFE000
07FFFFFFE000
07FFFFFFE000
07FFFFFFE000
00007F000000
00007F000000
00007F000000
00007F000000
00007F000000
00007F000000
00007F000000
00007F000000
00007F000000
00007F000000
00007F000000
00007F000000
00007F000000
00007F000000
00007F000000
00007F000000
00007F000000
00007F000000
00007F000000
00007F000000
00007F000000
00007F000000
00007F000000
00007F000000
00007F000000
00007F000000
00007F000000
00007F000000
00007F000000
ENDCHAR
STARTCHAR 0167
ENCODING 359
SWIDTH 276 0
DWIDTH 20 0
BBX 17 50 1 -2
BITMAP
07E000
07E000
07E000
07E000
07E000
07E000
07E000
07E000
07E000
07E000
FFFF80
FFFF80
FFFF80
FFFF80
FFFF80
07E000
07E000
07E000
07E000
07E000
07E000
7FFF80
7FFF80
7FFF80
7FFF80
07E000
07E000
07E000
07E000
07E000
07E000
07E000
07E000
07E000
07E000
07E000
07E000
07E000
07E000
07E000
07E000
07E000
07E000
07F000
07F800
07FF80
03FF80
03FF80
01FF80
007F80
ENDCHAR
STARTCHAR 0168
ENCODING 360
SWIDTH 720 0
DWIDTH 52 0
BBX 41 69 6 -2
BITMAP
0007801E0000
001FE03E0000
003FFC3E0000
003FFFFC0000
007FFFFC0000
007C7FF80000
00780FF00000
00F803E00000
000000000000
000000000000
000000000000
000000000000
000000000000
000000000000
FE0000003F80
FE0000003F80
FE0000003F80
FE0000003F80
FE0000003F80
FE0000003F80
FE0000003F80
FE0000003F80
FE0000003F80
FE0000003F80
FE0000003F80
FE0000003F80
FE0000003F80
FE0000003F80
FE0000003F80
FE0000003F80
FE0000003F80
FE0000003F80
FE0000003F80
FE0000003F80
FE0000003F80
FE0000003F80
FE0000003F80
FE0000003F80
FE0000003F80
FE0000003F80
FE0000003F80
FE0000003F80
FE0000003F80
FE0000003F80
FE0000003F80
FE0000003F80
FE0000003F80
FE0000003F80
FE0000003F80
FE0000003F80
FE0000003F80
FE0000003F80
FE0000003F80
FE0000003F80
FE0000003F00
7E0000007F00
7F0000007F00
7F000000FF00
7F800000FE00
3FC00001FE00
3FE00003FC00
1FF8000FFC00
0FFF007FF800
07FFFFFFF000
03FFFFFFE000
01FFFFFF8000
007FFFFF0000
001FFFF80000
0001FFC00000
ENDCHAR
STARTCHAR 0169
ENCODING 361
SWIDTH 553 0
DWIDTH 40 0
BBX 30 54 5 -2
BITMAP
01F003C0
03FC07C0
07FF87C0
07FFFF80
0FFFFF80
0F87FF00
0F01FE00
00007800
00000000
00000000
00000000
00000000
00000000
00000000
FC0000FC
FC0000FC
FC0000FC
FC0000FC
FC0000FC
FC0000FC
FC0000FC
FC0000FC
FC0000FC
FC0000FC
FC0000FC
FC0000FC
FC0000FC
FC0000FC
FC0000FC
FC0000FC
FC0000FC
FC0000FC
FC0000FC
FC0000FC
FC0000FC
FC0000FC
FC0000FC
FC0000FC
FC0000FC
FC0001FC
FC0001FC
FC0001FC
FC0001FC
FC0003FC
FC0003FC
FE0007FC
FF000FFC
FF803FFC
7FE0FEFC
7FFFFCFC
3FFFF8FC
1FFFF0FC
07FFC000
00FE0000
ENDCHAR
STARTCHAR 016A
ENCODING 362
SWIDTH 720 0
DWIDTH 52 0
BBX 41 67 6 -2
BITMAP
003FFFFC0000
003FFFFC0000
003FFFFC0000
003FFFFC0000
003FFFFC0000
000000000000
000000000000
000000000000
000000000000
000000000000
000000000000
000000000000
FE0000003F80
FE0000003F80
FE0000003F80
FE0000003F80
FE0000003F80
FE0000003F80
FE0000003F80
FE0000003F80
FE0000003F80
FE0000003F80
FE0000003F80
FE0000003F80
FE0000003F80
FE0000003F80
FE0000003F80
FE0000003F80
FE0000003F80
FE0000003F80
FE0000003F80
FE0000003F80
FE0000003F80
FE0000003F80
FE0000003F80
FE0000003F80
FE0000003F80
FE0000003F80
FE0000003F80
FE0000003F80
FE0000003F80
FE0000003F80
FE0000003F80
FE0000003F80
FE0000003F80
FE0000003F80
FE0000003F80
FE0000003F80
FE0000003F80
FE0000003F80
FE0000003F80
FE0000003F80
FE0000003F00
7E0000007F00
7F0000007F00
7F000000FF00
7F800000FE00
3FC00001FE00
3FE00003FC00
1FF8000FFC00
0FFF007FF800
07FFFFFFF000
03FFFFFFE000
01FFFFFF8000
007FFFFF0000
001FFFF80000
0001FFC00000
ENDCHAR
STARTCHAR 016B
ENCODING 363
SWIDTH 553 0
DWIDTH 40 0
BBX 30 53 5 -2
BITMAP
07FFFF80
07FFFF80
07FFFF80
07FFFF80
07FFFF80
00000000
00000000
00000000
00000000
00000000
00000000
00000000
00000000
FC0000FC
FC0000FC
FC0000FC
FC0000FC
FC0000FC
FC0000FC
FC0000FC
FC0000FC
FC0000FC
FC0000FC
FC0000FC
FC0000FC
FC0000FC
FC0000FC
FC0000FC
FC0000FC
FC0000FC
FC0000FC
FC0000FC
FC0000FC
FC0000FC
FC0000FC
FC0000FC
FC0000FC
FC0000FC
FC0001FC
FC0001FC
FC0001FC
FC0001FC
FC0003FC
FC0003FC
FE0007FC
FF000FFC
FF803FFC
7FE0FEFC
7FFFFCFC
3FFFF8FC
1FFFF0FC
07FFC000
00FE0000
ENDCHAR
STARTCHAR 016C
ENCODING 364
SWIDTH 720 0
DWIDTH 52 0
BBX 41 70 6 -2
BITMAP
0078001E0000
007C003E0000
007C003E0000
003E007C0000
003F81FC0000
003FFFF80000
001FFFF80000
000FFFF00000
0003FFC00000
0000FF000000
000000000000
000000000000
000000000000
000000000000
000000000000
FE0000003F80
FE0000003F80
FE0000003F80
FE0000003F80
FE0000003F80
FE0000003F80
FE0000003F80
FE0000003F80
FE0000003F80
FE0000003F80
FE0000003F80
FE0000003F80
FE0000003F80
FE0000003F80
FE0000003F80
FE0000003F80
FE0000003F80
FE0000003F80
FE0000003F80
FE0000003F80
FE0000003F80
FE0000003F80
FE0000003F80
FE0000003F80
FE0000003F80
FE0000003F80
FE0000003F80
FE0000003F80
FE0000003F80
FE0000003F80
FE0000003F80
FE0000003F80
FE0000003F80
FE0000003F80
FE0000003F80
FE0000003F80
FE0000003F80
FE0000003F80
FE0000003F80
FE0000003F80
FE0000003F00
7E0000007F00
7F0000007F00
7F000000FF00
7F800000FE00
3FC00001FE00
3FE00003FC00
1FF8000FFC00
0FFF007FF800
07FFFFFFF000
03FFFFFFE000
01FFFFFF8000
007FFFFF0000
001FFFF80000
0001FFC00000
ENDCHAR
STARTCHAR 016D
ENCODING 365
SWIDTH 553 0
DWIDTH 40 0
BBX 30 55 5 -2
BITMAP
0F8003C0
0F8007C0
0F8007C0
07C00F80
07F03F80
07FFFF00
03FFFF00
01FFFE00
007FF800
001FE000
00000000
00000000
00000000
00000000
00000000
FC0000FC
FC0000FC
FC0000FC
FC0000FC
FC0000FC
FC0000FC
FC0000FC
FC0000FC
FC0000FC
FC0000FC
FC0000FC
FC0000FC
FC0000FC
FC0000FC
FC0000FC
FC0000FC
FC0000FC
FC0000FC
FC0000FC
FC0000FC
FC0000FC
FC0000FC
FC0000FC
FC0000FC
FC0000FC
FC0001FC
FC0001FC
FC0001FC
FC0001FC
FC0003FC
FC0003FC
FE0007FC
FF000FFC
FF803FFC
7FE0FEFC
7FFFFCFC
3FFFF8FC
1FFFF0FC
07FFC000
00FE0000
ENDCHAR
STARTCHAR 016E
ENCODING 366
SWIDTH 720 0
DWIDTH 52 0
BBX 41 71 6 -2
BITMAP
00003E000000
0000FF800000
0001FFC00000
0001E3C00000
0003C1E00000
000381E00000
000380E00000
0003C1E00000
0001E3C00000
0001FFC00000
0000FF800000
00007E000000
000000000000
000000000000
000000000000
000000000000
FE0000003F80
FE0000003F80
FE0000003F80
FE0000003F80
FE0000003F80
FE0000003F80
FE0000003F80
FE0000003F80
FE0000003F80
FE0000003F80
FE0000003F80
FE0000003F80
FE0000003F80
FE0000003F80
FE0000003F80
FE0000003F80
FE0000003F80
FE0000003F80
FE0000003F80
FE0000003F80
FE0000003F80
FE0000003F80
FE0000003F80
FE0000003F80
FE0000003F80
FE0000003F80
FE0000003F80
FE0000003F80
FE0000003F80
FE0000003F80
FE0000003F80
FE0000003F80
FE0000003F80
FE0000003F80
FE0000003F80
FE0000003F80
FE0000003F80
FE0000003F80
FE0000003F80
FE0000003F80
FE0000003F00
7E0000007F00
7F0000007F00
7F000000FF00
7F800000FE00
3FC00001FE00
3FE00003FC00
1FF8000FFC00
0FFF007FF800
07FFFFFFF000
03FFFFFFE000
01FFFFFF8000
007FFFFF0000
001FFFF80000
0001FFC00000
ENDCHAR
STARTCHAR 016F
ENCODING 367
SWIDTH 553 0
DWIDTH 40 0
BBX 30 57 5 -2
BITMAP
000F8000
001FE000
003FF000
0078F000
00707800
00703800
00F03800
00703800
00707800
007CF000
003FF000
001FE000
000F8000
00000000
00000000
00000000
00000000
FC0000FC
FC0000FC
FC0000FC
FC0000FC
FC0000FC
FC0000FC
FC0000FC
FC0000FC
FC0000FC
FC0000FC
FC0000FC
FC0000FC
FC0000FC
FC0000FC
FC0000FC
FC0000FC
FC0000FC
FC0000FC
FC0000FC
FC0000FC
FC0000FC
FC0000FC
FC0000FC
FC0000FC
FC0000FC
FC0001FC
FC0001FC
FC0001FC
FC0001FC
FC0003FC
FC0003FC
FE0007FC
FF000FFC
FF803FFC
7FE0FEFC
7FFFFCFC
3FFFF8FC
1FFFF0FC
07FFC000
00FE0000
ENDCHAR
STARTCHAR 0170
ENCODING 368
SWIDTH 720 0
DWIDTH 52 0
BBX 41 70 6 -2
BITMAP
00007F83FC00
00007F07F800
0000FE07F000
0001FC0FE000
0001F81FC000
0003F01F8000
0007E03F0000
0007C07E0000
000F807C0000
000F00F80000
001E01F00000
000000000000
000000000000
000000000000
000000000000
FE0000003F80
FE0000003F80
FE0000003F80
FE0000003F80
FE0000003F80
FE0000003F80
FE0000003F80
FE0000003F80
FE0000003F80
FE0000003F80
FE0000003F80
FE0000003F80
FE0000003F80
FE0000003F80
FE0000003F80
FE0000003F80
FE0000003F80
FE0000003F80
FE0000003F80
FE0000003F80
FE0000003F80
FE0000003F80
FE0000003F80
FE0000003F80
FE0000003F80
FE0000003F80
FE0000003F80
FE0000003F80
FE0000003F80
FE0000003F80
FE0000003F80
FE0000003F80
FE0000003F80
FE0000003F80
FE0000003F80
FE0000003F80
FE0000003F80
FE0000003F80
FE0000003F80
FE0000003F80
FE0000003F00
7E0000007F00
7F0000007F00
7F000000FF00
7F800000FE00
3FC00001FE00
3FE00003FC00
1FF8000FFC00
0FFF007FF800
07FFFFFFF000
03FFFFFFE000
01FFFFFF8000
007FFFFF0000
001FFFF80000
0001FFC00000
ENDCHAR
STARTCHAR 0171
ENCODING 369
SWIDTH 553 0
DWIDTH 40 0
BBX 33 56 5 -2
BITMAP
000FF07F80
000FE0FF00
001FC0FE00
003F81FC00
003F03F800
007E03F000
00FC07E000
00F80FC000
01F00F8000
01E01F0000
03C03E0000
0000000000
0000000000
0000000000
0000000000
0000000000
FC0000FC00
FC0000FC00
FC0000FC00
FC0000FC00
FC0000FC00
FC0000FC00
FC0000FC00
FC0000FC00
FC0000FC00
FC0000FC00
FC0000FC00
FC0000FC00
FC0000FC00
FC0000FC00
FC0000FC00
FC0000FC00
FC0000FC00
FC0000FC00
FC0000FC00
FC0000FC00
FC0000FC00
FC0000FC00
FC0000FC00
FC0000FC00
FC0000FC00
FC0001FC00
FC0001FC00
FC0001FC00
FC0001FC00
FC0003FC00
FC0003FC00
FE0007FC00
FF000FFC00
FF803FFC00
7FE0FEFC00
7FFFFCFC00
3FFFF8FC00
1FFFF0FC00
07FFC00000
00FE000000
ENDCHAR
ENDFONT
